<?xml version="1.0" encoding="UTF-8"?>
<svg id="Layer_2" data-name="Layer 2" xmlns="http://www.w3.org/2000/svg" xmlns:xlink="http://www.w3.org/1999/xlink" viewBox="0 0 1430.78 311.22">
  <defs>
    <style>
      .cls-1 {
        fill: url(#linear-gradient-14);
        stroke: url(#Sky-14);
      }

      .cls-1, .cls-2, .cls-3, .cls-4, .cls-5, .cls-6, .cls-7, .cls-8, .cls-9, .cls-10, .cls-11, .cls-12, .cls-13, .cls-14 {
        stroke-miterlimit: 10;
      }

      .cls-2 {
        fill: url(#linear-gradient-11);
        stroke: url(#Sky-11);
      }

      .cls-3 {
        fill: url(#linear-gradient-10);
        stroke: url(#Sky-10);
      }

      .cls-4 {
        fill: url(#linear-gradient-13);
        stroke: url(#Sky-13);
      }

      .cls-5 {
        fill: url(#linear-gradient-12);
        stroke: url(#Sky-12);
      }

      .cls-6 {
        fill: url(#linear-gradient);
        stroke: url(#Sky);
      }

      .cls-15 {
        fill: url(#radial-gradient);
      }

      .cls-15, .cls-16, .cls-17, .cls-18, .cls-19, .cls-20, .cls-21, .cls-22 {
        stroke-width: 0px;
      }

      .cls-15, .cls-16, .cls-17, .cls-18, .cls-19, .cls-20, .cls-22 {
        opacity: .41;
      }

      .cls-7 {
        fill: url(#linear-gradient-4);
        stroke: url(#Sky-4);
      }

      .cls-8 {
        fill: url(#linear-gradient-2);
        stroke: url(#Sky-2);
      }

      .cls-9 {
        fill: url(#linear-gradient-3);
        stroke: url(#Sky-3);
      }

      .cls-10 {
        fill: url(#linear-gradient-6);
        stroke: url(#Sky-6);
      }

      .cls-11 {
        fill: url(#linear-gradient-7);
        stroke: url(#Sky-7);
      }

      .cls-12 {
        fill: url(#linear-gradient-8);
        stroke: url(#Sky-8);
      }

      .cls-13 {
        fill: url(#linear-gradient-9);
        stroke: url(#Sky-9);
      }

      .cls-14 {
        fill: url(#linear-gradient-5);
        stroke: url(#Sky-5);
      }

      .cls-16 {
        fill: url(#radial-gradient-6);
      }

      .cls-17 {
        fill: url(#radial-gradient-2);
      }

      .cls-18 {
        fill: url(#radial-gradient-3);
      }

      .cls-19 {
        fill: url(#radial-gradient-4);
      }

      .cls-20 {
        fill: url(#radial-gradient-5);
      }

      .cls-23 {
        opacity: .77;
      }

      .cls-24 {
        opacity: .71;
      }

      .cls-21, .cls-22 {
        fill: #0071bc;
      }
    </style>
    <radialGradient id="radial-gradient" cx="1293.96" cy="77.24" fx="1293.96" fy="77.24" r="64.51" gradientUnits="userSpaceOnUse">
      <stop offset="0" stop-color="#cce0f4"/>
      <stop offset=".06" stop-color="#c2dcf2"/>
      <stop offset=".17" stop-color="#a9d2ee"/>
      <stop offset=".31" stop-color="#7fc2e7"/>
      <stop offset=".46" stop-color="#46abdd"/>
      <stop offset=".57" stop-color="#1e9cd7"/>
      <stop offset=".87" stop-color="#0075be"/>
      <stop offset=".99" stop-color="#005b97"/>
    </radialGradient>
    <radialGradient id="radial-gradient-2" cx="1363.17" cy="110.59" fx="1363.17" fy="110.59" r="59.76" xlink:href="#radial-gradient"/>
    <radialGradient id="radial-gradient-3" cx="1356.06" cy="210.08" fx="1356.06" fy="210.08" r="56.91" xlink:href="#radial-gradient"/>
    <radialGradient id="radial-gradient-4" cx="1280.55" cy="238.26" fx="1280.55" fy="238.26" r="64.48" xlink:href="#radial-gradient"/>
    <radialGradient id="radial-gradient-5" cx="1214.38" cy="201.67" fx="1214.38" fy="201.67" r="59.59" xlink:href="#radial-gradient"/>
    <radialGradient id="radial-gradient-6" cx="1220.72" cy="98.38" fx="1220.72" fy="98.38" r="56.54" xlink:href="#radial-gradient"/>
    <linearGradient id="linear-gradient" x1="10.86" y1="156.04" x2="456.33" y2="156.04" gradientUnits="userSpaceOnUse">
      <stop offset=".07" stop-color="#75bee6" stop-opacity=".5"/>
      <stop offset=".15" stop-color="rgba(108, 186, 228, .55)" stop-opacity=".55"/>
      <stop offset=".29" stop-color="rgba(86, 178, 224, .67)" stop-opacity=".67"/>
      <stop offset=".46" stop-color="rgba(50, 164, 218, .88)" stop-opacity=".88"/>
      <stop offset=".55" stop-color="#1e9cd7"/>
      <stop offset=".99" stop-color="#005b97"/>
      <stop offset="1" stop-color="#279fd8" stop-opacity=".7"/>
      <stop offset="1" stop-color="rgba(25, 143, 201, .91)" stop-opacity=".91"/>
      <stop offset="1" stop-color="#1489c4"/>
    </linearGradient>
    <linearGradient id="Sky" x1="10.36" y1="156.04" x2="291.28" y2="156.04" gradientUnits="userSpaceOnUse">
      <stop offset="0" stop-color="#cce0f4"/>
      <stop offset=".06" stop-color="#c2dcf2"/>
      <stop offset=".17" stop-color="#a9d2ee"/>
      <stop offset=".31" stop-color="#7fc2e7"/>
      <stop offset=".46" stop-color="#46abdd"/>
      <stop offset=".57" stop-color="#1e9cd7"/>
      <stop offset=".87" stop-color="#0075be"/>
      <stop offset=".99" stop-color="#005b97"/>
    </linearGradient>
    <linearGradient id="linear-gradient-2" x1=".5" y1="148.89" x2="445.97" y2="148.89" xlink:href="#linear-gradient"/>
    <linearGradient id="Sky-2" data-name="Sky" x1="0" y1="148.89" x2="280.93" y2="148.89" xlink:href="#Sky"/>
    <linearGradient id="linear-gradient-3" x1="644.52" y1="165.9" x2="992.44" y2="165.9" xlink:href="#linear-gradient"/>
    <linearGradient id="Sky-3" data-name="Sky" x1="644.02" y1="165.9" x2="839.13" y2="165.9" xlink:href="#Sky"/>
    <linearGradient id="linear-gradient-4" x1="635.42" y1="159.62" x2="983.34" y2="159.62" xlink:href="#linear-gradient"/>
    <linearGradient id="Sky-4" data-name="Sky" x1="634.92" y1="159.62" x2="830.03" y2="159.62" xlink:href="#Sky"/>
    <linearGradient id="linear-gradient-5" x1="257.6" y1="135.76" x2="400.34" y2="135.76" gradientUnits="userSpaceOnUse">
      <stop offset="0" stop-color="#cce0f4"/>
      <stop offset=".11" stop-color="#c2dcf2"/>
      <stop offset=".29" stop-color="#a9d2ee"/>
      <stop offset=".53" stop-color="#7fc2e7"/>
      <stop offset=".8" stop-color="#46abdd"/>
      <stop offset=".98" stop-color="#1e9cd7"/>
      <stop offset=".99" stop-color="#0075be"/>
      <stop offset=".99" stop-color="#005b97"/>
    </linearGradient>
    <linearGradient id="Sky-5" data-name="Sky" x1="256.8" y1="135.76" x2="401.11" y2="135.76" xlink:href="#Sky"/>
    <linearGradient id="linear-gradient-6" x1="339.86" y1="164.44" x2="541.39" y2="164.44" xlink:href="#linear-gradient-5"/>
    <linearGradient id="Sky-6" data-name="Sky" x1="339.09" y1="164.44" x2="542.44" y2="164.44" xlink:href="#Sky"/>
    <linearGradient id="linear-gradient-7" x1="518.06" y1="137.55" x2="671.25" y2="137.55" xlink:href="#linear-gradient-5"/>
    <linearGradient id="Sky-7" data-name="Sky" x1="517.56" y1="137.55" x2="671.75" y2="137.55" xlink:href="#Sky"/>
    <linearGradient id="linear-gradient-8" x1="799.18" y1="141.58" x2="949.7" y2="141.58" xlink:href="#linear-gradient-5"/>
    <linearGradient id="Sky-8" data-name="Sky" x1="798.68" y1="141.58" x2="950.2" y2="141.58" xlink:href="#Sky"/>
    <linearGradient id="linear-gradient-9" x1="936.19" y1="167.19" x2="1124.09" y2="167.19" xlink:href="#linear-gradient-5"/>
    <linearGradient id="Sky-9" data-name="Sky" x1="935.69" y1="167.19" x2="1124.83" y2="167.19" xlink:href="#Sky"/>
    <linearGradient id="linear-gradient-10" x1="252.64" y1="128.81" x2="395.38" y2="128.81" xlink:href="#linear-gradient-5"/>
    <linearGradient id="Sky-10" data-name="Sky" x1="251.84" y1="128.81" x2="396.16" y2="128.81" xlink:href="#Sky"/>
    <linearGradient id="linear-gradient-11" x1="334.9" y1="157.48" x2="536.44" y2="157.48" xlink:href="#linear-gradient-5"/>
    <linearGradient id="Sky-11" data-name="Sky" x1="334.13" y1="157.48" x2="537.49" y2="157.48" xlink:href="#Sky"/>
    <linearGradient id="linear-gradient-12" x1="513.1" y1="130.59" x2="666.29" y2="130.59" xlink:href="#linear-gradient-5"/>
    <linearGradient id="Sky-12" data-name="Sky" x1="512.6" y1="130.59" x2="666.79" y2="130.59" xlink:href="#Sky"/>
    <linearGradient id="linear-gradient-13" x1="795.22" y1="134.62" x2="945.75" y2="134.62" xlink:href="#linear-gradient-5"/>
    <linearGradient id="Sky-13" data-name="Sky" x1="794.72" y1="134.62" x2="946.25" y2="134.62" xlink:href="#Sky"/>
    <linearGradient id="linear-gradient-14" x1="932.23" y1="160.23" x2="1120.13" y2="160.23" xlink:href="#linear-gradient-5"/>
    <linearGradient id="Sky-14" data-name="Sky" x1="931.73" y1="160.23" x2="1120.88" y2="160.23" xlink:href="#Sky"/>
  </defs>
  <g id="Layer_5" data-name="Layer 5">
    <g>
      <path class="cls-22" d="M1289.56,145.99c-10.61-23.72-51.52-107.12-50.01-107.89,1.32.42,5.86,2.14,9.42,5.42.66.57,2.41,2.38,2.82,2.02.98-3.87.42-14.19,5.33-16.17,1.36-.37,2.48.21,3.87.83,1.55.82,4.61,2.13,5.76,3.06.41.37.44.74.34,1.25-.73,2.64-3.81,12.79-3.08,17.85,2.43,6.51,19.76,54.49,21.05,58.14-.33-4.91,1.1-74.51-.6-77.46-4.98-3.04-11.57-6.97-16.79-10.13-3.38-2.14-3.82-1.74-3.31-4.21.49-2.18,1.93-4.16,3.75-5.48,1.82-1.13,3.19-2.24,4.5-.93,2.39,2.99,11.85,14.54,15.65,11.77,3.5-4.2.8-12.45-.04-17.78-1.1-4.02.26-4.9,4.41-5.91,3.83-.57,6.4-1.07,5.18,3.84-.33,4.23-3.31,20.18.72,21.35,3.73-1.39,12.06-10.14,15.46-14.05,1.79-1.83,2.29-3.02,4.7-2.12,2.17.82,6.6,4.58,5.13,7.03-5.89,5.53-12.23,10.71-19.22,14.79-1.37.95-2.84,1.42-2.95,3.12-.23,3.72-.78,15.77-1.05,21.02-.12,4.7-1.76,44.62-2.15,59.58.08.08,12.32-24.6,18.51-36.91,1.3-2.59,2.18-4.36,3.16-6.32.33-.62.25-1.11.11-1.8-.59-2.77-3.32-14.92-3.92-17.7-.81-3.01,2.17-5.46,4.86-6.61,1.93-.8,3.98-.97,5.11-1.08,1.59-.23,2.49.06,3.69,1.59,2.11,2.67,2.68,6.52,3.55,9.75.13.28.29.73.59.88.51.2,1.34-.93,2.62-2.15,2.61-2.6,6.77-6.03,9.76-6.14.83-.05,2.34-.06,2.49.74-2.29,4.07-46.15,75.22-59.41,96.83h-.02Z"/>
      <path class="cls-22" d="M1296.12,149.45c16.14-20.36,71.21-95.17,72.6-94.18.24,1.36.8,6.19-.45,10.86-.2.85-1,3.24-.49,3.44,3.88-.92,12.78-6.18,16.8-2.74.96,1.04.96,2.29,1.05,3.82,0,1.75.24,5.07-.05,6.52-.14.54-.45.73-.95.87-2.68.57-13.11,2.52-17.25,5.51-4.66,5.16-39.21,42.69-41.84,45.52,4.2-2.56,66.6-33.44,68.43-36.31.4-5.83.84-13.49,1.23-19.57.34-3.99-.22-4.19,2.21-4.88,2.16-.57,4.58-.2,6.59.79,1.84,1.09,3.46,1.79,2.91,3.56-1.55,3.5-7.43,17.23-3.21,19.32,5.34,1.16,11.42-5.04,15.75-8.25,3.05-2.83,4.46-2.04,7.28,1.18,2.28,3.13,3.9,5.18-1.01,6.37-3.91,1.66-19.43,6.39-18.61,10.5,2.95,2.67,14.57,6.01,19.6,7.22,2.45.74,3.74.64,4.05,3.2.27,2.31-1.02,7.97-3.86,7.8-7.62-2.67-15.14-5.9-21.99-10.21-1.48-.78-2.57-1.86-4.13-1.17-3.4,1.51-14.35,6.59-19.13,8.78-4.23,2.06-40.39,19.05-53.84,25.61-.04.11,27.51-.43,41.29-.63,2.9-.04,4.87-.08,7.06-.12.7,0,1.1-.3,1.65-.74,2.18-1.8,11.7-9.84,13.89-11.65,2.29-2.11,5.85-.6,8.1,1.26,1.6,1.34,2.69,3.08,3.32,4.03.93,1.3,1.1,2.24.3,4.01-1.4,3.1-4.54,5.39-7.01,7.65-.19.24-.51.6-.51.93.06.55,1.44.77,3.11,1.33,3.51,1.11,8.47,3.22,9.95,5.82.43.71,1.13,2.05.5,2.55-4.67-.15-88.03-6.2-113.32-7.97v-.02Z"/>
      <path class="cls-22" d="M1292.48,156.88c25.92,1.75,118.77,4.72,118.74,6.43-.98.97-4.64,4.17-9.2,5.78-.81.32-3.23,1.01-3.11,1.55,2.96,2.68,12.33,7.02,11.78,12.29-.31,1.38-1.35,2.09-2.55,3.03-1.45.99-4.04,3.07-5.4,3.65-.52.19-.86.04-1.26-.29-1.99-1.89-9.51-9.37-14.32-11.09-6.89-.91-57.39-8.11-61.22-8.67,4.49,2.01,65.29,35.91,68.7,35.79,5.03-2.97,11.59-6.95,16.82-10.08,3.48-1.98,3.33-2.56,5.27-.95,1.7,1.46,2.76,3.66,3.08,5.88.14,2.14.49,3.87-1.29,4.42-3.76.71-18.4,3.64-17.74,8.3,2.07,5.06,10.62,6.55,15.72,8.3,4.06.91,4.21,2.52,3.16,6.67-1.29,3.65-2.06,6.15-5.82,2.78-3.58-2.28-16.28-12.39-19.2-9.38-.52,3.94,3.3,15.41,5.16,20.24.78,2.44,1.59,3.44-.34,5.15-1.75,1.53-7.14,3.68-8.61,1.24-2.12-7.79-3.72-15.82-4.05-23.91-.2-1.66.08-3.17-1.38-4.07-3.17-1.95-13.56-8.08-18.07-10.79-4.09-2.31-38.58-22.48-51.61-29.84-.11.03,15.95,22.42,23.92,33.66,1.68,2.36,2.83,3.97,4.1,5.75.39.58.87.74,1.54.94,2.72.78,14.73,4.06,17.47,4.84,3.04.69,3.8,4.48,3.56,7.39-.2,2.08-1.01,3.97-1.44,5.02-.54,1.51-1.23,2.17-3.13,2.51-3.35.61-7.01-.69-10.28-1.44-.31-.02-.78-.09-1.05.11-.42.36.19,1.62.67,3.32,1.07,3.52,2.15,8.81.84,11.5-.35.76-1.04,2.09-1.82,1.85-2.52-3.94-44.79-76.04-57.66-97.88h0Z"/>
      <path class="cls-22" d="M1286.34,161.05c10.42,23.8,50.67,107.53,49.14,108.29-1.31-.43-5.84-2.19-9.38-5.49-.66-.57-2.39-2.4-2.81-2.04-1.01,3.86-.53,14.18-5.46,16.12-1.37.36-2.47-.23-3.86-.86-1.54-.83-4.59-2.17-5.74-3.1-.41-.38-.43-.74-.33-1.25.76-2.63,3.92-12.76,3.22-17.82-2.37-6.53-19.32-54.65-20.58-58.3.29,4.91-1.7,74.5-.02,77.46,4.96,3.08,11.52,7.06,16.71,10.27,3.36,2.17,3.81,1.77,3.28,4.24-.51,2.18-1.97,4.14-3.79,5.45-1.83,1.11-3.2,2.22-4.51.9-2.36-3.01-11.73-14.64-15.56-11.9-3.53,4.17-.9,12.45-.1,17.78,1.07,4.03-.29,4.9-4.45,5.88-3.83.54-6.41,1.01-5.15-3.88.37-4.23,3.47-20.16-.55-21.36-3.74,1.36-12.14,10.04-15.57,13.93-1.81,1.82-2.32,3-4.72,2.08-2.17-.84-6.56-4.63-5.08-7.07,5.93-5.48,12.31-10.61,19.33-14.63,1.38-.94,2.85-1.39,2.97-3.1.26-3.71.91-15.76,1.22-21.01.16-4.7,2.12-44.61,2.63-59.56-.08-.08-12.52,24.5-18.81,36.77-1.32,2.58-2.22,4.34-3.21,6.29-.34.62-.26,1.11-.12,1.8.57,2.77,3.2,14.95,3.78,17.73.79,3.02-2.22,5.44-4.91,6.57-1.94.79-3.99.93-5.12,1.04-1.59.21-2.49-.08-3.68-1.62-2.09-2.69-2.63-6.54-3.47-9.78-.13-.28-.28-.73-.58-.88-.51-.21-1.35.92-2.63,2.12-2.63,2.57-6.82,5.97-9.81,6.06-.83.04-2.34.04-2.48-.76,2.33-4.05,46.75-74.85,60.18-96.35h.02Z"/>
      <path class="cls-22" d="M1281.83,153.48c-15.95,20.51-70.35,95.81-71.74,94.84-.25-1.36-.86-6.18.35-10.86.19-.85.97-3.25.46-3.44-3.88.95-12.72,6.3-16.78,2.89-.97-1.03-.98-2.28-1.08-3.81,0-1.75-.29-5.07,0-6.52.14-.54.44-.73.94-.88,2.68-.59,13.08-2.64,17.2-5.66,4.61-5.2,38.82-43.04,41.43-45.9-4.18,2.6-66.29,34.04-68.1,36.93-.35,5.83-.72,13.49-1.05,19.58-.3,3.99.26,4.19-2.16,4.9-2.16.59-4.58.25-6.6-.73-1.85-1.07-3.48-1.76-2.94-3.54,1.51-3.51,7.27-17.29,3.04-19.35-5.35-1.12-11.37,5.14-15.67,8.39-3.03,2.86-4.45,2.08-7.29-1.11-2.3-3.11-3.95-5.15.95-6.38,3.89-1.69,19.37-6.56,18.51-10.67-2.97-2.64-14.62-5.88-19.67-7.04-2.46-.72-3.74-.61-4.08-3.16-.29-2.31.94-7.98,3.79-7.83,7.65,2.6,15.2,5.76,22.08,10.01,1.49.76,2.58,1.84,4.14,1.13,3.39-1.54,14.29-6.72,19.05-8.95,4.21-2.1,40.22-19.41,53.6-26.09.04-.11-27.51.68-41.28,1-2.9.07-4.87.12-7.06.18-.7,0-1.1.31-1.64.75-2.17,1.82-11.61,9.94-13.79,11.78-2.28,2.13-5.84.65-8.11-1.18-1.62-1.33-2.72-3.06-3.35-4-.95-1.29-1.12-2.23-.33-4,1.37-3.11,4.5-5.43,6.94-7.71.19-.25.51-.6.5-.93-.06-.55-1.45-.75-3.12-1.3-3.52-1.08-8.5-3.14-10-5.73-.43-.71-1.15-2.03-.52-2.54,4.67.11,88.08,5.4,113.38,6.95v.02Z"/>
      <path class="cls-22" d="M1281.8,146.06c-25.56-4.68-117.47-18.14-117.25-19.83,1.09-.85,5.08-3.62,9.8-4.7.84-.22,3.33-.64,3.27-1.18-2.63-3-11.46-8.37-10.31-13.55.47-1.34,1.57-1.92,2.88-2.72,1.55-.82,4.37-2.6,5.78-3.02.54-.13.86.05,1.22.43,1.76,2.1,8.39,10.38,12.97,12.64,6.74,1.69,56.11,14.55,59.84,15.55-4.23-2.5-60.81-43.08-64.2-43.34-5.33,2.39-12.3,5.6-17.86,8.11-3.68,1.58-3.6,2.17-5.35.34-1.52-1.64-2.33-3.95-2.4-6.19.1-2.14-.05-3.9,1.78-4.24,3.81-.28,18.7-1.54,18.56-6.24-1.48-5.26-9.81-7.71-14.68-10.03-3.93-1.37-3.9-2.98-2.38-6.98,1.7-3.48,2.74-5.88,6.1-2.1,3.3,2.67,14.77,14.15,18.01,11.49.97-3.86-1.54-15.68-2.83-20.7-.49-2.51-1.19-3.6.92-5.08,1.91-1.32,7.51-2.85,8.7-.25,1.22,7.98,1.91,16.14,1.32,24.21,0,1.67-.44,3.14.91,4.2,2.93,2.3,12.56,9.57,16.73,12.76,3.8,2.76,35.79,26.71,47.9,35.49.11-.02-13.31-24.08-19.96-36.15-1.4-2.54-2.36-4.26-3.42-6.18-.32-.62-.78-.83-1.42-1.11-2.62-1.08-14.18-5.71-16.81-6.79-2.94-1.03-3.27-4.88-2.7-7.74.43-2.05,1.46-3.83,2-4.82.71-1.44,1.46-2.02,3.4-2.14,3.39-.23,6.89,1.48,10.05,2.59.3.05.77.17,1.06.01.46-.31,0-1.63-.29-3.37-.67-3.62-1.14-8.99.47-11.52.43-.71,1.27-1.96,2.02-1.64,2.06,4.2,35.89,80.62,46.21,103.78h0Z"/>
    </g>
    <g>
      <path class="cls-15" d="M1289.27,150.23c-10.61-23.72-51.52-107.12-50.01-107.89,1.32.42,5.86,2.14,9.42,5.42.66.57,2.41,2.38,2.82,2.02.98-3.87.42-14.19,5.33-16.17,1.36-.37,2.48.21,3.87.83,1.55.82,4.61,2.13,5.76,3.06.41.37.44.74.34,1.25-.73,2.64-3.81,12.79-3.08,17.85,2.43,6.51,19.76,54.49,21.05,58.14-.33-4.91,1.1-74.51-.6-77.46-4.98-3.04-11.57-6.97-16.79-10.13-3.38-2.14-3.82-1.74-3.31-4.21.49-2.18,1.93-4.16,3.75-5.48,1.82-1.13,3.19-2.24,4.5-.93,2.39,2.99,11.85,14.54,15.65,11.77,3.5-4.2.8-12.45-.04-17.78-1.1-4.02.26-4.9,4.41-5.91,3.83-.57,6.4-1.07,5.18,3.84-.33,4.23-3.31,20.18.72,21.35,3.73-1.39,12.06-10.14,15.46-14.05,1.79-1.83,2.29-3.02,4.7-2.12,2.17.82,6.6,4.58,5.13,7.03-5.89,5.53-12.23,10.71-19.22,14.79-1.37.95-2.84,1.42-2.95,3.12-.23,3.72-.78,15.77-1.05,21.02-.12,4.7-1.76,44.62-2.15,59.58.08.08,12.32-24.6,18.51-36.91,1.3-2.59,2.18-4.36,3.16-6.32.33-.62.25-1.11.11-1.8-.59-2.77-3.32-14.92-3.92-17.7-.81-3.01,2.17-5.46,4.86-6.61,1.93-.8,3.98-.97,5.11-1.08,1.59-.23,2.49.06,3.69,1.59,2.11,2.67,2.68,6.52,3.55,9.75.13.28.29.73.59.88.51.2,1.34-.93,2.62-2.15,2.61-2.6,6.77-6.03,9.76-6.14.83-.05,2.34-.06,2.49.74-2.29,4.07-46.15,75.22-59.41,96.83h-.02Z"/>
      <path class="cls-17" d="M1295.84,153.7c16.14-20.36,71.21-95.17,72.6-94.18.24,1.36.8,6.19-.45,10.86-.2.85-1,3.24-.49,3.44,3.88-.92,12.78-6.18,16.8-2.74.96,1.04.96,2.29,1.05,3.82,0,1.75.24,5.07-.05,6.52-.14.54-.45.73-.95.87-2.68.57-13.11,2.52-17.25,5.51-4.66,5.16-39.21,42.69-41.84,45.52,4.2-2.56,66.6-33.44,68.43-36.31.4-5.83.84-13.49,1.23-19.57.34-3.99-.22-4.19,2.21-4.88,2.16-.57,4.58-.2,6.59.79,1.84,1.09,3.46,1.79,2.91,3.56-1.55,3.5-7.43,17.23-3.21,19.32,5.34,1.16,11.42-5.04,15.75-8.25,3.05-2.83,4.46-2.04,7.28,1.18,2.28,3.13,3.9,5.18-1.01,6.37-3.91,1.66-19.43,6.39-18.61,10.5,2.95,2.67,14.57,6.01,19.6,7.22,2.45.74,3.74.64,4.05,3.2.27,2.31-1.02,7.97-3.86,7.8-7.62-2.67-15.14-5.9-21.99-10.21-1.48-.78-2.57-1.86-4.13-1.17-3.4,1.51-14.35,6.59-19.13,8.78-4.23,2.06-40.39,19.05-53.84,25.61-.04.11,27.51-.43,41.29-.63,2.9-.04,4.87-.08,7.06-.12.7,0,1.1-.3,1.65-.74,2.18-1.8,11.7-9.84,13.89-11.65,2.29-2.11,5.85-.6,8.1,1.26,1.6,1.34,2.69,3.08,3.32,4.03.93,1.3,1.1,2.24.3,4.01-1.4,3.1-4.54,5.39-7.01,7.65-.19.24-.51.6-.51.93.06.55,1.44.77,3.11,1.33,3.51,1.11,8.47,3.22,9.95,5.82.43.71,1.13,2.05.5,2.55-4.67-.15-88.03-6.2-113.32-7.97v-.02Z"/>
      <path class="cls-18" d="M1292.2,161.12c25.92,1.75,118.77,4.72,118.74,6.43-.98.97-4.64,4.17-9.2,5.78-.81.32-3.23,1.01-3.11,1.55,2.96,2.68,12.33,7.02,11.78,12.29-.31,1.38-1.35,2.09-2.55,3.03-1.45.99-4.04,3.07-5.4,3.65-.52.19-.86.04-1.26-.29-1.99-1.89-9.51-9.37-14.32-11.09-6.89-.91-57.39-8.11-61.22-8.67,4.49,2.01,65.29,35.91,68.7,35.79,5.03-2.97,11.59-6.95,16.82-10.08,3.48-1.98,3.33-2.56,5.27-.95,1.7,1.46,2.76,3.66,3.08,5.88.14,2.14.49,3.87-1.29,4.42-3.76.71-18.4,3.64-17.74,8.3,2.07,5.06,10.62,6.55,15.72,8.3,4.06.91,4.21,2.52,3.16,6.67-1.29,3.65-2.06,6.15-5.82,2.78-3.58-2.28-16.28-12.39-19.2-9.38-.52,3.94,3.3,15.41,5.16,20.24.78,2.44,1.59,3.44-.34,5.15-1.75,1.53-7.14,3.68-8.61,1.24-2.12-7.79-3.72-15.82-4.05-23.91-.2-1.66.08-3.17-1.38-4.07-3.17-1.95-13.56-8.08-18.07-10.79-4.09-2.31-38.58-22.48-51.61-29.84-.11.03,15.95,22.42,23.92,33.66,1.68,2.36,2.83,3.97,4.1,5.75.39.58.87.74,1.54.94,2.72.78,14.73,4.06,17.47,4.84,3.04.69,3.8,4.48,3.56,7.39-.2,2.08-1.01,3.97-1.44,5.02-.54,1.51-1.23,2.17-3.13,2.51-3.35.61-7.01-.69-10.28-1.44-.31-.02-.78-.09-1.05.11-.42.36.19,1.62.67,3.32,1.07,3.52,2.15,8.81.84,11.5-.35.76-1.04,2.09-1.82,1.85-2.52-3.94-44.79-76.04-57.66-97.88h0Z"/>
      <path class="cls-19" d="M1286.06,165.29c10.42,23.8,50.67,107.53,49.14,108.29-1.31-.43-5.84-2.19-9.38-5.49-.66-.57-2.39-2.4-2.81-2.04-1.01,3.86-.53,14.18-5.46,16.12-1.37.36-2.47-.23-3.86-.86-1.54-.83-4.59-2.17-5.74-3.1-.41-.38-.43-.74-.33-1.25.76-2.63,3.92-12.76,3.22-17.82-2.37-6.53-19.32-54.65-20.58-58.3.29,4.91-1.7,74.5-.02,77.46,4.96,3.08,11.52,7.06,16.71,10.27,3.36,2.17,3.81,1.77,3.28,4.24-.51,2.18-1.97,4.14-3.79,5.45-1.83,1.11-3.2,2.22-4.51.9-2.36-3.01-11.73-14.64-15.56-11.9-3.53,4.17-.9,12.45-.1,17.78,1.07,4.03-.29,4.9-4.45,5.88-3.83.54-6.41,1.01-5.15-3.88.37-4.23,3.47-20.16-.55-21.36-3.74,1.36-12.14,10.04-15.57,13.93-1.81,1.82-2.32,3-4.72,2.08-2.17-.84-6.56-4.63-5.08-7.07,5.93-5.48,12.31-10.61,19.33-14.63,1.38-.94,2.85-1.39,2.97-3.1.26-3.71.91-15.76,1.22-21.01.16-4.7,2.12-44.61,2.63-59.56-.08-.08-12.52,24.5-18.81,36.77-1.32,2.58-2.22,4.34-3.21,6.29-.34.62-.26,1.11-.12,1.8.57,2.77,3.2,14.95,3.78,17.73.79,3.02-2.22,5.44-4.91,6.57-1.94.79-3.99.93-5.12,1.04-1.59.21-2.49-.08-3.68-1.62-2.09-2.69-2.63-6.54-3.47-9.78-.13-.28-.28-.73-.58-.88-.51-.21-1.35.92-2.63,2.12-2.63,2.57-6.82,5.97-9.81,6.06-.83.04-2.34.04-2.48-.76,2.33-4.05,46.75-74.85,60.18-96.35h.02Z"/>
      <path class="cls-20" d="M1281.54,157.73c-15.95,20.51-70.35,95.81-71.74,94.84-.25-1.36-.86-6.18.35-10.86.19-.85.97-3.25.46-3.44-3.88.95-12.72,6.3-16.78,2.89-.97-1.03-.98-2.28-1.08-3.81,0-1.75-.29-5.07,0-6.52.14-.54.44-.73.94-.88,2.68-.59,13.08-2.64,17.2-5.66,4.61-5.2,38.82-43.04,41.43-45.9-4.18,2.6-66.29,34.04-68.1,36.93-.35,5.83-.72,13.49-1.05,19.58-.3,3.99.26,4.19-2.16,4.9-2.16.59-4.58.25-6.6-.73-1.85-1.07-3.48-1.76-2.94-3.54,1.51-3.51,7.27-17.29,3.04-19.35-5.35-1.12-11.37,5.14-15.67,8.39-3.03,2.86-4.45,2.08-7.29-1.11-2.3-3.11-3.95-5.15.95-6.38,3.89-1.69,19.37-6.56,18.51-10.67-2.97-2.64-14.62-5.88-19.67-7.04-2.46-.72-3.74-.61-4.08-3.16-.29-2.31.94-7.98,3.79-7.83,7.65,2.6,15.2,5.76,22.08,10.01,1.49.76,2.58,1.84,4.14,1.13,3.39-1.54,14.29-6.72,19.05-8.95,4.21-2.1,40.22-19.41,53.6-26.09.04-.11-27.51.68-41.28,1-2.9.07-4.87.12-7.06.18-.7,0-1.1.31-1.64.75-2.17,1.82-11.61,9.94-13.79,11.78-2.28,2.13-5.84.65-8.11-1.18-1.62-1.33-2.72-3.06-3.35-4-.95-1.29-1.12-2.23-.33-4,1.37-3.11,4.5-5.43,6.94-7.71.19-.25.51-.6.5-.93-.06-.55-1.45-.75-3.12-1.3-3.52-1.08-8.5-3.14-10-5.73-.43-.71-1.15-2.03-.52-2.54,4.67.11,88.08,5.4,113.38,6.95v.02Z"/>
      <path class="cls-16" d="M1281.52,150.3c-25.56-4.68-117.47-18.14-117.25-19.83,1.09-.85,5.08-3.62,9.8-4.7.84-.22,3.33-.64,3.27-1.18-2.63-3-11.46-8.37-10.31-13.55.47-1.34,1.57-1.92,2.88-2.72,1.55-.82,4.37-2.6,5.78-3.02.54-.13.86.05,1.22.43,1.76,2.1,8.39,10.38,12.97,12.64,6.74,1.69,56.11,14.55,59.84,15.55-4.23-2.5-60.81-43.08-64.2-43.34-5.33,2.39-12.3,5.6-17.86,8.11-3.68,1.58-3.6,2.17-5.35.34-1.52-1.64-2.33-3.95-2.4-6.19.1-2.14-.05-3.9,1.78-4.24,3.81-.28,18.7-1.54,18.56-6.24-1.48-5.26-9.81-7.71-14.68-10.03-3.93-1.37-3.9-2.98-2.38-6.98,1.7-3.48,2.74-5.88,6.1-2.1,3.3,2.67,14.77,14.15,18.01,11.49.97-3.86-1.54-15.68-2.83-20.7-.49-2.51-1.19-3.6.92-5.08,1.91-1.32,7.51-2.85,8.7-.25,1.22,7.98,1.91,16.14,1.32,24.21,0,1.67-.44,3.14.91,4.2,2.93,2.3,12.56,9.57,16.73,12.76,3.8,2.76,35.79,26.71,47.9,35.49.11-.02-13.31-24.08-19.96-36.15-1.4-2.54-2.36-4.26-3.42-6.18-.32-.62-.78-.83-1.42-1.11-2.62-1.08-14.18-5.71-16.81-6.79-2.94-1.03-3.27-4.88-2.7-7.74.43-2.05,1.46-3.83,2-4.82.71-1.44,1.46-2.02,3.4-2.14,3.39-.23,6.89,1.48,10.05,2.59.3.05.77.17,1.06.01.46-.31,0-1.63-.29-3.37-.67-3.62-1.14-8.99.47-11.52.43-.71,1.27-1.96,2.02-1.64,2.06,4.2,35.89,80.62,46.21,103.78h0Z"/>
    </g>
    <path class="cls-21" d="M1361.18,129.48c-7.46-.86-41.64-3.48-60.2,2.85-1.35.47-2.62.85-4.07.5-7.55-2.04-10.58-1.66-17.97.12-1.05.15-2.15-.13-3.21-.49-18.74-6.47-52.7-3.79-60.5-2.94-3.66.64-8.2,2.39-10.27,5.76-1.74,2.86-1.44,5.09,1.18,7.32,1.47,1.4,3.41,2.13,5.13,3.12,1.05.76.78,1.87.87,3.2.05,5.44.4,10.97,1.22,16.34.49,3.07.6,5.77,2.11,8.44,6.13,10.76,27.41,11.28,35.19,10.62,7.06-.62,15.64-2.62,19.97-8.43,4.34-6.17,7.55-20.41,9.14-26.38.39-1.63.13-2.91.49-4.69.28-1.53,1.06-3.11,2.35-4.02,2.26-1.53,4.96-1.33,7.54-1.23,4.98.34,6.31,4,6.27,8.42,1.33,6.91,4.3,17.5,7.49,24.7,1,2.06,1.84,3.29,3.23,4.74,2.12,2.65,8.78,5.36,12.96,6.08,2.95.61,6.33.88,9.25,1.01,7.21-.11,26.35-.51,31.96-11.57,1.02-2.2,1.15-3.86,1.54-6.34.2-1.43.43-2.94.6-4.4.5-3.85.72-7.84.79-11.74.14-1.46-.32-3.96.85-4.75.73-.5,1.32-.69,2.3-1.2,1.32-.67,2.72-1.68,3.72-2.77,2.77-2.68,1.06-6.35-1.41-8.54-2.19-2.1-5.72-3.19-8.51-3.73h-.01ZM1274.69,147.82c-.38,2.95-.89,5.26-1.66,8.72-1.31,5.57-2.94,11-5.75,15.66-3.75,6-13.29,6.77-19.8,6.85-9.8.13-23.07-2.83-28.35-13.44-.96-2.07-1.19-4.23-1.27-6.48-.21-4.96-.5-12.87,1.96-17.27.8-1.32,2.1-2.26,3.46-2.94,1.16-.59,2.33-1,3.58-1.34,10.68-2.75,22.53-2.58,33.39-.94,1.32.2,2.63.43,3.94.68,1.8.35,3.58.6,5.24,1.44,1.94.98,3.61,2.59,4.56,4.55.69,1.36.87,3.05.71,4.49h0ZM1358.2,162.73c-2.58,11.56-17.69,16.43-28.11,16.27-6.81-.01-15.62-.46-20.23-5.81-4.03-5.81-5.77-13.38-7.28-20.46-.27-1.36-.54-2.8-.74-4.12-.27-1.68-.23-3.47.48-5.05,1.19-2.71,3.79-4.82,6.63-5.57,12.91-2.92,27.4-3.7,40.25-.54,2.9.79,6.16,1.99,7.66,4.81,2.39,4.74,2.06,15.54,1.36,20.46v.02Z"/>
  </g>
  <g id="Layer_4" data-name="Layer 4">
    <g>
      <path class="cls-6" d="M290.29,51.22c-1.08-2.06-4.2-2.96-8.52-3.08-93.39,4.21-201.98,47.77-257.18,124.85-18.67,25.42-21.39,72.6,11.39,87,13.61,5.59,30.78,3.78,46.19,3.21,40.63-1.66,78.4-4.43,102.57-41.7,2.5-3.97,9.45-13.71,7.47-17.81-.98-1.67-3.99-1.69-8.25-1.42-28.17,2.36-87.8,19.19-97.45,1.25-3.82-8.18,3.65-20.8,9.4-28.6,27.26-35.86,70.52-53.8,112.07-68.5,16.19-6.02,34.04-7.34,49.1-16.09,10.78-6.24,20.12-15.4,27.71-25.24,2.8-3.51,7.48-10.44,5.53-13.82l-.03-.05Z"/>
      <path class="cls-8" d="M279.94,44.08c-1.08-2.06-4.2-2.96-8.52-3.08-93.39,4.21-201.98,47.77-257.18,124.85-18.67,25.42-21.39,72.6,11.39,87,13.61,5.59,30.78,3.78,46.19,3.21,40.63-1.66,78.4-4.43,102.57-41.7,2.5-3.97,9.45-13.71,7.47-17.81-.98-1.67-3.99-1.69-8.25-1.42-28.17,2.36-87.8,19.19-97.45,1.25-3.82-8.18,3.65-20.8,9.4-28.6,27.26-35.86,70.52-53.8,112.07-68.5,16.19-6.02,34.04-7.34,49.1-16.09,10.78-6.24,20.12-15.4,27.71-25.24,2.8-3.51,7.48-10.44,5.53-13.82l-.03-.05Z"/>
    </g>
    <g>
      <path class="cls-9" d="M786.05,54.94c6.73-1.76,24.97-8.89,19.16,3.41-19.33,33.11-42.75,65.05-61.69,98.45-25.4,45.29-59.14,83.47,7.08,82.09,8.9-.08,17.01-.93,26.2-1.53,11.19-.78,23.96-1.65,34.6-2.75,10.77-.85,31.36-4.65,26.5,5.42-1.43,3.56-5.28,8.67-9.58,13.63-5.44,6.21-10.83,12.17-18.3,15.82-3.81,1.91-8.04,3.18-12.47,3.94-33.96,4.49-69.19,2.9-103.41,5.8-7.81.56-15.15,1.11-23.09,1.28-5.72.08-12.47.13-17.62-1-12.9-2.73-8.92-13.93-5.72-23.76,12.11-35.88,34.86-68.37,51.24-102.31,9.36-18.45,19.29-36.95,30.27-54.51,14.4-22.35,29.76-36.54,56.7-43.92l.12-.04Z"/>
      <path class="cls-7" d="M776.94,48.65c6.73-1.76,24.97-8.89,19.16,3.41-19.33,33.11-42.75,65.05-61.69,98.45-25.4,45.29-59.14,83.47,7.08,82.09,8.9-.08,17.01-.93,26.2-1.53,11.19-.78,23.96-1.65,34.6-2.75,10.77-.85,31.36-4.65,26.5,5.42-1.43,3.56-5.28,8.67-9.58,13.63-5.44,6.21-10.83,12.17-18.3,15.82-3.81,1.91-8.04,3.18-12.47,3.94-33.96,4.49-69.19,2.9-103.41,5.8-7.81.56-15.15,1.11-23.09,1.28-5.72.08-12.47.13-17.62-1-12.9-2.73-8.92-13.93-5.72-23.76,12.11-35.88,34.86-68.37,51.24-102.31,9.36-18.45,19.29-36.95,30.27-54.51,14.4-22.35,29.76-36.54,56.7-43.92l.12-.04Z"/>
    </g>
    <g class="cls-23">
      <g>
        <path class="cls-14" d="M397.62,67.23c.38.08,1.29.17,2.72.25l-17.08,35.86c-2.04-.25-3.89-.41-5.57-.49-1.68-.08-3.04-.12-4.09-.12-13.91,0-25.46,4.59-34.66,13.76-5.12,5.16-10.27,13.1-15.45,23.83l-30.79,63.99h-35.1l64.74-133.87h32.92l-11.15,23.33c9.6-8.92,17.14-15.02,22.63-18.3,9.14-5.48,18.87-8.23,29.2-8.23h1.69Z"/>
        <path class="cls-10" d="M392.52,210.19l17.8-139.77h38.37l-17.76,98.75,73.8-98.75h36.67l-107.24,131.66c-20.84,25.38-35.29,41.12-43.32,47.22-8.03,6.1-19.79,9.15-35.26,9.15-3.11,0-5.6-.02-7.48-.06-1.87-.04-4.62-.18-8.24-.43l13.37-28,4.35.25c3.31.16,6.61.04,9.9-.37,3.29-.41,6.36-1.35,9.2-2.82,2.74-1.39,6.04-4.3,9.9-8.72,3.86-4.42,5.84-7.12,5.94-8.11Z"/>
        <path class="cls-11" d="M668.79,87.37c4.7,14.17,2.67,30.91-6.1,50.23-8.95,19.65-22.24,36.46-39.87,50.42-17.67,13.96-37.98,20.94-60.9,20.94s-36.75-6.98-41.46-20.94c-4.7-13.96-2.46-30.77,6.69-50.42,8.98-19.32,22.35-36.07,40.09-50.23,17.7-14.16,37.88-21.25,60.55-21.25s36.33,7.08,41.01,21.25ZM613.99,95.73c-10.11,0-19.54,3.62-28.32,10.87-8.78,7.25-16.29,17.58-22.51,31.01-6.23,13.43-8.3,23.79-6.19,31.07,2.11,7.29,8.25,10.93,18.42,10.93s19.67-3.64,28.47-10.93c8.8-7.29,16.28-17.64,22.44-31.07,6.16-13.43,8.17-23.76,6.03-31.01-2.13-7.25-8.24-10.87-18.35-10.87Z"/>
      </g>
    </g>
    <g class="cls-24">
      <g>
        <path class="cls-12" d="M946.58,91.41c5.26,14.17,3.89,30.91-4.12,50.23-8.17,19.65-20.8,36.46-37.89,50.42-17.12,13.96-37.15,20.94-60.07,20.94s-37.02-6.98-42.29-20.94c-5.25-13.96-3.68-30.77,4.71-50.42,8.22-19.32,20.92-36.07,38.1-50.23,17.15-14.16,37.04-21.25,59.71-21.25s36.61,7.08,41.85,21.25ZM892.11,99.76c-10.11,0-19.4,3.62-27.89,10.87-8.5,7.25-15.59,17.58-21.29,31.01-5.7,13.43-7.36,23.79-4.97,31.07,2.39,7.29,8.68,10.93,18.85,10.93s19.52-3.64,28.04-10.93c8.51-7.29,15.58-17.64,21.22-31.07,5.63-13.43,7.23-23.76,4.81-31.01-2.41-7.25-8.67-10.87-18.78-10.87Z"/>
        <path class="cls-13" d="M981.64,263.11c-17.11,0-29.68-3.36-37.68-10.07-8-6.71-9.81-16.75-5.45-30.09h37.96c-.66,4.09-.27,7.04,1.16,8.84,2.46,3.19,8.15,4.79,17.06,4.79,12.58,0,22.73-4.22,30.44-12.65,4.98-5.4,10.08-14.49,15.28-27.27l3.52-8.6c-5.69,5.73-11.06,10.03-16.1,12.9-9.12,5.32-19.23,7.98-30.32,7.98-17.12,0-28.3-6.04-33.51-18.12-5.2-12.08-3.5-28.43,5.08-49.07,8.17-19.9,19.95-36.62,35.33-50.17,15.36-13.55,31.98-20.33,49.89-20.33,6.61,0,11.94,1.02,15.97,3.07,6.98,3.52,11.16,9.99,12.56,19.41l7.75-19.28h33.53l-51.27,126.99c-6.94,17.28-15.11,30.29-24.5,39.06-16.12,15.06-38.35,22.6-66.68,22.6ZM1004.81,141.89c-3.18,7.78-4.69,14.7-4.52,20.76.01,11.3,6.12,16.95,18.33,16.95,8.13,0,16.27-3.09,24.4-9.27,8.12-6.18,14.93-16.03,20.41-29.54,5.16-12.69,6.44-22.35,3.85-28.99-2.58-6.63-8.32-9.95-17.22-9.95-12.13,0-22.86,5.77-32.2,17.32-4.95,6.14-9.3,13.72-13.05,22.72Z"/>
      </g>
    </g>
    <g class="cls-23">
      <g>
        <path class="cls-3" d="M392.67,60.27c.38.08,1.29.17,2.72.25l-17.08,35.86c-2.04-.25-3.89-.41-5.57-.49-1.68-.08-3.04-.12-4.09-.12-13.91,0-25.46,4.59-34.66,13.76-5.12,5.16-10.27,13.1-15.45,23.83l-30.79,63.99h-35.1l64.74-133.87h32.92l-11.15,23.33c9.6-8.92,17.14-15.02,22.63-18.3,9.14-5.48,18.87-8.23,29.2-8.23h1.69Z"/>
        <path class="cls-2" d="M387.56,203.23l17.8-139.77h38.37l-17.76,98.75,73.8-98.75h36.67l-107.24,131.66c-20.84,25.38-35.29,41.12-43.32,47.22-8.03,6.1-19.79,9.15-35.26,9.15-3.11,0-5.6-.02-7.48-.06-1.87-.04-4.62-.18-8.24-.43l13.37-28,4.35.25c3.31.16,6.61.04,9.9-.37,3.29-.41,6.36-1.35,9.2-2.82,2.74-1.39,6.04-4.3,9.9-8.72,3.86-4.42,5.84-7.12,5.94-8.11Z"/>
        <path class="cls-5" d="M663.83,80.42c4.7,14.17,2.67,30.91-6.1,50.23-8.95,19.65-22.24,36.46-39.87,50.42-17.67,13.96-37.98,20.94-60.9,20.94s-36.75-6.98-41.46-20.94c-4.7-13.96-2.46-30.77,6.69-50.42,8.98-19.32,22.35-36.07,40.09-50.23,17.7-14.16,37.88-21.25,60.55-21.25s36.33,7.08,41.01,21.25ZM609.03,88.77c-10.11,0-19.54,3.62-28.32,10.87-8.78,7.25-16.29,17.58-22.51,31.01-6.23,13.43-8.3,23.79-6.19,31.07,2.11,7.29,8.25,10.93,18.42,10.93s19.67-3.64,28.47-10.93c8.8-7.29,16.28-17.64,22.44-31.07,6.16-13.43,8.17-23.76,6.03-31.01-2.13-7.25-8.24-10.87-18.35-10.87Z"/>
      </g>
    </g>
    <g class="cls-24">
      <g>
        <path class="cls-4" d="M942.62,84.45c5.26,14.17,3.89,30.91-4.12,50.23-8.17,19.65-20.8,36.46-37.89,50.42-17.12,13.96-37.15,20.94-60.07,20.94s-37.02-6.98-42.29-20.94c-5.25-13.96-3.68-30.77,4.71-50.42,8.22-19.32,20.92-36.07,38.1-50.23,17.15-14.16,37.04-21.25,59.71-21.25s36.61,7.08,41.85,21.25ZM888.15,92.8c-10.11,0-19.4,3.62-27.89,10.87-8.5,7.25-15.59,17.58-21.29,31.01-5.7,13.43-7.36,23.79-4.97,31.07,2.39,7.29,8.68,10.93,18.85,10.93s19.52-3.64,28.04-10.93c8.51-7.29,15.58-17.64,21.22-31.07,5.63-13.43,7.23-23.76,4.81-31.01-2.41-7.25-8.67-10.87-18.78-10.87Z"/>
        <path class="cls-1" d="M977.68,256.15c-17.11,0-29.68-3.36-37.68-10.07-8-6.71-9.81-16.75-5.45-30.09h37.96c-.66,4.09-.27,7.04,1.16,8.84,2.46,3.19,8.15,4.79,17.06,4.79,12.58,0,22.73-4.22,30.44-12.65,4.98-5.4,10.08-14.49,15.28-27.27l3.52-8.6c-5.69,5.73-11.06,10.03-16.1,12.9-9.12,5.32-19.23,7.98-30.32,7.98-17.12,0-28.3-6.04-33.51-18.12-5.2-12.08-3.5-28.43,5.08-49.07,8.17-19.9,19.95-36.62,35.33-50.17,15.36-13.55,31.98-20.33,49.89-20.33,6.61,0,11.94,1.02,15.97,3.07,6.98,3.52,11.16,9.99,12.56,19.41l7.75-19.28h33.53l-51.27,126.99c-6.94,17.28-15.11,30.29-24.5,39.06-16.12,15.06-38.35,22.6-66.68,22.6ZM1000.85,134.93c-3.18,7.78-4.69,14.7-4.52,20.76.01,11.3,6.12,16.95,18.33,16.95,8.13,0,16.27-3.09,24.4-9.27,8.12-6.18,14.93-16.03,20.41-29.54,5.16-12.69,6.44-22.35,3.85-28.99-2.58-6.63-8.32-9.95-17.22-9.95-12.13,0-22.86,5.77-32.2,17.32-4.95,6.14-9.3,13.72-13.05,22.72Z"/>
      </g>
    </g>
  </g>
</svg>