<?xml version="1.0" encoding="UTF-8"?>
<svg xmlns="http://www.w3.org/2000/svg" xmlns:xlink="http://www.w3.org/1999/xlink" viewBox="0 0 120.25 117.5">
  <defs>
    <style>
      .cls-1 {
        fill: none;
      }

      .cls-1, .cls-2, .cls-3, .cls-4, .cls-5, .cls-6, .cls-7, .cls-8, .cls-9, .cls-10, .cls-11, .cls-12, .cls-13, .cls-14, .cls-15, .cls-16, .cls-17, .cls-18, .cls-19 {
        stroke-width: 0px;
      }

      .cls-2, .cls-20, .cls-11, .cls-12 {
        mix-blend-mode: multiply;
      }

      .cls-2, .cls-19 {
        fill: #c6dd7f;
      }

      .cls-3 {
        fill: url(#radial-gradient);
      }

      .cls-4 {
        filter: url(#drop-shadow-2);
      }

      .cls-4, .cls-5 {
        fill: url(#Alyssa);
      }

      .cls-5 {
        filter: url(#drop-shadow-1);
      }

      .cls-21 {
        fill: gray;
        stroke: gray;
      }

      .cls-21, .cls-22 {
        stroke-miterlimit: 10;
      }

      .cls-23 {
        filter: url(#drop-shadow-3);
      }

      .cls-6 {
        fill: #2e3192;
      }

      .cls-7 {
        fill: #bdccd4;
        filter: url(#drop-shadow-6);
      }

      .cls-8, .cls-11 {
        fill: #a6d0e4;
      }

      .cls-9 {
        fill: #29abe2;
        opacity: .15;
      }

      .cls-10 {
        fill: #9090c4;
      }

      .cls-12, .cls-13 {
        fill: #e9ddb7;
      }

      .cls-24 {
        isolation: isolate;
      }

      .cls-14 {
        filter: url(#drop-shadow-5);
      }

      .cls-14, .cls-16 {
        fill: #fff;
      }

      .cls-22 {
        fill: #fbb03b;
        filter: url(#drop-shadow-4);
        stroke: #fbb03b;
      }

      .cls-15 {
        fill: #ccc;
      }

      .cls-17 {
        fill: url(#radial-gradient-2);
        filter: url(#drop-shadow-7);
      }

      .cls-18 {
        fill: #e6e6e6;
      }
    </style>
    <pattern id="Alyssa" x="0" y="0" width="144.13" height="138.36" patternTransform="translate(-77.75 -839)" patternUnits="userSpaceOnUse" viewBox="0 0 144.13 138.36">
      <g>
        <rect class="cls-1" x="0" width="144.13" height="138.36"/>
        <path class="cls-2" d="M211.07,158.52c-11.76-1.38-19.37.35-22.65,3.11-3.02,2.54-4.96,5.41-2.25,11.93,2.94,7.09,1.53,14.73-5.54,15.91-6.22,1.04-10.89-4.84-11.24-12.28-.24-5.18-1.9-8.3-5.53-7.61-3.63.69-4.63,5.9-3.63,11.76,1.38,8.13,5.54,11.76,6.23,20.23.49,6.05-2.94,13.66-12.45,15.04-9.3,1.35-15.91-4.32-16.6-10.55-.73-6.59,3.63-10.89,3.11-17.64-.52-6.75-4.01-10.17-5.88-17.29-2.77-10.55,1.21-19.02,7.78-22.65,14.75-8.15,22.83,3.64,35.97,1.56,10.9-1.73,23.35-18.16,33.03-19.54,8.23-1.17,13.83,4.67,15.04,14.01,1.21,9.34-4.74,15.26-15.39,14.01ZM168.88,159.04c0-2.29-1.86-4.15-4.15-4.15s-4.15,1.86-4.15,4.15,1.86,4.15,4.15,4.15,4.15-1.86,4.15-4.15ZM218.34,143.65c0-.96-.78-1.73-1.73-1.73s-1.73.77-1.73,1.73.77,1.73,1.73,1.73,1.73-.77,1.73-1.73Z"/>
        <g>
          <path class="cls-12" d="M48.83,139.33c0,7.17,4.59,13.81-1,16.33-8.5,3.83-28-14.33-28-36.17,0-12,8.67-19,17.83-19,12.33,0,18,8.17,18,17.5s-6.83,13.14-6.83,21.33ZM43.42,133.96c0-1.15-.93-2.08-2.07-2.08s-2.08.93-2.08,2.08.93,2.08,2.08,2.08,2.07-.93,2.07-2.08Z"/>
          <path class="cls-11" d="M123.53,162.83c-7.87,2.74-19.44-15.3-17.67-27.02,1.24-8.23,7.12-13.19,13.09-14.22,7.53-1.3,12.9,2.6,13.3,7.24.55,6.31-3.63,7.52-4.22,14.96-.56,7.13,3.69,16.19-4.49,19.03ZM119.74,135.32c0-1.43-1.16-2.59-2.59-2.59s-2.59,1.16-2.59,2.59,1.16,2.59,2.59,2.59,2.59-1.16,2.59-2.59Z"/>
          <path class="cls-12" d="M19.39,140.36c0,1.43-1.16,2.59-2.59,2.59s-2.59-1.16-2.59-2.59,1.16-2.59,2.59-2.59,2.59,1.16,2.59,2.59Z"/>
          <path class="cls-11" d="M84.61,132.64c.74,8.1,12.67,7.02,17.9,14.21,10.52,14.47-1.22,46.37-21.63,46.37-11.74,0-24.22-9.72-24.22-29.22,0-15.83,10.17-21.5,8.25-42.17-1.01-10.83-12.5-20.34-12.5-34.75,0-5.92,3.59-13.45,11.55-13.45,7.05,0,10.82,5.95,10.82,12.9s-5.38,15.74,1.37,19.05c5.24,2.57,13.21-4.77,19.5-6.75,5.19-1.64,12.39.22,14.75,8.5,2.53,8.88-3.25,14.75-11.59,16.69-6.32,1.48-14.8,2.17-14.21,8.61ZM68.62,102.08c0-1.82-1.47-3.29-3.29-3.29s-3.29,1.47-3.29,3.29,1.47,3.29,3.29,3.29,3.29-1.47,3.29-3.29ZM94.61,111.78c1.29,0,2.33-1.04,2.33-2.33s-1.04-2.33-2.33-2.33-2.33,1.04-2.33,2.33,1.04,2.33,2.33,2.33ZM74.62,171.45c0-1.82-1.47-3.29-3.29-3.29s-3.29,1.47-3.29,3.29,1.47,3.29,3.29,3.29,3.29-1.47,3.29-3.29Z"/>
          <path class="cls-2" d="M66.94,158.52c-11.76-1.38-19.37.35-22.65,3.11-3.02,2.54-4.95,5.41-2.25,11.93,2.94,7.09,1.53,14.73-5.54,15.91-6.22,1.04-10.89-4.84-11.24-12.28-.24-5.18-1.9-8.3-5.53-7.61-3.63.69-4.63,5.9-3.63,11.76,1.38,8.13,5.54,11.76,6.23,20.23.49,6.05-2.94,13.66-12.45,15.04-9.3,1.35-15.91-4.32-16.6-10.55-.73-6.59,3.63-10.89,3.11-17.64-.52-6.75-4.01-10.17-5.88-17.29-2.77-10.55,1.21-19.02,7.78-22.65,14.75-8.15,22.83,3.64,35.97,1.56,10.9-1.73,23.35-18.16,33.03-19.54,8.23-1.17,13.83,4.67,15.04,14.01,1.21,9.34-4.74,15.26-15.39,14.01ZM24.75,159.04c0-2.29-1.86-4.15-4.15-4.15s-4.15,1.86-4.15,4.15,1.86,4.15,4.15,4.15,4.15-1.86,4.15-4.15ZM74.21,143.65c0-.96-.78-1.73-1.73-1.73s-1.73.77-1.73,1.73.77,1.73,1.73,1.73,1.73-.77,1.73-1.73Z"/>
        </g>
        <g>
          <path class="cls-11" d="M190.32,111.99c0,6.23-4.15,10.72-8.65,11.59-4.5.87-8.32-1.28-12.97,1.21-4.84,2.59-7.09,11.07-16.78,11.07-7.96,0-15.22-7.96-15.22-18.85,0-20.23,13.14-29.23,25.59-29.23,16.6,0,28.02,12.62,28.02,24.21ZM170.61,97.63c0-2.1-1.7-3.8-3.8-3.8s-3.8,1.7-3.8,3.8,1.7,3.8,3.8,3.8,3.8-1.7,3.8-3.8Z"/>
          <path class="cls-2" d="M211.07,20.16c-11.76-1.38-19.37.35-22.65,3.11-3.02,2.54-4.96,5.41-2.25,11.93,2.94,7.09,1.53,14.73-5.54,15.91-6.22,1.04-10.89-4.84-11.24-12.28-.24-5.18-1.9-8.3-5.53-7.61-3.63.69-4.63,5.9-3.63,11.76,1.38,8.13,5.54,11.76,6.23,20.23.49,6.05-2.94,13.66-12.45,15.04-9.3,1.35-15.91-4.32-16.6-10.55-.73-6.59,3.63-10.89,3.11-17.64-.52-6.75-4.01-10.17-5.88-17.29-2.77-10.55,1.21-19.02,7.78-22.65,14.75-8.15,22.83,3.64,35.97,1.56,10.9-1.73,23.35-18.16,33.03-19.54,8.23-1.17,13.83,4.67,15.04,14.01,1.21,9.34-4.74,15.26-15.39,14.01ZM168.88,20.68c0-2.29-1.86-4.15-4.15-4.15s-4.15,1.86-4.15,4.15,1.86,4.15,4.15,4.15,4.15-1.86,4.15-4.15ZM218.34,5.29c0-.96-.78-1.73-1.73-1.73s-1.73.77-1.73,1.73.77,1.73,1.73,1.73,1.73-.77,1.73-1.73Z"/>
        </g>
        <g>
          <path class="cls-11" d="M31.83,83.64c-13.96,1.99-21.17-13.33-17.67-20.33,3.67-7.33,12.12-4.17,19.5-4.17,9.67,0,16.37-7.57,20.42-2.25,4.25,5.58-5.01,24.29-22.25,26.75ZM32.36,66.16c0-1.24-1.01-2.25-2.25-2.25s-2.25,1.01-2.25,2.25,1.01,2.25,2.25,2.25,2.25-1.01,2.25-2.25Z"/>
          <path class="cls-12" d="M48.83.97c0,7.17,4.59,13.81-1,16.33-8.5,3.83-28-14.33-28-36.17,0-12,8.67-19,17.83-19,12.33,0,18,8.17,18,17.5s-6.83,13.14-6.83,21.33ZM43.42-4.4c0-1.15-.93-2.08-2.07-2.08s-2.08.93-2.08,2.08.93,2.08,2.08,2.08,2.07-.93,2.07-2.08Z"/>
          <path class="cls-11" d="M46.19,111.99c0,6.23-4.15,10.72-8.65,11.59-4.5.87-8.32-1.28-12.97,1.21-4.84,2.59-7.09,11.07-16.77,11.07-7.96,0-15.22-7.96-15.22-18.85,0-20.23,13.14-29.23,25.59-29.23,16.6,0,28.02,12.62,28.02,24.21ZM26.48,97.63c0-2.1-1.7-3.8-3.8-3.8s-3.8,1.7-3.8,3.8,1.7,3.8,3.8,3.8,3.8-1.7,3.8-3.8Z"/>
          <path class="cls-2" d="M45.5,88.3c0,1.34-1.08,2.42-2.42,2.42s-2.42-1.08-2.42-2.42,1.08-2.42,2.42-2.42,2.42,1.08,2.42,2.42Z"/>
          <path class="cls-11" d="M129.2,69.79c-3.19,4.68,1.04,10.72-1.38,15.22-2.42,4.5-6.74,5.02-9.86,2.6-3.63-2.83-3.41-6.64-8.3-8.82-5.53-2.46-17.98,2.25-19.71-7.26-.87-4.81,2.37-8.57,7.26-9.68,6.05-1.38,9.35-.18,15.39-3.11,6.05-2.94,11.24-8.99,22.14-12.11,10.41-2.97,16.07,1.56,16.6,5.88,1.04,8.47-17.13,9.95-22.14,17.29ZM126.95,62.35c0-1.24-1.01-2.25-2.25-2.25s-2.25,1.01-2.25,2.25,1.01,2.25,2.25,2.25,2.25-1.01,2.25-2.25Z"/>
          <path class="cls-12" d="M156.17,108.97c0,17.17-14.5,25.5-27,22.83-10.26-2.19-12.83-17.33-16.67-26.17-3.71-8.56-8.83-22.5-20.17-22.5s-12.83,14.5-23.67,14.5-24.5-15.67-24.5-39.67c0-14.67,9.8-31.46,20.83-30.67,11.67.83,4.5,19.67,15.33,19.67,9.5,0,7.86-16.26,9.17-23.33,1.67-9,6.83-14.17,18.5-13.17,14.44,1.24,22.33,13.5,18.87,23.34-4.03,11.45-23.87,17.32-21.54,30.49,1.35,7.59,13,12,26,16.17,14.53,4.66,24.83,11.33,24.83,28.5ZM111.21,33.13c0,1.82,1.47,3.29,3.29,3.29s3.29-1.47,3.29-3.29-1.47-3.29-3.29-3.29-3.29,1.47-3.29,3.29ZM64.52,58.03c0-.96-.77-1.73-1.73-1.73s-1.73.78-1.73,1.73.78,1.73,1.73,1.73,1.73-.77,1.73-1.73ZM81.99,68.75c0-2.1-1.7-3.8-3.8-3.8s-3.8,1.7-3.8,3.8,1.71,3.8,3.8,3.8,3.8-1.7,3.8-3.8ZM101.88,53.19c0-.86-.7-1.56-1.56-1.56s-1.56.7-1.56,1.56.7,1.56,1.56,1.56,1.56-.7,1.56-1.56ZM131.52,107.88c0-1.75-1.42-3.17-3.17-3.17s-3.17,1.42-3.17,3.17,1.42,3.17,3.17,3.17,3.17-1.42,3.17-3.17Z"/>
          <path class="cls-11" d="M123.53,24.47c-7.87,2.74-19.44-15.3-17.67-27.02,1.24-8.23,7.12-13.19,13.09-14.22,7.53-1.3,12.9,2.6,13.3,7.24.55,6.31-3.63,7.52-4.22,14.96-.56,7.13,3.69,16.19-4.49,19.03ZM119.74-3.04c0-1.43-1.16-2.59-2.59-2.59s-2.59,1.16-2.59,2.59,1.16,2.59,2.59,2.59,2.59-1.16,2.59-2.59Z"/>
          <path class="cls-12" d="M19.39,2c0,1.43-1.16,2.59-2.59,2.59s-2.59-1.16-2.59-2.59,1.16-2.59,2.59-2.59,2.59,1.16,2.59,2.59Z"/>
          <path class="cls-12" d="M153.38,88.74c0-8.41-5.08-15.23-11.34-15.23s-11.34,6.82-11.34,15.23,5.08,12.44,11.34,12.44,11.34-4.03,11.34-12.44Z"/>
          <path class="cls-11" d="M84.61-5.72c.74,8.1,12.67,7.02,17.9,14.21,10.52,14.47-1.22,46.37-21.63,46.37-11.74,0-24.22-9.72-24.22-29.22,0-15.83,10.17-21.5,8.25-42.17-1.01-10.83-12.5-20.34-12.5-34.75,0-5.92,3.59-13.45,11.55-13.45,7.05,0,10.82,5.95,10.82,12.9s-5.38,15.74,1.37,19.05c5.24,2.57,13.21-4.77,19.5-6.75,5.19-1.64,12.39.22,14.75,8.5,2.53,8.88-3.25,14.75-11.59,16.69-6.32,1.48-14.8,2.17-14.21,8.61ZM68.62-36.28c0-1.82-1.47-3.29-3.29-3.29s-3.29,1.47-3.29,3.29,1.47,3.29,3.29,3.29,3.29-1.47,3.29-3.29ZM94.61-26.59c1.29,0,2.33-1.04,2.33-2.33s-1.04-2.33-2.33-2.33-2.33,1.04-2.33,2.33,1.04,2.33,2.33,2.33ZM74.62,33.09c0-1.82-1.47-3.29-3.29-3.29s-3.29,1.47-3.29,3.29,1.47,3.29,3.29,3.29,3.29-1.47,3.29-3.29Z"/>
          <path class="cls-2" d="M66.94,20.16c-11.76-1.38-19.37.35-22.65,3.11-3.02,2.54-4.95,5.41-2.25,11.93,2.94,7.09,1.53,14.73-5.54,15.91-6.22,1.04-10.89-4.84-11.24-12.28-.24-5.18-1.9-8.3-5.53-7.61-3.63.69-4.63,5.9-3.63,11.76,1.38,8.13,5.54,11.76,6.23,20.23.49,6.05-2.94,13.66-12.45,15.04-9.3,1.35-15.91-4.32-16.6-10.55-.73-6.59,3.63-10.89,3.11-17.64-.52-6.75-4.01-10.17-5.88-17.29-2.77-10.55,1.21-19.02,7.78-22.65,14.75-8.15,22.83,3.64,35.97,1.56,10.9-1.73,23.35-18.16,33.03-19.54,8.23-1.17,13.83,4.67,15.04,14.01,1.21,9.34-4.74,15.26-15.39,14.01ZM24.75,20.68c0-2.29-1.86-4.15-4.15-4.15s-4.15,1.86-4.15,4.15,1.86,4.15,4.15,4.15,4.15-1.86,4.15-4.15ZM74.21,5.29c0-.96-.78-1.73-1.73-1.73s-1.73.77-1.73,1.73.77,1.73,1.73,1.73,1.73-.77,1.73-1.73Z"/>
          <path class="cls-2" d="M130.24,42.47c0,.76-.62,1.38-1.38,1.38s-1.38-.62-1.38-1.38.62-1.38,1.38-1.38,1.38.62,1.38,1.38Z"/>
          <path class="cls-13" d="M135.77,4.08c0,1.24-1.01,2.25-2.25,2.25s-2.25-1.01-2.25-2.25,1.01-2.25,2.25-2.25,2.25,1.01,2.25,2.25Z"/>
          <path class="cls-8" d="M52.24,27.25c0,.67-.54,1.21-1.21,1.21s-1.21-.54-1.21-1.21.54-1.21,1.21-1.21,1.21.54,1.21,1.21Z"/>
          <path class="cls-8" d="M48.61,95.73c0,.76-.62,1.38-1.38,1.38s-1.38-.62-1.38-1.38.62-1.38,1.38-1.38,1.38.62,1.38,1.38Z"/>
          <path class="cls-12" d="M133.18,73.77c0,.67-.54,1.21-1.21,1.21s-1.21-.54-1.21-1.21.54-1.21,1.21-1.21,1.21.54,1.21,1.21Z"/>
          <path class="cls-19" d="M95.89,91.69c0,1.88-1.53,3.41-3.41,3.41s-3.41-1.53-3.41-3.41,1.53-3.41,3.41-3.41,3.41,1.53,3.41,3.41Z"/>
          <path class="cls-12" d="M100.87,131.55c0,1.16-.94,2.1-2.1,2.1s-2.1-.94-2.1-2.1.94-2.1,2.1-2.1,2.1.94,2.1,2.1Z"/>
          <path class="cls-12" d="M62.07,125.25c0,.87-.7,1.57-1.57,1.57s-1.57-.7-1.57-1.57.71-1.57,1.57-1.57,1.57.71,1.57,1.57Z"/>
          <circle class="cls-19" cx="133.12" cy="11.21" r="2.62"/>
          <circle class="cls-11" cx="123.15" cy="46.07" r="2.36"/>
          <path class="cls-13" d="M27.72,52.63c0,1.45-1.17,2.62-2.62,2.62s-2.62-1.17-2.62-2.62,1.17-2.62,2.62-2.62,2.62,1.17,2.62,2.62Z"/>
          <path class="cls-11" d="M22.74,45.55c0,.72-.59,1.31-1.31,1.31s-1.31-.59-1.31-1.31.59-1.31,1.31-1.31,1.31.59,1.31,1.31Z"/>
          <path class="cls-12" d="M86.97,97.46c0,.87-.71,1.57-1.57,1.57s-1.57-.7-1.57-1.57.7-1.57,1.57-1.57,1.57.71,1.57,1.57Z"/>
        </g>
        <g>
          <path class="cls-11" d="M-14.93,69.79c-3.19,4.68,1.04,10.72-1.38,15.22-2.42,4.5-6.74,5.02-9.86,2.6-3.63-2.83-3.41-6.64-8.3-8.82-5.53-2.46-17.98,2.25-19.71-7.26-.88-4.81,2.38-8.57,7.26-9.68,6.05-1.38,9.35-.18,15.39-3.11,6.05-2.94,11.24-8.99,22.14-12.11,10.41-2.97,16.07,1.56,16.6,5.88,1.04,8.47-17.13,9.95-22.14,17.29ZM-17.18,62.35c0-1.24-1.01-2.25-2.25-2.25s-2.25,1.01-2.25,2.25,1.01,2.25,2.25,2.25,2.25-1.01,2.25-2.25Z"/>
          <path class="cls-12" d="M12.04,108.97c0,17.17-14.5,25.5-27,22.83-10.26-2.19-12.83-17.33-16.67-26.17-3.71-8.56-8.83-22.5-20.17-22.5s-12.83,14.5-23.67,14.5-24.5-15.67-24.5-39.67c0-14.67,9.8-31.46,20.83-30.67,11.67.83,4.5,19.67,15.33,19.67,9.5,0,7.86-16.26,9.17-23.33,1.67-9,6.83-14.17,18.5-13.17,14.44,1.24,22.33,13.5,18.87,23.34-4.03,11.45-23.87,17.32-21.54,30.49,1.35,7.59,13,12,26,16.17,14.53,4.66,24.83,11.33,24.83,28.5ZM-32.91,33.13c0,1.82,1.47,3.29,3.29,3.29s3.29-1.47,3.29-3.29-1.47-3.29-3.29-3.29-3.29,1.47-3.29,3.29ZM-79.61,58.03c0-.96-.77-1.73-1.73-1.73s-1.73.78-1.73,1.73.78,1.73,1.73,1.73,1.73-.77,1.73-1.73ZM-62.14,68.75c0-2.1-1.7-3.8-3.8-3.8s-3.8,1.7-3.8,3.8,1.71,3.8,3.8,3.8,3.8-1.7,3.8-3.8ZM-42.25,53.19c0-.86-.7-1.56-1.56-1.56s-1.56.7-1.56,1.56.7,1.56,1.56,1.56,1.56-.7,1.56-1.56ZM-12.61,107.88c0-1.75-1.42-3.17-3.17-3.17s-3.17,1.42-3.17,3.17,1.42,3.17,3.17,3.17,3.17-1.42,3.17-3.17Z"/>
          <path class="cls-12" d="M9.26,88.74c0-8.41-5.08-15.23-11.34-15.23s-11.34,6.82-11.34,15.23,5.08,12.44,11.34,12.44,11.34-4.03,11.34-12.44Z"/>
        </g>
      </g>
    </pattern>
    <filter id="drop-shadow-1" filterUnits="userSpaceOnUse">
      <feOffset dx="0" dy="1"/>
      <feGaussianBlur result="blur" stdDeviation="0"/>
      <feFlood flood-color="#9090c4" flood-opacity="1"/>
      <feComposite in2="blur" operator="in"/>
      <feComposite in="SourceGraphic"/>
    </filter>
    <filter id="drop-shadow-2" filterUnits="userSpaceOnUse">
      <feOffset dx="-1" dy="1"/>
      <feGaussianBlur result="blur-2" stdDeviation="0"/>
      <feFlood flood-color="#9090c4" flood-opacity="1"/>
      <feComposite in2="blur-2" operator="in"/>
      <feComposite in="SourceGraphic"/>
    </filter>
    <filter id="drop-shadow-3" filterUnits="userSpaceOnUse">
      <feOffset dx="0" dy="1"/>
      <feGaussianBlur result="blur-3" stdDeviation="0"/>
      <feFlood flood-color="#9090c4" flood-opacity="1"/>
      <feComposite in2="blur-3" operator="in"/>
      <feComposite in="SourceGraphic"/>
    </filter>
    <filter id="drop-shadow-4" filterUnits="userSpaceOnUse">
      <feOffset dx="0" dy="1"/>
      <feGaussianBlur result="blur-4" stdDeviation="0"/>
      <feFlood flood-color="#9090c4" flood-opacity="1"/>
      <feComposite in2="blur-4" operator="in"/>
      <feComposite in="SourceGraphic"/>
    </filter>
    <filter id="drop-shadow-5" filterUnits="userSpaceOnUse">
      <feOffset dx="0" dy="1"/>
      <feGaussianBlur result="blur-5" stdDeviation="0"/>
      <feFlood flood-color="#9090c4" flood-opacity="1"/>
      <feComposite in2="blur-5" operator="in"/>
      <feComposite in="SourceGraphic"/>
    </filter>
    <radialGradient id="radial-gradient" cx="57.13" cy="34" fx="57.13" fy="34" r="23.44" gradientUnits="userSpaceOnUse">
      <stop offset="0" stop-color="#fff"/>
      <stop offset=".78" stop-color="#f7f7f7"/>
      <stop offset="1" stop-color="#e6e6e6"/>
    </radialGradient>
    <filter id="drop-shadow-6" filterUnits="userSpaceOnUse">
      <feOffset dx="0" dy="1"/>
      <feGaussianBlur result="blur-6" stdDeviation="0"/>
      <feFlood flood-color="#9090c4" flood-opacity="1"/>
      <feComposite in2="blur-6" operator="in"/>
      <feComposite in="SourceGraphic"/>
    </filter>
    <radialGradient id="radial-gradient-2" cx="62.75" cy="42.7" fx="62.75" fy="42.7" r="14.22" gradientUnits="userSpaceOnUse">
      <stop offset="0" stop-color="#ffbf00"/>
      <stop offset=".6" stop-color="#ff931e"/>
      <stop offset=".62" stop-color="#ff931e"/>
      <stop offset="1" stop-color="#ff931e"/>
    </radialGradient>
    <filter id="drop-shadow-7" filterUnits="userSpaceOnUse">
      <feOffset dx="0" dy="1"/>
      <feGaussianBlur result="blur-7" stdDeviation="0"/>
      <feFlood flood-color="#9090c4" flood-opacity="1"/>
      <feComposite in2="blur-7" operator="in"/>
      <feComposite in="SourceGraphic"/>
    </filter>
  </defs>
  <g class="cls-24">
    <g id="Layer_2" data-name="Layer 2">
      <g id="Layer_7" data-name="Layer 7">
        <ellipse class="cls-9" cx="60.12" cy="58.75" rx="60.12" ry="58.75"/>
        <path class="cls-5" d="M95.37,70.29c-.68-2.47-1.68-4.49-2.89-6.06-1.54-4.69-5.62-8.1-9.66-10.69l-.16-.1c-11.8-8.85-29.59-10.46-42.01-2.26-5.17,3.84-11.02,8.46-12.89,14.98-2.41,8.54,3.5,17.48,12.32,19.26,3.26.74,6.78.51,9.91-.59,3.46-1.15,6.81-3.01,10.43-3.19,6.14-.17,11.9,4.13,18.2,3.07.04,0,.09-.02.13-.02l.71,20.51c3.44.08,7.52-2.72,10.48-4.53,2.66-1.81,5.96-4.09,7.22-7.22,2.44-7.33.32-15.91-1.79-23.14Z"/>
        <path class="cls-4" d="M48.84,89.9c-.71-2.75,1.27-5.96,1.89-9,2.06-7.32,2.96-15.78-4.55-19.5-8.61-4.51-16.93-1.23-20.09,7.86-2.58,7.06-5.17,15.39-2.46,22.6.14.37.3.73.5,1.06,1.75,2.86,5.62,4.99,8.77,6.7,4.81,2.35,11.99,6.37,16.7,3.62,2.5-1.57,3.71-4.69,2.19-7.83-.87-1.82-2.36-3.4-2.92-5.35l-.04-.16Z"/>
        <g>
          <path class="cls-15" d="M63.82,74.15c.26-.49.43-1.05.43-1.65,0-1.93-1.57-3.5-3.5-3.5s-3.5,1.57-3.5,3.5c0,.71.21,1.37.58,1.92-3.93.89-6.72,3.12-6.63,5.64.11,3.15,20.1,2.46,19.99-.69-.09-2.59-3.19-4.67-7.36-5.22Z"/>
          <circle class="cls-21" cx="60.75" cy="72.5" r="1"/>
        </g>
        <g class="cls-23">
          <path class="cls-18" d="M38.76,51.73l-1.28,1.88s7.77,11.39,11.77,12.39c0,0,1,1,6-3,0,0,2.32-2.71,3.16-4.36,0,0-13.8-.44-18.69-6.96-.24-.32-.74-.29-.96.04Z"/>
          <path class="cls-18" d="M59.77,58.55c-.27.16.19.6.75,1.4,1.29,1.73,3.33,4.04,5.29,4.95.21.09.32.14.49.09.86-.42,4.42-3.46,5.6-4.63,2.57-2.53,5.57-5.16,7.73-8.48.23-.77-.54-1.03-1.44-1.72-.46-.28-.78-.55-1.07-.76-.38-.28-.9-.2-1.21.15-2.32,2.69-8.74,7.84-16.08,8.96l-.06.03Z"/>
        </g>
        <rect class="cls-22" x="47.75" y="79.5" width="31" height="33" transform="translate(-3.27 2.24) rotate(-1.98)"/>
        <path class="cls-14" d="M55.46,97.89c-.86,4.53-6.26,7.27-11.85,5.88-7.87-1.97-5.07-16.73,2.97-15.68,5.71.75,9.73,5.27,8.87,9.8Z"/>
        <g>
          <g class="cls-20">
            <path class="cls-10" d="M80.1,35c2.01,31.55-48.27,31.55-45.93,0,3.22-31.55,43.02-31.55,45.93,0Z"/>
          </g>
          <path class="cls-3" d="M80.1,34c2.01,31.55-48.27,31.55-45.93,0,3.22-31.55,43.02-31.55,45.93,0Z"/>
        </g>
        <path class="cls-6" d="M46.9,20c4.7,0,8.8,3.22,10.98,7.98,1.97-4.63,5.69-7.82,10.08-7.97,5.6-.19,10.47,4.6,12.09,11.29-3.27-28.47-45.29-27.46-45.8,3.04,0,.25.02.5.03.75.3-8.39,5.83-15.09,12.62-15.09Z"/>
        <path class="cls-7" d="M67.46,25.82c-4.7,0-8.51,3.78-8.58,8.46-.5-.25-1.09-.4-1.72-.4s-1.22.15-1.72.4c-.07-4.68-3.88-8.46-8.58-8.46s-8.59,3.85-8.59,8.59,3.85,8.59,8.59,8.59c4.25,0,7.78-3.09,8.46-7.15.55-.34,1.2-.67,1.85-.67s1.3.32,1.85.67c.69,4.06,4.21,7.15,8.46,7.15,4.74,0,8.59-3.85,8.59-8.59s-3.85-8.59-8.59-8.59ZM46.72,41.7c-3.96,0-7.17-3.21-7.17-7.17s3.21-7.17,7.17-7.17,7.17,3.21,7.17,7.17-3.21,7.17-7.17,7.17ZM67.58,41.7c-3.96,0-7.17-3.21-7.17-7.17s3.21-7.17,7.17-7.17,7.17,3.21,7.17,7.17-3.21,7.17-7.17,7.17Z"/>
        <path class="cls-17" d="M63.25,40c-1.93-.96-9.28.29-10.85,1.95-.05,0-.11,0-.15.05-1.18,1.06-1.13,5.37,1.09,7.84,2.22,2.46,6.73,2.22,7.91,1.16.59-.53-2.73-1.74-5-4-.43-.43-.83-.91-1.19-1.39,3.19,2.49,7.93,5.33,9.19,4.39,4-3,1-9-1-10Z"/>
        <ellipse class="cls-6" cx="46.75" cy="34.5" rx="2.5" ry="1.5"/>
        <ellipse class="cls-6" cx="67.75" cy="34.5" rx="2.5" ry="1.5"/>
        <g>
          <circle class="cls-16" cx="48.25" cy="34" r="1"/>
          <circle class="cls-16" cx="69.25" cy="34" r="1"/>
        </g>
      </g>
    </g>
  </g>
</svg>