<?xml version="1.0" encoding="UTF-8"?>
<svg id="Layer_2" data-name="Layer 2" xmlns="http://www.w3.org/2000/svg" xmlns:xlink="http://www.w3.org/1999/xlink" viewBox="0 0 128.76 141.32">
  <defs>
    <style>
      .cls-1 {
        fill: url(#radial-gradient);
      }

      .cls-1, .cls-2, .cls-3, .cls-4, .cls-5, .cls-6, .cls-7, .cls-8 {
        stroke-width: 0px;
      }

      .cls-1, .cls-2, .cls-3, .cls-4, .cls-5, .cls-6, .cls-8 {
        opacity: .41;
      }

      .cls-2 {
        fill: url(#radial-gradient-6);
      }

      .cls-3 {
        fill: url(#radial-gradient-2);
      }

      .cls-4 {
        fill: url(#radial-gradient-3);
      }

      .cls-5 {
        fill: url(#radial-gradient-4);
      }

      .cls-6 {
        fill: url(#radial-gradient-5);
      }

      .cls-7, .cls-8 {
        fill: #0071bc;
      }
    </style>
    <radialGradient id="radial-gradient" cx="66.63" cy="35.07" fx="66.63" fy="35.07" r="29.29" gradientUnits="userSpaceOnUse">
      <stop offset="0" stop-color="#cce0f4"/>
      <stop offset=".06" stop-color="#c2dcf2"/>
      <stop offset=".17" stop-color="#a9d2ee"/>
      <stop offset=".31" stop-color="#7fc2e7"/>
      <stop offset=".46" stop-color="#46abdd"/>
      <stop offset=".57" stop-color="#1e9cd7"/>
      <stop offset=".87" stop-color="#0075be"/>
      <stop offset=".99" stop-color="#005b97"/>
    </radialGradient>
    <radialGradient id="radial-gradient-2" cx="98.06" cy="50.22" fx="98.06" fy="50.22" r="27.14" xlink:href="#radial-gradient"/>
    <radialGradient id="radial-gradient-3" cx="94.83" cy="95.39" fx="94.83" fy="95.39" r="25.84" xlink:href="#radial-gradient"/>
    <radialGradient id="radial-gradient-4" cx="60.54" cy="108.19" fx="60.54" fy="108.19" r="29.28" xlink:href="#radial-gradient"/>
    <radialGradient id="radial-gradient-5" cx="30.5" cy="91.57" fx="30.5" fy="91.57" r="27.06" xlink:href="#radial-gradient"/>
    <radialGradient id="radial-gradient-6" cx="33.37" cy="44.67" fx="33.37" fy="44.67" r="25.67" xlink:href="#radial-gradient"/>
  </defs>
  <g id="Layer_5" data-name="Layer 5">
    <g>
      <path class="cls-8" d="M64.63,66.29c-4.82-10.77-23.4-48.64-22.71-48.99.6.19,2.66.97,4.28,2.46.3.26,1.1,1.08,1.28.92.45-1.76.19-6.44,2.42-7.34.62-.17,1.12.1,1.76.38.7.37,2.09.97,2.62,1.39.19.17.2.33.15.57-.33,1.2-1.73,5.81-1.4,8.1,1.1,2.96,8.97,24.74,9.56,26.4-.15-2.23.5-33.83-.27-35.17-2.26-1.38-5.26-3.17-7.63-4.6-1.54-.97-1.74-.79-1.5-1.91.22-.99.88-1.89,1.7-2.49.83-.51,1.45-1.02,2.05-.42,1.08,1.36,5.38,6.6,7.11,5.35,1.59-1.91.36-5.65-.02-8.07-.5-1.82.12-2.23,2-2.69,1.74-.26,2.91-.48,2.35,1.74-.15,1.92-1.5,9.16.33,9.7,1.69-.63,5.48-4.61,7.02-6.38.81-.83,1.04-1.37,2.14-.96.99.37,3,2.08,2.33,3.19-2.67,2.51-5.55,4.86-8.73,6.71-.62.43-1.29.64-1.34,1.42-.11,1.69-.35,7.16-.48,9.54-.06,2.13-.8,20.26-.98,27.05.04.04,5.6-11.17,8.41-16.76.59-1.18.99-1.98,1.43-2.87.15-.28.11-.51.05-.82-.27-1.26-1.51-6.77-1.78-8.04-.37-1.37.99-2.48,2.2-3,.88-.36,1.81-.44,2.32-.49.72-.1,1.13.03,1.68.72.96,1.21,1.22,2.96,1.61,4.43.06.13.13.33.27.4.23.09.61-.42,1.19-.97,1.18-1.18,3.07-2.74,4.43-2.79.38-.02,1.06-.03,1.13.33-1.04,1.85-20.96,34.15-26.98,43.97h0Z"/>
      <path class="cls-8" d="M67.61,67.86c7.33-9.25,32.33-43.22,32.96-42.77.11.62.37,2.81-.21,4.93-.09.38-.45,1.47-.22,1.56,1.76-.42,5.8-2.81,7.63-1.24.44.47.43,1.04.48,1.73,0,.79.11,2.3-.02,2.96-.06.24-.2.33-.43.4-1.22.26-5.95,1.15-7.83,2.5-2.11,2.34-17.8,19.38-19,20.67,1.91-1.16,30.24-15.18,31.07-16.49.18-2.65.38-6.12.56-8.89.15-1.81-.1-1.9,1-2.22.98-.26,2.08-.09,2.99.36.84.5,1.57.81,1.32,1.62-.7,1.59-3.37,7.82-1.46,8.77,2.43.53,5.18-2.29,7.15-3.75,1.39-1.28,2.03-.92,3.31.53,1.03,1.42,1.77,2.35-.46,2.89-1.77.75-8.82,2.9-8.45,4.77,1.34,1.21,6.61,2.73,8.9,3.28,1.11.34,1.7.29,1.84,1.45.12,1.05-.46,3.62-1.75,3.54-3.46-1.21-6.88-2.68-9.99-4.64-.67-.35-1.17-.84-1.88-.53-1.55.69-6.51,2.99-8.69,3.98-1.92.94-18.34,8.65-24.45,11.63-.02.05,12.49-.2,18.75-.29,1.31-.02,2.21-.04,3.21-.05.32,0,.5-.13.75-.33.99-.82,5.31-4.47,6.31-5.29,1.04-.96,2.66-.27,3.68.57.73.61,1.22,1.4,1.51,1.83.42.59.5,1.02.13,1.82-.63,1.41-2.06,2.45-3.18,3.47-.09.11-.23.27-.23.42.03.25.65.35,1.41.6,1.59.5,3.85,1.46,4.52,2.64.19.32.51.93.23,1.16-2.12-.07-39.97-2.81-51.45-3.62h0Z"/>
      <path class="cls-8" d="M65.96,71.23c11.77.8,53.93,2.15,53.92,2.92-.45.44-2.11,1.89-4.18,2.63-.37.14-1.47.46-1.41.7,1.34,1.22,5.6,3.19,5.35,5.58-.14.63-.61.95-1.16,1.38-.66.45-1.84,1.4-2.45,1.66-.24.08-.39.02-.57-.13-.9-.86-4.32-4.25-6.5-5.04-3.13-.41-26.06-3.68-27.8-3.94,2.04.91,29.65,16.31,31.19,16.25,2.28-1.35,5.26-3.16,7.64-4.58,1.58-.9,1.51-1.16,2.39-.43.77.66,1.26,1.66,1.4,2.67.07.97.22,1.76-.58,2-1.71.32-8.36,1.65-8.05,3.77.94,2.3,4.82,2.97,7.14,3.77,1.84.41,1.91,1.15,1.43,3.03-.59,1.66-.94,2.79-2.64,1.26-1.63-1.04-7.39-5.62-8.72-4.26-.24,1.79,1.5,7,2.34,9.19.35,1.11.72,1.56-.15,2.34-.79.7-3.24,1.67-3.91.56-.96-3.54-1.69-7.18-1.84-10.86-.09-.75.04-1.44-.63-1.85-1.44-.89-6.16-3.67-8.21-4.9-1.86-1.05-17.52-10.21-23.44-13.55-.05.01,7.24,10.18,10.86,15.28.76,1.07,1.28,1.8,1.86,2.61.18.26.39.34.7.43,1.24.35,6.69,1.85,7.93,2.2,1.38.31,1.73,2.03,1.62,3.35-.09.95-.46,1.8-.65,2.28-.25.68-.56.99-1.42,1.14-1.52.28-3.19-.31-4.67-.65-.14,0-.35-.04-.48.05-.19.16.09.74.3,1.51.49,1.6.98,4,.38,5.22-.16.34-.47.95-.83.84-1.14-1.79-20.34-34.53-26.18-44.44h0Z"/>
      <path class="cls-8" d="M63.17,73.13c4.73,10.81,23.01,48.82,22.31,49.17-.6-.19-2.65-1-4.26-2.49-.3-.26-1.09-1.09-1.28-.93-.46,1.75-.24,6.44-2.48,7.32-.62.16-1.12-.1-1.75-.39-.7-.38-2.09-.98-2.6-1.41-.18-.17-.2-.34-.15-.57.34-1.2,1.78-5.79,1.46-8.09-1.08-2.97-8.77-24.81-9.35-26.47.13,2.23-.77,33.83,0,35.17,2.25,1.4,5.23,3.21,7.59,4.66,1.53.99,1.73.8,1.49,1.93-.23.99-.89,1.88-1.72,2.47-.83.51-1.45,1.01-2.05.41-1.07-1.36-5.33-6.65-7.06-5.4-1.6,1.9-.41,5.65-.05,8.07.48,1.83-.13,2.22-2.02,2.67-1.74.25-2.91.46-2.34-1.76.17-1.92,1.57-9.15-.25-9.7-1.7.62-5.51,4.56-7.07,6.32-.82.82-1.05,1.36-2.14.94-.98-.38-2.98-2.1-2.3-3.21,2.69-2.49,5.59-4.82,8.78-6.64.63-.43,1.29-.63,1.35-1.41.12-1.69.41-7.16.55-9.54.07-2.13.96-20.25,1.19-27.04-.04-.04-5.68,11.13-8.54,16.69-.6,1.17-1.01,1.97-1.46,2.86-.15.28-.12.5-.06.82.26,1.26,1.45,6.79,1.72,8.05.36,1.37-1.01,2.47-2.23,2.98-.88.36-1.81.42-2.32.47-.72.1-1.13-.04-1.67-.73-.95-1.22-1.19-2.97-1.58-4.44-.06-.13-.13-.33-.26-.4-.23-.09-.61.42-1.2.96-1.19,1.17-3.1,2.71-4.45,2.75-.38.02-1.06.02-1.13-.34,1.06-1.84,21.23-33.99,27.33-43.75h0Z"/>
      <path class="cls-8" d="M61.12,69.69c-7.24,9.31-31.94,43.51-32.58,43.06-.11-.62-.39-2.81.16-4.93.09-.39.44-1.48.21-1.56-1.76.43-5.78,2.86-7.62,1.31-.44-.47-.44-1.04-.49-1.73,0-.79-.13-2.3,0-2.96.06-.24.2-.33.43-.4,1.21-.27,5.94-1.2,7.81-2.57,2.09-2.36,17.63-19.54,18.81-20.84-1.9,1.18-30.1,15.46-30.92,16.77-.16,2.65-.33,6.13-.48,8.89-.14,1.81.12,1.9-.98,2.23-.98.27-2.08.11-3-.33-.84-.49-1.58-.8-1.33-1.61.69-1.59,3.3-7.85,1.38-8.79-2.43-.51-5.16,2.34-7.12,3.81-1.38,1.3-2.02.94-3.31-.5-1.05-1.41-1.79-2.34.43-2.9,1.77-.77,8.8-2.98,8.41-4.84-1.35-1.2-6.64-2.67-8.93-3.2-1.12-.33-1.7-.27-1.85-1.43-.13-1.05.43-3.62,1.72-3.56,3.47,1.18,6.9,2.62,10.03,4.55.67.35,1.17.83,1.88.51,1.54-.7,6.49-3.05,8.65-4.06,1.91-.95,18.26-8.81,24.34-11.85.02-.05-12.49.31-18.75.46-1.31.03-2.21.06-3.21.08-.32,0-.5.14-.75.34-.98.83-5.27,4.51-6.26,5.35-1.03.97-2.65.29-3.68-.54-.73-.6-1.24-1.39-1.52-1.82-.43-.59-.51-1.01-.15-1.82.62-1.41,2.04-2.46,3.15-3.5.09-.11.23-.27.23-.42-.03-.25-.66-.34-1.42-.59-1.6-.49-3.86-1.43-4.54-2.6-.2-.32-.52-.92-.24-1.16,2.12.05,40,2.45,51.48,3.15h0Z"/>
      <path class="cls-8" d="M61.11,66.32c-11.6-2.12-53.34-8.24-53.24-9.01.49-.39,2.31-1.64,4.45-2.14.38-.1,1.51-.29,1.48-.54-1.2-1.36-5.2-3.8-4.68-6.15.21-.61.71-.87,1.31-1.24.7-.37,1.98-1.18,2.62-1.37.24-.06.39.02.55.19.8.95,3.81,4.72,5.89,5.74,3.06.77,25.48,6.61,27.17,7.06-1.92-1.14-27.61-19.56-29.15-19.68-2.42,1.08-5.58,2.54-8.11,3.68-1.67.72-1.63.98-2.43.16-.69-.75-1.06-1.79-1.09-2.81.04-.97-.02-1.77.81-1.93,1.73-.13,8.49-.7,8.43-2.83-.67-2.39-4.46-3.5-6.67-4.55-1.79-.62-1.77-1.35-1.08-3.17.77-1.58,1.25-2.67,2.77-.95,1.5,1.21,6.71,6.42,8.18,5.22.44-1.75-.7-7.12-1.29-9.4-.22-1.14-.54-1.63.42-2.3.87-.6,3.41-1.29,3.95-.12.56,3.63.87,7.33.6,10.99,0,.76-.2,1.43.41,1.91,1.33,1.04,5.7,4.34,7.6,5.8,1.73,1.25,16.25,12.13,21.75,16.12.05,0-6.04-10.94-9.06-16.42-.64-1.15-1.07-1.94-1.55-2.81-.15-.28-.35-.38-.65-.5-1.19-.49-6.44-2.59-7.63-3.08-1.34-.47-1.49-2.22-1.22-3.52.2-.93.66-1.74.91-2.19.32-.65.66-.92,1.54-.97,1.54-.1,3.13.67,4.56,1.18.14.02.35.08.48,0,.21-.14,0-.74-.13-1.53-.3-1.64-.52-4.08.21-5.23.19-.32.58-.89.92-.74.94,1.91,16.3,36.61,20.98,47.12h0Z"/>
    </g>
    <g>
      <path class="cls-1" d="M64.5,68.22c-4.82-10.77-23.4-48.64-22.71-48.99.6.19,2.66.97,4.28,2.46.3.26,1.1,1.08,1.28.92.45-1.76.19-6.44,2.42-7.34.62-.17,1.12.1,1.76.38.7.37,2.09.97,2.62,1.39.19.17.2.33.15.57-.33,1.2-1.73,5.81-1.4,8.1,1.1,2.96,8.97,24.74,9.56,26.4-.15-2.23.5-33.83-.27-35.17-2.26-1.38-5.26-3.17-7.63-4.6-1.54-.97-1.74-.79-1.5-1.91.22-.99.88-1.89,1.7-2.49.83-.51,1.45-1.02,2.05-.42,1.08,1.36,5.38,6.6,7.11,5.35,1.59-1.91.36-5.65-.02-8.07-.5-1.82.12-2.23,2-2.69,1.74-.26,2.91-.48,2.35,1.74-.15,1.92-1.5,9.16.33,9.7,1.69-.63,5.48-4.61,7.02-6.38.81-.83,1.04-1.37,2.14-.96.99.37,3,2.08,2.33,3.19-2.67,2.51-5.55,4.86-8.73,6.71-.62.43-1.29.64-1.34,1.42-.11,1.69-.35,7.16-.48,9.54-.06,2.13-.8,20.26-.98,27.05.04.04,5.6-11.17,8.41-16.76.59-1.18.99-1.98,1.43-2.87.15-.28.11-.51.05-.82-.27-1.26-1.51-6.77-1.78-8.04-.37-1.37.99-2.48,2.2-3,.88-.36,1.81-.44,2.32-.49.72-.1,1.13.03,1.68.72.96,1.21,1.22,2.96,1.61,4.43.06.13.13.33.27.4.23.09.61-.42,1.19-.97,1.18-1.18,3.07-2.74,4.43-2.79.38-.02,1.06-.03,1.13.33-1.04,1.85-20.96,34.15-26.98,43.97h0Z"/>
      <path class="cls-3" d="M67.49,69.79c7.33-9.25,32.33-43.22,32.96-42.77.11.62.37,2.81-.21,4.93-.09.38-.45,1.47-.22,1.56,1.76-.42,5.8-2.81,7.63-1.24.44.47.43,1.04.48,1.73,0,.79.11,2.3-.02,2.96-.06.24-.2.33-.43.4-1.22.26-5.95,1.15-7.83,2.5-2.11,2.34-17.8,19.38-19,20.67,1.91-1.16,30.24-15.18,31.07-16.49.18-2.65.38-6.12.56-8.89.15-1.81-.1-1.9,1-2.22.98-.26,2.08-.09,2.99.36.84.5,1.57.81,1.32,1.62-.7,1.59-3.37,7.82-1.46,8.77,2.43.53,5.18-2.29,7.15-3.75,1.39-1.28,2.03-.92,3.31.53,1.03,1.42,1.77,2.35-.46,2.89-1.77.75-8.82,2.9-8.45,4.77,1.34,1.21,6.61,2.73,8.9,3.28,1.11.34,1.7.29,1.84,1.45.12,1.05-.46,3.62-1.75,3.54-3.46-1.21-6.88-2.68-9.99-4.64-.67-.35-1.17-.84-1.88-.53-1.55.69-6.51,2.99-8.69,3.98-1.92.94-18.34,8.65-24.45,11.63-.02.05,12.49-.2,18.75-.29,1.31-.02,2.21-.04,3.21-.05.32,0,.5-.13.75-.33.99-.82,5.31-4.47,6.31-5.29,1.04-.96,2.66-.27,3.68.57.73.61,1.22,1.4,1.51,1.83.42.59.5,1.02.13,1.82-.63,1.41-2.06,2.45-3.18,3.47-.09.11-.23.27-.23.42.03.25.65.35,1.41.6,1.59.5,3.85,1.46,4.52,2.64.19.32.51.93.23,1.16-2.12-.07-39.97-2.81-51.45-3.62h0Z"/>
      <path class="cls-4" d="M65.83,73.16c11.77.8,53.93,2.15,53.92,2.92-.45.44-2.11,1.89-4.18,2.63-.37.14-1.47.46-1.41.7,1.34,1.22,5.6,3.19,5.35,5.58-.14.63-.61.95-1.16,1.38-.66.45-1.84,1.4-2.45,1.66-.24.08-.39.02-.57-.13-.9-.86-4.32-4.25-6.5-5.04-3.13-.41-26.06-3.68-27.8-3.94,2.04.91,29.65,16.31,31.19,16.25,2.28-1.35,5.26-3.16,7.64-4.58,1.58-.9,1.51-1.16,2.39-.43.77.66,1.26,1.66,1.4,2.67.07.97.22,1.76-.58,2-1.71.32-8.36,1.65-8.05,3.77.94,2.3,4.82,2.97,7.14,3.77,1.84.41,1.91,1.15,1.43,3.03-.59,1.66-.94,2.79-2.64,1.26-1.63-1.04-7.39-5.62-8.72-4.26-.24,1.79,1.5,7,2.34,9.19.35,1.11.72,1.56-.15,2.34-.79.7-3.24,1.67-3.91.56-.96-3.54-1.69-7.18-1.84-10.86-.09-.75.04-1.44-.63-1.85-1.44-.89-6.16-3.67-8.21-4.9-1.86-1.05-17.52-10.21-23.44-13.55-.05.01,7.24,10.18,10.86,15.28.76,1.07,1.28,1.8,1.86,2.61.18.26.39.34.7.43,1.24.35,6.69,1.85,7.93,2.2,1.38.31,1.73,2.03,1.62,3.35-.09.95-.46,1.8-.65,2.28-.25.68-.56.99-1.42,1.14-1.52.28-3.19-.31-4.67-.65-.14,0-.35-.04-.48.05-.19.16.09.74.3,1.51.49,1.6.98,4,.38,5.22-.16.34-.47.95-.83.84-1.14-1.79-20.34-34.53-26.18-44.44h0Z"/>
      <path class="cls-5" d="M63.04,75.05c4.73,10.81,23.01,48.82,22.31,49.17-.6-.19-2.65-1-4.26-2.49-.3-.26-1.09-1.09-1.28-.93-.46,1.75-.24,6.44-2.48,7.32-.62.16-1.12-.1-1.75-.39-.7-.38-2.09-.98-2.6-1.41-.18-.17-.2-.34-.15-.57.34-1.2,1.78-5.79,1.46-8.09-1.08-2.97-8.77-24.81-9.35-26.47.13,2.23-.77,33.83,0,35.17,2.25,1.4,5.23,3.21,7.59,4.66,1.53.99,1.73.8,1.49,1.93-.23.99-.89,1.88-1.72,2.47-.83.51-1.45,1.01-2.05.41-1.07-1.36-5.33-6.65-7.06-5.4-1.6,1.9-.41,5.65-.05,8.07.48,1.83-.13,2.22-2.02,2.67-1.74.25-2.91.46-2.34-1.76.17-1.92,1.57-9.15-.25-9.7-1.7.62-5.51,4.56-7.07,6.32-.82.82-1.05,1.36-2.14.94-.98-.38-2.98-2.1-2.3-3.21,2.69-2.49,5.59-4.82,8.78-6.64.63-.43,1.29-.63,1.35-1.41.12-1.69.41-7.16.55-9.54.07-2.13.96-20.25,1.19-27.04-.04-.04-5.68,11.13-8.54,16.69-.6,1.17-1.01,1.97-1.46,2.86-.15.28-.12.5-.06.82.26,1.26,1.45,6.79,1.72,8.05.36,1.37-1.01,2.47-2.23,2.98-.88.36-1.81.42-2.32.47-.72.1-1.13-.04-1.67-.73-.95-1.22-1.19-2.97-1.58-4.44-.06-.13-.13-.33-.26-.4-.23-.09-.61.42-1.2.96-1.19,1.17-3.1,2.71-4.45,2.75-.38.02-1.06.02-1.13-.34,1.06-1.84,21.23-33.99,27.33-43.75h0Z"/>
      <path class="cls-6" d="M60.99,71.62c-7.24,9.31-31.94,43.51-32.58,43.06-.11-.62-.39-2.81.16-4.93.09-.39.44-1.48.21-1.56-1.76.43-5.78,2.86-7.62,1.31-.44-.47-.44-1.04-.49-1.73,0-.79-.13-2.3,0-2.96.06-.24.2-.33.43-.4,1.21-.27,5.94-1.2,7.81-2.57,2.09-2.36,17.63-19.54,18.81-20.84-1.9,1.18-30.1,15.46-30.92,16.77-.16,2.65-.33,6.13-.48,8.89-.14,1.81.12,1.9-.98,2.23-.98.27-2.08.11-3-.33-.84-.49-1.58-.8-1.33-1.61.69-1.59,3.3-7.85,1.38-8.79-2.43-.51-5.16,2.34-7.12,3.81-1.38,1.3-2.02.94-3.31-.5-1.05-1.41-1.79-2.34.43-2.9,1.77-.77,8.8-2.98,8.41-4.84-1.35-1.2-6.64-2.67-8.93-3.2-1.12-.33-1.7-.27-1.85-1.43-.13-1.05.43-3.62,1.72-3.56,3.47,1.18,6.9,2.62,10.03,4.55.67.35,1.17.83,1.88.51,1.54-.7,6.49-3.05,8.65-4.06,1.91-.95,18.26-8.81,24.34-11.85.02-.05-12.49.31-18.75.46-1.31.03-2.21.06-3.21.08-.32,0-.5.14-.75.34-.98.83-5.27,4.51-6.26,5.35-1.03.97-2.65.29-3.68-.54-.73-.6-1.24-1.39-1.52-1.82-.43-.59-.51-1.01-.15-1.82.62-1.41,2.04-2.46,3.15-3.5.09-.11.23-.27.23-.42-.03-.25-.66-.34-1.42-.59-1.6-.49-3.86-1.43-4.54-2.6-.2-.32-.52-.92-.24-1.16,2.12.05,40,2.45,51.48,3.15h0Z"/>
      <path class="cls-2" d="M60.98,68.25c-11.6-2.12-53.34-8.24-53.24-9.01.49-.39,2.31-1.64,4.45-2.14.38-.1,1.51-.29,1.48-.54-1.2-1.36-5.2-3.8-4.68-6.15.21-.61.71-.87,1.31-1.24.7-.37,1.98-1.18,2.62-1.37.24-.06.39.02.55.19.8.95,3.81,4.72,5.89,5.74,3.06.77,25.48,6.61,27.17,7.06-1.92-1.14-27.61-19.56-29.15-19.68-2.42,1.08-5.58,2.54-8.11,3.68-1.67.72-1.63.98-2.43.16-.69-.75-1.06-1.79-1.09-2.81.04-.97-.02-1.77.81-1.93,1.73-.13,8.49-.7,8.43-2.83-.67-2.39-4.46-3.5-6.67-4.55-1.79-.62-1.77-1.35-1.08-3.17.77-1.58,1.25-2.67,2.77-.95,1.5,1.21,6.71,6.42,8.18,5.22.44-1.75-.7-7.12-1.29-9.4-.22-1.14-.54-1.63.42-2.3.87-.6,3.41-1.29,3.95-.12.56,3.63.87,7.33.6,10.99,0,.76-.2,1.43.41,1.91,1.33,1.04,5.7,4.34,7.6,5.8,1.73,1.25,16.25,12.13,21.75,16.12.05,0-6.04-10.94-9.06-16.42-.64-1.15-1.07-1.94-1.55-2.81-.15-.28-.35-.38-.65-.5-1.19-.49-6.44-2.59-7.63-3.08-1.34-.47-1.49-2.22-1.22-3.52.2-.93.66-1.74.91-2.19.32-.65.66-.92,1.54-.97,1.54-.1,3.13.67,4.56,1.18.14.02.35.08.48,0,.21-.14,0-.74-.13-1.53-.3-1.64-.52-4.08.21-5.23.19-.32.58-.89.92-.74.94,1.91,16.3,36.61,20.98,47.12h0Z"/>
    </g>
    <path class="cls-7" d="M97.15,58.79c-3.39-.39-18.91-1.58-27.33,1.29-.61.21-1.19.39-1.85.23-3.43-.93-4.8-.75-8.16.05-.47.07-.98-.06-1.46-.22-8.51-2.94-23.93-1.72-27.47-1.34-1.66.29-3.72,1.09-4.67,2.61-.79,1.3-.66,2.31.54,3.32.67.64,1.55.97,2.33,1.42.48.34.35.85.4,1.45.02,2.47.18,4.98.56,7.42.22,1.39.27,2.62.96,3.83,2.78,4.88,12.45,5.12,15.98,4.82,3.21-.28,7.1-1.19,9.07-3.83,1.97-2.8,3.43-9.27,4.15-11.98.18-.74.06-1.32.22-2.13.13-.69.48-1.41,1.07-1.83,1.03-.7,2.25-.6,3.43-.56,2.26.16,2.86,1.82,2.85,3.82.61,3.14,1.95,7.95,3.4,11.22.45.94.83,1.5,1.47,2.15.96,1.2,3.99,2.43,5.89,2.76,1.34.28,2.88.4,4.2.46,3.28-.05,11.97-.23,14.51-5.25.46-1,.52-1.75.7-2.88.09-.65.19-1.34.27-2,.23-1.75.33-3.56.36-5.33.06-.66-.15-1.8.39-2.15.33-.23.6-.31,1.04-.55.6-.3,1.24-.76,1.69-1.26,1.26-1.22.48-2.88-.64-3.88-1-.95-2.6-1.45-3.87-1.69h0ZM57.88,67.12c-.17,1.34-.4,2.39-.76,3.96-.6,2.53-1.33,4.99-2.61,7.11-1.7,2.73-6.03,3.07-8.99,3.11-4.45.06-10.48-1.28-12.87-6.1-.44-.94-.54-1.92-.58-2.94-.1-2.25-.23-5.85.89-7.84.36-.6.95-1.03,1.57-1.33.53-.27,1.06-.45,1.62-.61,4.85-1.25,10.23-1.17,15.16-.43.6.09,1.19.2,1.79.31.82.16,1.63.27,2.38.65.88.45,1.64,1.18,2.07,2.07.31.62.4,1.38.32,2.04h0ZM95.8,73.89c-1.17,5.25-8.03,7.46-12.77,7.39-3.09,0-7.09-.21-9.19-2.64-1.83-2.64-2.62-6.08-3.31-9.29-.12-.62-.24-1.27-.34-1.87-.12-.76-.11-1.57.22-2.29.54-1.23,1.72-2.19,3.01-2.53,5.86-1.32,12.44-1.68,18.28-.25,1.32.36,2.8.9,3.48,2.18,1.09,2.15.94,7.06.62,9.29h0Z"/>
  </g>
</svg>