<?xml version="1.0" encoding="UTF-8"?>
<svg id="Layer_2" data-name="Layer 2" xmlns="http://www.w3.org/2000/svg" xmlns:xlink="http://www.w3.org/1999/xlink" viewBox="0 0 932 720">
  <defs>
    <style>
      .cls-1 {
        fill: url(#linear-gradient);
        stroke: url(#Sky);
      }

      .cls-1, .cls-2, .cls-3, .cls-4, .cls-5, .cls-6 {
        stroke-miterlimit: 10;
      }

      .cls-2 {
        fill: url(#linear-gradient-3);
        stroke: url(#Sky-3);
      }

      .cls-2, .cls-3 {
        opacity: .48;
        stroke-width: .5px;
      }

      .cls-3 {
        fill: url(#linear-gradient-6);
        stroke: url(#Sky-6);
      }

      .cls-4 {
        fill: url(#linear-gradient-4);
        stroke: url(#Sky-4);
      }

      .cls-5 {
        fill: url(#linear-gradient-2);
        stroke: url(#Sky-2);
      }

      .cls-6 {
        fill: url(#linear-gradient-5);
        stroke: url(#Sky-5);
      }
    </style>
    <linearGradient id="linear-gradient" x1="209.85" y1="197.74" x2="861.28" y2="197.74" gradientUnits="userSpaceOnUse">
      <stop offset=".07" stop-color="#75bee6" stop-opacity=".5"/>
      <stop offset=".15" stop-color="rgba(108, 186, 228, .55)" stop-opacity=".55"/>
      <stop offset=".29" stop-color="rgba(86, 178, 224, .67)" stop-opacity=".67"/>
      <stop offset=".46" stop-color="rgba(50, 164, 218, .88)" stop-opacity=".88"/>
      <stop offset=".55" stop-color="#1e9cd7"/>
      <stop offset=".99" stop-color="#005b97"/>
      <stop offset="1" stop-color="#279fd8" stop-opacity=".7"/>
      <stop offset="1" stop-color="rgba(25, 143, 201, .91)" stop-opacity=".91"/>
      <stop offset="1" stop-color="#1489c4"/>
    </linearGradient>
    <linearGradient id="Sky" x1="209.35" y1="197.74" x2="619.7" y2="197.74" gradientUnits="userSpaceOnUse">
      <stop offset="0" stop-color="#cce0f4"/>
      <stop offset=".06" stop-color="#c2dcf2"/>
      <stop offset=".17" stop-color="#a9d2ee"/>
      <stop offset=".31" stop-color="#7fc2e7"/>
      <stop offset=".46" stop-color="#46abdd"/>
      <stop offset=".57" stop-color="#1e9cd7"/>
      <stop offset=".87" stop-color="#0075be"/>
      <stop offset=".99" stop-color="#005b97"/>
    </linearGradient>
    <linearGradient id="linear-gradient-2" x1="330.93" y1="438.58" x2="909.42" y2="438.58" xlink:href="#linear-gradient"/>
    <linearGradient id="Sky-2" data-name="Sky" x1="330.43" y1="438.58" x2="654.18" y2="438.58" xlink:href="#Sky"/>
    <linearGradient id="linear-gradient-3" x1="168.22" y1="481.59" x2="571.32" y2="481.59" gradientTransform="translate(24.35 -13.39) rotate(2.82)" gradientUnits="userSpaceOnUse">
      <stop offset="0" stop-color="#c6def3"/>
      <stop offset=".26" stop-color="#a8d2ee"/>
      <stop offset=".76" stop-color="#68b9e4"/>
      <stop offset=".9" stop-color="#62b7e3"/>
      <stop offset=".92" stop-color="#58aedb"/>
      <stop offset=".94" stop-color="#3f96c7"/>
      <stop offset=".98" stop-color="#166fa8"/>
      <stop offset=".99" stop-color="#005b97"/>
      <stop offset="1" stop-color="#1e9cd7" stop-opacity=".2"/>
      <stop offset="1" stop-color="#0075be"/>
    </linearGradient>
    <linearGradient id="Sky-3" data-name="Sky" x1="167.97" y1="481.59" x2="393.53" y2="481.59" gradientTransform="translate(24.35 -13.39) rotate(2.82)" xlink:href="#Sky"/>
    <linearGradient id="linear-gradient-4" x1="194.71" y1="187.29" x2="846.14" y2="187.29" xlink:href="#linear-gradient"/>
    <linearGradient id="Sky-4" data-name="Sky" x1="194.21" y1="187.29" x2="604.55" y2="187.29" xlink:href="#Sky"/>
    <linearGradient id="linear-gradient-5" x1="315.79" y1="428.13" x2="894.28" y2="428.13" xlink:href="#linear-gradient"/>
    <linearGradient id="Sky-5" data-name="Sky" x1="315.29" y1="428.13" x2="639.04" y2="428.13" xlink:href="#Sky"/>
    <linearGradient id="linear-gradient-6" x1="159.7" y1="489.43" x2="562.81" y2="489.43" xlink:href="#linear-gradient-3"/>
    <linearGradient id="Sky-6" data-name="Sky" x1="159.45" y1="489.43" x2="385.01" y2="489.43" gradientTransform="translate(24.35 -13.39) rotate(2.82)" xlink:href="#Sky"/>
  </defs>
  <path class="cls-1" d="M618.48,44.46c-1.58-3.01-6.14-4.33-12.47-4.51-136.57,6.16-295.36,69.86-376.08,182.57-27.3,37.17-31.28,106.16,16.66,127.23,19.9,8.18,45,5.53,67.54,4.69,59.42-2.42,114.64-6.48,149.99-60.98,3.66-5.81,13.83-20.04,10.92-26.04-1.43-2.44-5.83-2.48-12.06-2.08-41.2,3.45-128.39,28.06-142.5,1.83-5.59-11.97,5.34-30.41,13.74-41.82,39.86-52.44,103.13-78.68,163.88-100.17,23.68-8.8,49.78-10.73,71.8-23.53,15.77-9.13,29.42-22.52,40.53-36.91,4.09-5.14,10.94-15.27,8.09-20.21l-.04-.08Z"/>
  <path class="cls-5" d="M566.25,254.08c11.2-2.92,41.52-14.79,31.86,5.66-32.15,55.05-71.09,108.16-102.57,163.69-42.23,75.3-98.33,138.78,11.77,136.49,14.8-.13,28.28-1.54,43.56-2.55,18.61-1.3,39.84-2.74,57.53-4.56,17.91-1.41,52.15-7.73,44.06,9.01-2.38,5.92-8.78,14.41-15.93,22.66-9.04,10.33-18.01,20.24-30.43,26.3-6.34,3.17-13.38,5.29-20.73,6.55-56.46,7.46-115.03,4.83-171.94,9.64-12.99.93-25.19,1.85-38.4,2.13-9.51.13-20.74.21-29.29-1.67-21.45-4.54-14.83-23.16-9.51-39.51,20.13-59.66,57.96-113.69,85.19-170.11,15.57-30.67,32.08-61.43,50.32-90.64,23.95-37.17,49.48-60.76,94.28-73.02l.2-.06Z"/>
  <path class="cls-2" d="M282.16,592.03c3,1.29,7.07-6.12,9.07-9.26,29.85-52.67,87.81-162.06,106.72-198.18,2.3-5.88-.9-7.68-7.62-8.48-58.23.19-145.84-.52-203.39.36-4.72.17-19.91,1.17-10.49,6.61,3.35,2.01,30.74,8.19,34.34,11.52,7.73,6.53,4.19,18.97,10.87,25.97,11.69,8.61,25.02-6.85,35.48-12.04,7.92-4.42,16.86-6.52,25.81-7.72,12.35-1.61,24.84-2.98,37.24-4.44,3.31-.17,20.74-3.05,19.51,1.35-.49,1.5-3.25,3.78-7.24,6.54-26.33,17.48-63.25,41.25-90.94,58.89-13.83,8.84-27.1,6.93-42.46,1.69-4.84-1.52-9.4-2.86-14.13-3.13-12.38-.71-4,2.34-5.64,13.55-1.78,12.25,13.75,5.76,18.75,9.4,9.21,6.55-3,13.92-8.36,18.36-2.6,2.1-4.89,4.31-6.36,6.58-4.32,6.33,3.31,4.24,6.22,11.52,4.96,12.38,11.96-1.62,15.02-5.95,1.81-2.56,7.1-7.6,9.94-7.67,9.68-.23,3.92,21.37,6.56,27.6,1.44,3.4,1.44,2.4,15.49-4.46,11.37-5.55-11.05-14.14,9.34-35.76,3.65-3.88,8.09-7.22,12.58-10.4,26.21-18.24,65.93-56.73,89.28-72.53,14.54-9.42-3.97,22.97-6.33,27.02-11.6,17.25-26.08,39.47-38.13,56.72-3.44,4.77-7.17,9.18-11.67,12.81-3.3,2.69-7,4.94-11.06,7-7.97,4.15-20.02,8.69-19.93,18.8,1.37,11.86,18.43,9.22,24.13,17.98,2.91,4.13-5.29,32.74-4.25,36.68.34,1.16.66,2.36,1.6,3.05l.04.03Z"/>
  <path class="cls-4" d="M603.34,34.02c-1.58-3.01-6.14-4.33-12.47-4.51-136.57,6.16-295.36,69.86-376.08,182.57-27.3,37.17-31.28,106.16,16.66,127.23,19.9,8.18,45,5.53,67.54,4.69,59.42-2.42,114.64-6.48,149.99-60.98,3.66-5.81,13.83-20.04,10.92-26.04-1.43-2.44-5.83-2.48-12.06-2.08-41.2,3.45-128.39,28.06-142.5,1.83-5.59-11.97,5.34-30.41,13.74-41.82,39.86-52.44,103.13-78.68,163.88-100.17,23.68-8.8,49.78-10.73,71.8-23.53,15.77-9.13,29.42-22.52,40.53-36.91,4.09-5.14,10.94-15.27,8.09-20.21l-.04-.08Z"/>
  <path class="cls-6" d="M551.1,243.63c11.2-2.92,41.52-14.79,31.86,5.66-32.15,55.05-71.09,108.16-102.57,163.69-42.23,75.3-98.33,138.78,11.77,136.49,14.8-.13,28.28-1.54,43.56-2.55,18.61-1.3,39.84-2.74,57.53-4.56,17.91-1.41,52.15-7.73,44.06,9.01-2.38,5.92-8.78,14.41-15.93,22.66-9.04,10.33-18.01,20.24-30.43,26.3-6.34,3.17-13.38,5.29-20.73,6.55-56.46,7.46-115.03,4.83-171.94,9.64-12.99.93-25.19,1.85-38.4,2.13-9.51.13-20.74.21-29.29-1.67-21.45-4.54-14.83-23.16-9.51-39.51,20.13-59.66,57.96-113.69,85.19-170.11,15.57-30.67,32.08-61.43,50.32-90.64,23.95-37.17,49.48-60.76,94.28-73.02l.2-.06Z"/>
  <path class="cls-3" d="M273.27,599.44c3,1.29,7.07-6.12,9.07-9.26,29.85-52.67,87.81-162.06,106.72-198.18,2.3-5.88-.9-7.68-7.62-8.48-58.23.19-145.84-.52-203.39.36-4.72.17-19.91,1.17-10.49,6.61,3.35,2.01,30.74,8.19,34.34,11.52,7.73,6.53,4.19,18.97,10.87,25.97,11.69,8.61,25.02-6.85,35.48-12.04,7.92-4.42,16.86-6.52,25.81-7.72,12.35-1.61,24.84-2.98,37.24-4.44,3.31-.17,20.74-3.05,19.51,1.35-.49,1.5-3.25,3.78-7.24,6.54-26.33,17.48-63.25,41.25-90.94,58.89-13.83,8.84-27.1,6.93-42.46,1.69-4.84-1.52-9.4-2.86-14.13-3.13-12.38-.71-4,2.34-5.64,13.55-1.78,12.25,13.75,5.76,18.75,9.4,9.21,6.55-3,13.92-8.36,18.36-2.6,2.1-4.89,4.31-6.36,6.58-4.32,6.33,3.31,4.24,6.22,11.52,4.96,12.38,11.96-1.62,15.02-5.95,1.81-2.56,7.1-7.6,9.94-7.67,9.68-.23,3.92,21.37,6.56,27.6,1.44,3.4,1.44,2.4,15.49-4.46,11.37-5.55-11.05-14.14,9.34-35.76,3.65-3.88,8.09-7.22,12.58-10.4,26.21-18.24,65.93-56.73,89.28-72.53,14.54-9.42-3.97,22.97-6.33,27.02-11.6,17.25-26.08,39.47-38.13,56.72-3.44,4.77-7.17,9.18-11.67,12.81-3.3,2.69-7,4.94-11.06,7-7.97,4.15-20.02,8.69-19.93,18.8,1.37,11.86,18.43,9.22,24.13,17.98,2.91,4.13-5.29,32.74-4.25,36.68.34,1.16.66,2.36,1.6,3.05l.04.03Z"/>
</svg>