<?xml version="1.0" encoding="UTF-8"?>
<svg xmlns="http://www.w3.org/2000/svg" xmlns:xlink="http://www.w3.org/1999/xlink" viewBox="0 0 120.25 117.5">
  <defs>
    <style>
      .cls-1 {
        fill: #9ddcf9;
        opacity: .4;
      }

      .cls-1, .cls-2, .cls-3, .cls-4, .cls-5, .cls-6, .cls-7, .cls-8, .cls-9, .cls-10, .cls-11, .cls-12, .cls-13, .cls-14, .cls-15, .cls-16, .cls-17, .cls-18, .cls-19, .cls-20, .cls-21, .cls-22, .cls-23, .cls-24 {
        stroke-width: 0px;
      }

      .cls-25 {
        fill: url(#White_Black);
      }

      .cls-25, .cls-26, .cls-27, .cls-28, .cls-29, .cls-30, .cls-31, .cls-32, .cls-33, .cls-34, .cls-35, .cls-36 {
        stroke: #999;
        stroke-linejoin: round;
        stroke-width: .75px;
      }

      .cls-26 {
        fill: url(#White_Black-10);
      }

      .cls-27 {
        fill: url(#White_Black-11);
      }

      .cls-28 {
        fill: url(#White_Black-12);
      }

      .cls-2, .cls-37, .cls-38, .cls-39 {
        fill: none;
      }

      .cls-3, .cls-40, .cls-17, .cls-18 {
        mix-blend-mode: multiply;
      }

      .cls-3, .cls-23 {
        fill: #c6dd7f;
      }

      .cls-4 {
        fill: url(#radial-gradient);
      }

      .cls-5 {
        filter: url(#drop-shadow-2);
      }

      .cls-5, .cls-6 {
        fill: #e6e6e6;
      }

      .cls-6 {
        filter: url(#drop-shadow-1);
      }

      .cls-7 {
        fill: url(#Alyssa);
        filter: url(#drop-shadow-4);
      }

      .cls-8, .cls-9 {
        fill: url(#Jive);
      }

      .cls-37 {
        stroke: #fff;
      }

      .cls-37, .cls-38, .cls-39 {
        stroke-miterlimit: 10;
      }

      .cls-38 {
        stroke: #f15a24;
      }

      .cls-41 {
        filter: url(#drop-shadow-5);
      }

      .cls-9 {
        filter: url(#drop-shadow-3);
      }

      .cls-10 {
        fill: #f15a24;
      }

      .cls-39 {
        stroke: #9090c4;
      }

      .cls-11 {
        fill: url(#radial-gradient-2);
      }

      .cls-12 {
        fill: #2e3192;
      }

      .cls-13 {
        fill: #bdccd4;
        filter: url(#drop-shadow-7);
      }

      .cls-14, .cls-17 {
        fill: #a6d0e4;
      }

      .cls-15 {
        fill: #29abe2;
        opacity: .15;
      }

      .cls-16 {
        fill: #9090c4;
      }

      .cls-18, .cls-19 {
        fill: #e9ddb7;
      }

      .cls-29 {
        fill: url(#White_Black-5);
      }

      .cls-30 {
        fill: url(#White_Black-6);
      }

      .cls-31 {
        fill: url(#White_Black-7);
      }

      .cls-32 {
        fill: url(#White_Black-3);
      }

      .cls-33 {
        fill: url(#White_Black-2);
      }

      .cls-34 {
        fill: url(#White_Black-4);
      }

      .cls-35 {
        fill: url(#White_Black-8);
      }

      .cls-36 {
        fill: url(#White_Black-9);
      }

      .cls-42 {
        isolation: isolate;
      }

      .cls-20 {
        filter: url(#drop-shadow-6);
      }

      .cls-20, .cls-22 {
        fill: #fff;
      }

      .cls-21 {
        fill: #603813;
      }

      .cls-24 {
        fill: #00427e;
      }
    </style>
    <filter id="drop-shadow-1" filterUnits="userSpaceOnUse">
      <feOffset dx="0" dy="1"/>
      <feGaussianBlur result="blur" stdDeviation="0"/>
      <feFlood flood-color="#9090c4" flood-opacity="1"/>
      <feComposite in2="blur" operator="in"/>
      <feComposite in="SourceGraphic"/>
    </filter>
    <filter id="drop-shadow-2" filterUnits="userSpaceOnUse">
      <feOffset dx="0" dy="1"/>
      <feGaussianBlur result="blur-2" stdDeviation="0"/>
      <feFlood flood-color="#9090c4" flood-opacity="1"/>
      <feComposite in2="blur-2" operator="in"/>
      <feComposite in="SourceGraphic"/>
    </filter>
    <pattern id="Jive" x="0" y="0" width="108.34" height="109.64" patternTransform="translate(-281.86 -834.3)" patternUnits="userSpaceOnUse" viewBox="0 0 108.34 109.64">
      <g>
        <rect class="cls-2" x="0" width="108.34" height="109.64"/>
        <g>
          <path class="cls-24" d="M87.47,144.34c.02-.12.12-.21.25-.21,12.91-.13,24.75-3.27,33.97-11.51-8.03,5.56-22.94,7.51-31.53,3.62-.11-.05-.17-.17-.14-.29.03-.12.13-.2.25-.2,10.68.29,19.28-3.01,25.98-8.96-6.87-.42-12.57-4.74-12.56-9.84,0-.12.08-.22.2-.25.12-.03.23.04.28.14,1.12,2.49,4.75,3.78,8.58,2.88,4.18-.98,7-4.19,6.3-7.16-.47-2.01-2.44-3.4-4.95-3.79-.13-.02-.22-.13-.22-.26,0-.13.1-.23.23-.25,1.07-.1,2.18-.11,3.32,0,6.49.62,11.51,4.6,11.95,9.18,4.71-.55,8.88-3.16,10.38-6.77.04-.11.16-.17.28-.15.12.02.2.11.21.23.38,4.75-1.26,7.84-4.97,10.85,5.38-2.06,11.45-2.16,17.26.54.11.05.16.16.14.28-.02.12-.12.2-.24.2-4.88.19-8.42,1.76-11.73,5.07,18.25-5.13,33.09,6.2,27.95,23.05-.04.12-.15.19-.27.18-.12-.01-.22-.11-.23-.23-.92-9.71-7.7-16.12-17.86-17.08,5.39,2.06,11,6.98,11.56,15.53,0,.12-.07.23-.19.26-.12.03-.24-.03-.29-.14-2.8-6.15-8.3-9.27-14.16-9.81,6.33,2.58,10.4,8.6,11.57,16.42.02.12-.05.24-.17.28-.12.04-.25-.02-.3-.12-3.87-7.58-12.16-12.79-22.45-8.81-10.62,4.11-15.27,16.39-16.3,25.04-.02.12-.12.21-.24.22s-.23-.07-.26-.2c-3.72-15.69,3.58-31.95,16.64-38.84-7.1,2-13.44,6.26-17.03,13.35-8.29,1.02-14,3.86-16.86,9.24-.06.11-.18.16-.29.12-.12-.03-.19-.14-.18-.27.18-2.11.94-6.33,4.07-8.27-6.96.01-12.51-.89-17.8-3.01-.11-.05-.18-.16-.15-.28ZM116.96,197.81c-.1-.07-.23-.05-.32.03-.09.08-.1.21-.04.31,1.62,2.8.14,6.81-3.05,6.81-5.72,0-8.47-10.77-7.6-20.59,2.16,5.76,4.03,8.05,7.35,10.79.09.08.23.08.32,0,.09-.08.12-.21.06-.32-4.86-9.08-5.9-16.07-5.9-24.09,1.46,5.96,3.2,9.32,8.13,14.38.09.09.22.1.32.03.1-.07.14-.2.09-.32-5.3-11.59-4.89-24.45-.95-34.26.04-.1.01-.21-.06-.28-.08-.07-.19-.09-.29-.04-5.21,2.55-8.26,4.23-12.75,10.39,1.36,7.4.23,11.05-3.17,17.2,3.94-9.92,1.84-23.89-8.19-29.59-.11-.06-.25-.03-.32.06-.08.1-.07.24.02.33,3.78,3.96,6.53,10.63,4.16,17.93,1.53-10.39-7.6-19.12-17.78-19.12-9.6,0-16.15,7.51-15.61,14.94.54,7.37,5.44,10.97,9.67,12.5.11.04.24,0,.3-.1.06-.1.05-.23-.03-.32-5.61-5.69-6.38-16.49,3.58-19.76-5.86,5.06-3.69,16.83,5.69,17.72.12.01.23-.06.26-.17s0-.23-.1-.3c-2.01-1.28-3.68-3.77-3.68-6.57,0-4.67,3.42-6.51,5.68-6.51,3.42,0,6.26,3.26,6.26,8.18,0,5.84-5.26,10.68-12.02,11.44-6.63.73-12.78-2.15-15.75-6.46-.07-.1-.2-.14-.31-.09s-.17.18-.14.29c3.02,11.7,16.8,16.88,26.89,9.51-6.61,7.5-17.01,7.61-25.72-.09-.09-.08-.23-.08-.32,0-.1.07-.13.21-.07.31,2.67,5.41,9.25,11.82,18.61,10.88,8.56-.86,13.52-9.01,14.52-15.69.56,8.52-1.39,14.54-8.75,20.15-.1.07-.13.21-.07.32.05.11.18.16.3.13,6.79-1.96,12.23-5.43,15.05-12.54,0,6.16-2.14,12.37-7.53,16.51-.1.07-.13.21-.07.31s.18.16.3.13c3.45-.98,6.17-2.49,8.14-5.19,1.31,11.1,6.52,17.69,12.52,17.69,4.12,0,7.2-3.03,7.2-7.87,0-2.83-1.49-6.8-4.81-9.02ZM216.19,106.19c-3.16-3.9-9.54-5.39-16.43-3.99.51-4.3-.33-8.79-1.61-11.48-.05-.11-.17-.17-.29-.14-.12.03-.2.14-.19.26.37,8.77-4.62,15.84-13.45,18.91,6.91-4.76,8.93-14.19,5.64-19.07-.07-.1-.2-.14-.31-.09-.11.04-.18.16-.15.28.37,2.06-.61,4.68-2.71,6.73-2.91,2.81-6.85,3.45-8.81,1.43-1.96-2.03-1.2-5.95,1.71-8.76,1.06-1.03,2.26-1.76,3.45-2.18.11-.04.18-.15.17-.27-.01-.12-.11-.21-.23-.22-6.39-.55-10.77,3.25-13.52,7.88-2.79,4.71-7.57,8.41-13.21,7.67-.12-.02-.23.05-.27.17-.04.11,0,.24.11.3,2.8,1.68,5.87,2.38,9.86,1.05-5.79,4.91-14.05,7.74-21.84,5.23-.11-.04-.23,0-.29.1-.06.1-.05.22.03.31,5.91,6.56,17.69,6.7,25.11,1.37-3.04,4.32-7.07,7.48-14.29,8.48-.12.02-.2.11-.22.22-.01.12.05.23.16.27,8.29,3.08,16.6-.04,23.45-8.21-2.99,6.38-7.91,11.48-14.77,14.01-.12.04-.18.16-.16.28.02.12.12.21.24.21,3.94.08,7.49-.86,12.27-3.57-3.51,5.69-2.74,15.64,2.37,22.26.07.09.2.12.3.08.11-.05.17-.16.15-.27-1.18-7.2,1.3-15.33,5.61-19.64-2.15,7.63,0,14.58,5.9,19.64.07.06.17.08.26.04.09-.03.15-.11.16-.2,1.23-9.42,11.77-18.97,20.6-19.78.12-.01.22-.11.23-.24s-.07-.24-.2-.26c-4.28-.97-8.69-.49-12.39,1.03,2.66-2.93,5.94-5.11,9.56-6.25.12-.04.19-.15.18-.27-.01-.12-.11-.21-.23-.22-4.51-.31-8.92,1.01-12.73,3.54,4.36-6.62,10.98-11.54,19.43-13.51.12-.03.2-.14.2-.26,0-.12-.1-.22-.23-.24-11.92-1.3-21.75,3.32-28.22,11.92,1.65-4.9,6.37-9.76,12.95-12.62,5.85-2.54,11.85-2.95,16.42-1.51.11.03.22,0,.29-.1.06-.09.06-.21-.01-.3ZM163.28,181.76c4.81-10.49,4.46-18.69.59-29.05-.04-.12-.17-.18-.29-.16-.12.03-.21.14-.2.26.62,12.62-2.83,21.65-10.3,27.81,8.25-9.85,4.35-29.56-8.82-29.56-9.59,0-17.52,7.98-19.45,17.52-.03.12.04.24.16.29.12.04.25,0,.31-.11,2.84-4.76,7.41-7.85,12.46-7.85,8.13,0,10.54,6.47,10.54,11,0,6.19-4.93,11.34-8.71,11.34-3.44,0-5.04-2.82-5.04-4.93,0-3.9,3-7.17,6.38-8.16.12-.04.2-.15.18-.28-.02-.12-.12-.22-.25-.22-4.11-.03-7.58,1.86-9.63,5.57-.27-2.88-.27-4.69.64-7.72.04-.12-.02-.24-.12-.3-.11-.06-.24-.03-.32.07-7.36,9.39-3.84,25.62,1.98,32.36-5.53-3.98-10.42-12.63-10.34-24.39,0-.12-.08-.23-.21-.25-.12-.03-.24.04-.28.15-4.11,10.25-1.93,29.25,9.28,39.85-2.88.4-5.87.35-9.12-.69-.12-.04-.24.01-.3.12-.06.11-.04.24.06.32,4.09,3.46,9.81,4.54,15.27,4.54-4.7-5.5-3.14-16.55,4.36-16.55,5.35,0,7.78,8.3,3.65,12.78-.08.09-.09.21-.03.31.06.1.19.14.3.1,4.78-1.65,9.95-5.79,9.95-11.02s-4.81-9.39-11.8-9.05c8.82-2.51,18.05.27,22.88,6.25.07.09.21.12.31.07.11-.05.16-.18.13-.29-2.79-10.72-11.97-15.2-23.44-13.71,9.28-3.76,23.25-.48,29.42,7.31.07.09.2.12.31.07.11-.05.16-.17.14-.28-1.37-6.62-4.86-11.56-10.62-13.52Z"/>
          <path class="cls-1" d="M189.67,162.47c-.02.12-.12.21-.25.21-12.91.14-24.75,3.27-33.97,11.52,8.03-5.56,22.94-7.51,31.53-3.62.11.05.17.17.14.29-.03.12-.13.2-.25.2-10.68-.29-19.28,3.01-25.98,8.96,6.87.42,12.57,4.74,12.56,9.85,0,.12-.08.22-.2.25-.12.02-.23-.04-.28-.14-1.12-2.49-4.75-3.78-8.58-2.88-4.18.98-7,4.19-6.3,7.17.47,2.01,2.44,3.4,4.95,3.79.13.02.22.13.22.26,0,.13-.1.23-.23.25-1.07.1-2.18.11-3.32,0-6.49-.62-11.51-4.59-11.95-9.18-4.71.55-8.88,3.16-10.38,6.77-.04.11-.16.17-.28.15-.12-.02-.2-.11-.21-.23-.38-4.75,1.26-7.84,4.97-10.85-5.38,2.06-11.45,2.16-17.26-.54-.11-.05-.16-.17-.14-.28.02-.12.12-.2.24-.2,4.88-.19,8.42-1.76,11.73-5.07-18.26,5.13-33.09-6.2-27.96-23.05.04-.12.15-.19.27-.18s.22.11.23.23c.92,9.71,7.7,16.12,17.86,17.08-5.39-2.06-11-6.97-11.56-15.53,0-.12.07-.23.19-.26.12-.03.24.03.29.14,2.8,6.15,8.3,9.26,14.16,9.81-6.33-2.58-10.4-8.6-11.57-16.42-.02-.12.05-.24.17-.28.12-.04.25.02.3.13,3.87,7.58,12.16,12.79,22.45,8.81,10.62-4.11,15.27-16.38,16.3-25.04.02-.12.12-.22.24-.22.12,0,.23.08.26.2,3.72,15.69-3.58,31.95-16.64,38.84,7.1-2,13.44-6.26,17.03-13.35,8.29-1.02,14-3.86,16.86-9.24.06-.11.18-.16.29-.12.12.04.19.15.18.27-.18,2.11-.94,6.33-4.07,8.27,6.96-.01,12.51.89,17.8,3.01.11.04.18.16.15.28ZM160.18,109c.1.06.23.05.32-.03.09-.08.1-.21.04-.31-1.62-2.8-.14-6.81,3.05-6.81,5.72,0,8.47,10.77,7.6,20.59-2.16-5.75-4.03-8.05-7.35-10.79-.09-.08-.23-.08-.32,0-.09.08-.12.21-.06.32,4.86,9.08,5.9,16.06,5.9,24.08-1.46-5.96-3.2-9.32-8.13-14.38-.09-.09-.22-.1-.32-.03-.1.07-.14.2-.09.31,5.3,11.59,4.89,24.45.95,34.26-.04.1-.01.21.06.28.08.07.19.09.29.04,5.21-2.55,8.26-4.23,12.75-10.39-1.36-7.4-.23-11.05,3.17-17.19-3.94,9.92-1.84,23.89,8.19,29.59.11.06.25.04.32-.06.08-.1.07-.24-.02-.33-3.78-3.96-6.53-10.63-4.16-17.93-1.53,10.39,7.6,19.11,17.78,19.11,9.6,0,16.15-7.51,15.61-14.94-.54-7.37-5.44-10.97-9.67-12.5-.11-.04-.24,0-.3.1-.06.1-.05.23.03.31,5.61,5.69,6.38,16.49-3.58,19.76,5.86-5.06,3.69-16.83-5.69-17.72-.12,0-.23.06-.26.17-.04.11,0,.23.1.3,2.01,1.28,3.68,3.77,3.68,6.57,0,4.67-3.42,6.51-5.68,6.51-3.42,0-6.26-3.26-6.26-8.18,0-5.84,5.26-10.68,12.02-11.43,6.63-.74,12.78,2.15,15.75,6.46.07.1.2.14.31.09.11-.05.17-.17.14-.29-3.02-11.7-16.8-16.88-26.89-9.51,6.61-7.5,17.01-7.61,25.72.09.09.08.22.09.32.01.1-.07.13-.21.07-.31-2.67-5.41-9.25-11.82-18.61-10.88-8.56.86-13.52,9.02-14.52,15.69-.56-8.52,1.39-14.54,8.75-20.14.1-.07.13-.21.07-.32-.05-.11-.18-.16-.3-.13-6.79,1.96-12.23,5.42-15.05,12.54,0-6.16,2.14-12.37,7.53-16.51.1-.07.13-.21.07-.32-.05-.11-.18-.16-.29-.13-3.45.98-6.17,2.49-8.14,5.18-1.31-11.1-6.52-17.69-12.53-17.69-4.12,0-7.21,3.03-7.21,7.87,0,2.83,1.49,6.8,4.81,9.02ZM60.95,200.62c3.16,3.9,9.54,5.39,16.43,3.99-.51,4.3.33,8.79,1.61,11.49.05.11.17.17.29.14.12-.03.2-.14.19-.26-.37-8.77,4.62-15.84,13.45-18.91-6.91,4.76-8.93,14.19-5.64,19.06.07.1.2.14.31.09.11-.04.18-.16.15-.28-.37-2.06.61-4.68,2.71-6.72,2.91-2.81,6.85-3.45,8.81-1.43,1.96,2.03,1.2,5.95-1.71,8.76-1.06,1.03-2.26,1.76-3.45,2.19-.11.04-.18.15-.17.27.01.12.11.21.23.22,6.39.55,10.77-3.25,13.52-7.88,2.79-4.71,7.57-8.41,13.21-7.67.12.02.23-.05.27-.17.04-.11,0-.24-.11-.3-2.8-1.68-5.87-2.38-9.86-1.05,5.8-4.91,14.05-7.74,21.84-5.23.11.04.23,0,.29-.1s.05-.22-.03-.31c-5.91-6.56-17.69-6.7-25.11-1.37,3.04-4.32,7.07-7.49,14.29-8.48.12-.02.21-.11.22-.22.01-.12-.05-.22-.16-.27-8.29-3.08-16.6.04-23.45,8.22,2.99-6.38,7.91-11.49,14.77-14.01.12-.04.18-.16.16-.28-.02-.12-.12-.21-.24-.21-3.94-.08-7.49.86-12.26,3.57,3.51-5.69,2.74-15.64-2.37-22.26-.07-.09-.2-.12-.3-.08-.11.05-.17.16-.15.28,1.18,7.2-1.3,15.33-5.61,19.64,2.15-7.63,0-14.58-5.9-19.64-.07-.06-.17-.08-.26-.04-.09.03-.15.11-.16.2-1.23,9.42-11.77,18.97-20.6,19.78-.12.01-.22.11-.23.24,0,.12.07.24.2.26,4.28.97,8.69.49,12.39-1.03-2.66,2.93-5.94,5.11-9.55,6.24-.12.04-.19.15-.18.27.01.12.11.22.23.22,4.51.31,8.92-1.01,12.73-3.54-4.36,6.62-10.98,11.54-19.43,13.51-.12.03-.2.14-.2.26,0,.12.1.22.23.24,11.92,1.3,21.75-3.32,28.22-11.92-1.65,4.9-6.37,9.76-12.95,12.62-5.85,2.55-11.85,2.95-16.42,1.51-.11-.03-.22,0-.29.1-.06.09-.06.22.01.3ZM113.86,125.05c-4.81,10.49-4.46,18.69-.59,29.05.04.12.17.19.29.16.12-.03.21-.14.2-.26-.62-12.62,2.83-21.65,10.3-27.81-8.25,9.85-4.35,29.56,8.82,29.56,9.59,0,17.52-7.98,19.46-17.53.03-.12-.04-.24-.16-.29-.12-.04-.25,0-.31.11-2.84,4.76-7.41,7.85-12.46,7.85-8.13,0-10.54-6.47-10.54-11,0-6.19,4.93-11.34,8.71-11.34,3.44,0,5.04,2.82,5.04,4.93,0,3.9-3,7.17-6.37,8.16-.12.04-.2.15-.18.28.02.12.12.22.25.22,4.11.03,7.58-1.85,9.63-5.57.27,2.88.27,4.69-.64,7.72-.04.12.02.24.12.3.11.05.24.03.32-.07,7.36-9.39,3.84-25.62-1.98-32.36,5.53,3.98,10.42,12.63,10.34,24.39,0,.12.08.23.21.25.12.02.24-.04.28-.15,4.11-10.25,1.93-29.25-9.28-39.85,2.88-.4,5.87-.35,9.12.69.12.04.24-.01.3-.12.06-.11.04-.24-.06-.32-4.09-3.46-9.81-4.54-15.27-4.54,4.7,5.5,3.14,16.55-4.35,16.55-5.35,0-7.78-8.3-3.65-12.78.08-.09.09-.21.03-.31-.06-.1-.19-.14-.3-.1-4.78,1.66-9.95,5.79-9.95,11.02s4.81,9.39,11.8,9.05c-8.82,2.5-18.05-.27-22.88-6.25-.07-.09-.2-.12-.31-.07-.11.05-.16.17-.13.29,2.79,10.71,11.97,15.2,23.44,13.71-9.28,3.76-23.25.48-29.42-7.31-.07-.09-.2-.12-.31-.07-.11.05-.16.17-.14.28,1.37,6.62,4.86,11.56,10.62,13.52Z"/>
        </g>
        <g>
          <path class="cls-24" d="M-20.86,144.34c.02-.12.12-.21.25-.21,12.91-.13,24.75-3.27,33.97-11.51-8.03,5.56-22.94,7.51-31.53,3.62-.11-.05-.17-.17-.14-.29.03-.12.13-.2.25-.2,10.68.29,19.28-3.01,25.98-8.96-6.87-.42-12.57-4.74-12.56-9.84,0-.12.08-.22.2-.25.12-.03.23.04.28.14,1.12,2.49,4.75,3.78,8.58,2.88,4.18-.98,7-4.19,6.3-7.16-.47-2.01-2.44-3.4-4.95-3.79-.13-.02-.22-.13-.22-.26,0-.13.1-.23.23-.25,1.07-.1,2.18-.11,3.32,0,6.49.62,11.51,4.6,11.95,9.18,4.71-.55,8.88-3.16,10.38-6.77.04-.11.16-.17.28-.15.12.02.2.11.21.23.38,4.75-1.26,7.84-4.97,10.85,5.38-2.06,11.45-2.16,17.26.54.11.05.16.16.14.28-.02.12-.12.2-.24.2-4.88.19-8.42,1.76-11.73,5.07,18.25-5.13,33.09,6.2,27.95,23.05-.04.12-.15.19-.27.18-.12-.01-.22-.11-.23-.23-.92-9.71-7.7-16.12-17.86-17.08,5.39,2.06,11,6.98,11.56,15.53,0,.12-.07.23-.19.26-.12.03-.24-.03-.29-.14-2.8-6.15-8.3-9.27-14.16-9.81,6.33,2.58,10.4,8.6,11.57,16.42.02.12-.05.24-.17.28-.12.04-.25-.02-.3-.12-3.87-7.58-12.16-12.79-22.45-8.81-10.62,4.11-15.27,16.39-16.3,25.04-.02.12-.12.21-.24.22-.12,0-.23-.07-.26-.2-3.72-15.69,3.58-31.95,16.64-38.84-7.1,2-13.44,6.26-17.03,13.35-8.29,1.02-14,3.86-16.86,9.24-.06.11-.18.16-.29.12-.12-.03-.19-.14-.18-.27.18-2.11.94-6.33,4.07-8.27-6.97.01-12.51-.89-17.8-3.01-.11-.05-.18-.16-.15-.28ZM8.62,197.81c-.1-.07-.23-.05-.32.03-.09.08-.1.21-.04.31,1.62,2.8.14,6.81-3.05,6.81-5.72,0-8.47-10.77-7.6-20.59,2.16,5.76,4.03,8.05,7.35,10.79.09.08.23.08.32,0,.09-.08.12-.21.06-.32-4.86-9.08-5.9-16.07-5.9-24.09,1.46,5.96,3.2,9.32,8.13,14.38.09.09.22.1.32.03.1-.07.14-.2.09-.32-5.3-11.59-4.89-24.45-.95-34.26.04-.1.01-.21-.06-.28-.08-.07-.19-.09-.29-.04-5.21,2.55-8.26,4.23-12.75,10.39,1.36,7.4.23,11.05-3.17,17.2,3.94-9.92,1.84-23.89-8.19-29.59-.11-.06-.25-.03-.32.06-.08.1-.07.24.02.33,3.78,3.96,6.53,10.63,4.16,17.93,1.53-10.39-7.6-19.12-17.78-19.12-9.6,0-16.15,7.51-15.61,14.94.54,7.37,5.44,10.97,9.67,12.5.11.04.24,0,.3-.1.06-.1.05-.23-.03-.32-5.61-5.69-6.38-16.49,3.58-19.76-5.86,5.06-3.69,16.83,5.69,17.72.12.01.23-.06.26-.17s0-.23-.1-.3c-2.01-1.28-3.68-3.77-3.68-6.57,0-4.67,3.42-6.51,5.68-6.51,3.42,0,6.26,3.26,6.26,8.18,0,5.84-5.26,10.68-12.02,11.44-6.63.73-12.78-2.15-15.75-6.46-.07-.1-.2-.14-.31-.09-.11.05-.17.18-.14.29,3.02,11.7,16.8,16.88,26.89,9.51-6.61,7.5-17.01,7.61-25.72-.09-.09-.08-.23-.08-.32,0-.1.07-.13.21-.07.31,2.67,5.41,9.25,11.82,18.61,10.88,8.56-.86,13.52-9.01,14.52-15.69.56,8.52-1.39,14.54-8.75,20.15-.1.07-.13.21-.07.32.05.11.18.16.3.13,6.79-1.96,12.23-5.43,15.05-12.54,0,6.16-2.14,12.37-7.53,16.51-.1.07-.13.21-.07.31s.18.16.3.13c3.45-.98,6.17-2.49,8.14-5.19,1.31,11.1,6.52,17.69,12.53,17.69,4.12,0,7.21-3.03,7.21-7.87,0-2.83-1.49-6.8-4.81-9.02ZM107.85,106.19c-3.16-3.9-9.54-5.39-16.43-3.99.51-4.3-.33-8.79-1.61-11.48-.05-.11-.17-.17-.29-.14-.12.03-.2.14-.19.26.37,8.77-4.62,15.84-13.45,18.91,6.91-4.76,8.93-14.19,5.64-19.07-.07-.1-.2-.14-.31-.09-.11.04-.18.16-.15.28.37,2.06-.61,4.68-2.71,6.73-2.91,2.81-6.85,3.45-8.81,1.43-1.96-2.03-1.2-5.95,1.71-8.76,1.06-1.03,2.26-1.76,3.45-2.18.11-.04.18-.15.17-.27-.01-.12-.11-.21-.23-.22-6.39-.55-10.77,3.25-13.52,7.88-2.79,4.71-7.57,8.41-13.21,7.67-.12-.02-.23.05-.27.17-.04.11,0,.24.11.3,2.8,1.68,5.87,2.38,9.86,1.05-5.79,4.91-14.05,7.74-21.84,5.23-.11-.04-.23,0-.29.1-.06.1-.05.22.03.31,5.91,6.56,17.69,6.7,25.11,1.37-3.04,4.32-7.07,7.48-14.29,8.48-.12.02-.2.11-.22.22-.01.12.05.23.16.27,8.29,3.08,16.6-.04,23.45-8.21-2.99,6.38-7.91,11.48-14.77,14.01-.12.04-.18.16-.16.28.02.12.12.21.24.21,3.94.08,7.49-.86,12.27-3.57-3.51,5.69-2.74,15.64,2.37,22.26.07.09.2.12.3.08.11-.05.17-.16.15-.27-1.18-7.2,1.3-15.33,5.61-19.64-2.15,7.63,0,14.58,5.9,19.64.07.06.17.08.26.04.09-.03.15-.11.16-.2,1.23-9.42,11.77-18.97,20.6-19.78.12-.01.22-.11.23-.24s-.07-.24-.2-.26c-4.28-.97-8.69-.49-12.39,1.03,2.66-2.93,5.94-5.11,9.55-6.25.12-.04.19-.15.18-.27-.01-.12-.11-.21-.23-.22-4.51-.31-8.92,1.01-12.73,3.54,4.36-6.62,10.98-11.54,19.43-13.51.12-.03.2-.14.2-.26,0-.12-.1-.22-.23-.24-11.92-1.3-21.75,3.32-28.22,11.92,1.65-4.9,6.37-9.76,12.95-12.62,5.85-2.54,11.85-2.95,16.42-1.51.11.03.22,0,.29-.1.06-.09.06-.21-.01-.3ZM54.94,181.76c4.81-10.49,4.46-18.69.59-29.05-.04-.12-.17-.18-.29-.16-.12.03-.21.14-.2.26.62,12.62-2.83,21.65-10.3,27.81,8.25-9.85,4.35-29.56-8.82-29.56-9.59,0-17.52,7.98-19.45,17.52-.03.12.04.24.16.29.12.04.25,0,.31-.11,2.84-4.76,7.41-7.85,12.46-7.85,8.13,0,10.54,6.47,10.54,11,0,6.19-4.93,11.34-8.71,11.34-3.44,0-5.04-2.82-5.04-4.93,0-3.9,3-7.17,6.38-8.16.12-.04.2-.15.18-.28-.02-.12-.12-.22-.25-.22-4.11-.03-7.58,1.86-9.63,5.57-.27-2.88-.27-4.69.64-7.72.04-.12-.02-.24-.12-.3-.11-.06-.24-.03-.32.07-7.36,9.39-3.84,25.62,1.98,32.36-5.53-3.98-10.42-12.63-10.34-24.39,0-.12-.08-.23-.2-.25-.12-.03-.24.04-.28.15-4.11,10.25-1.93,29.25,9.28,39.85-2.88.4-5.87.35-9.12-.69-.12-.04-.24.01-.3.12-.06.11-.04.24.06.32,4.09,3.46,9.81,4.54,15.27,4.54-4.7-5.5-3.14-16.55,4.36-16.55,5.35,0,7.78,8.3,3.65,12.78-.08.09-.09.21-.03.31.06.1.19.14.3.1,4.78-1.65,9.95-5.79,9.95-11.02s-4.81-9.39-11.8-9.05c8.82-2.51,18.05.27,22.88,6.25.07.09.21.12.31.07.11-.05.16-.18.13-.29-2.79-10.72-11.97-15.2-23.44-13.71,9.28-3.76,23.25-.48,29.42,7.31.07.09.2.12.31.07.11-.05.16-.17.14-.28-1.37-6.62-4.86-11.56-10.62-13.52Z"/>
          <path class="cls-1" d="M81.33,162.47c-.02.12-.12.21-.25.21-12.91.14-24.75,3.27-33.97,11.52,8.03-5.56,22.94-7.51,31.53-3.62.11.05.17.17.14.29-.03.12-.13.2-.25.2-10.68-.29-19.28,3.01-25.98,8.96,6.87.42,12.57,4.74,12.56,9.85,0,.12-.08.22-.2.25-.12.02-.23-.04-.28-.14-1.12-2.49-4.75-3.78-8.58-2.88-4.18.98-7,4.19-6.3,7.17.47,2.01,2.44,3.4,4.95,3.79.13.02.22.13.22.26,0,.13-.1.23-.23.25-1.07.1-2.18.11-3.32,0-6.49-.62-11.51-4.59-11.95-9.18-4.71.55-8.88,3.16-10.38,6.77-.04.11-.16.17-.28.15-.12-.02-.2-.11-.21-.23-.38-4.75,1.26-7.84,4.97-10.85-5.38,2.06-11.45,2.16-17.26-.54-.11-.05-.16-.17-.14-.28.02-.12.12-.2.24-.2,4.88-.19,8.42-1.76,11.73-5.07-18.26,5.13-33.09-6.2-27.95-23.05.04-.12.15-.19.27-.18s.22.11.23.23c.92,9.71,7.7,16.12,17.86,17.08-5.39-2.06-11-6.97-11.56-15.53,0-.12.07-.23.19-.26.12-.03.24.03.29.14,2.8,6.15,8.3,9.26,14.16,9.81-6.33-2.58-10.4-8.6-11.57-16.42-.02-.12.05-.24.17-.28.12-.04.25.02.3.13,3.87,7.58,12.16,12.79,22.45,8.81,10.62-4.11,15.27-16.38,16.3-25.04.02-.12.12-.22.24-.22.12,0,.23.08.26.2,3.72,15.69-3.58,31.95-16.64,38.84,7.1-2,13.44-6.26,17.03-13.35,8.29-1.02,14-3.86,16.86-9.24.06-.11.18-.16.29-.12.12.04.19.15.18.27-.18,2.11-.94,6.33-4.07,8.27,6.96-.01,12.51.89,17.8,3.01.11.04.18.16.15.28ZM51.84,109c.1.06.23.05.32-.03.09-.08.1-.21.04-.31-1.62-2.8-.14-6.81,3.05-6.81,5.72,0,8.47,10.77,7.6,20.59-2.16-5.75-4.03-8.05-7.35-10.79-.09-.08-.23-.08-.32,0-.09.08-.12.21-.06.32,4.86,9.08,5.9,16.06,5.9,24.08-1.46-5.96-3.2-9.32-8.13-14.38-.09-.09-.22-.1-.32-.03-.1.07-.14.2-.09.31,5.3,11.59,4.89,24.45.95,34.26-.04.1-.01.21.06.28.08.07.19.09.29.04,5.21-2.55,8.26-4.23,12.75-10.39-1.36-7.4-.23-11.05,3.17-17.19-3.94,9.92-1.84,23.89,8.19,29.59.11.06.25.04.32-.06.08-.1.07-.24-.02-.33-3.78-3.96-6.53-10.63-4.16-17.93-1.53,10.39,7.6,19.11,17.78,19.11,9.6,0,16.15-7.51,15.61-14.94-.54-7.37-5.44-10.97-9.67-12.5-.11-.04-.24,0-.3.1-.06.1-.05.23.03.31,5.61,5.69,6.38,16.49-3.58,19.76,5.86-5.06,3.69-16.83-5.69-17.72-.12,0-.23.06-.26.17-.04.11,0,.23.1.3,2.01,1.28,3.68,3.77,3.68,6.57,0,4.67-3.42,6.51-5.68,6.51-3.42,0-6.26-3.26-6.26-8.18,0-5.84,5.26-10.68,12.02-11.43,6.63-.74,12.78,2.15,15.75,6.46.07.1.2.14.31.09.11-.05.17-.17.14-.29-3.02-11.7-16.8-16.88-26.89-9.51,6.61-7.5,17.01-7.61,25.72.09.09.08.22.09.32.01.1-.07.13-.21.07-.31-2.67-5.41-9.25-11.82-18.61-10.88-8.56.86-13.52,9.02-14.52,15.69-.56-8.52,1.39-14.54,8.75-20.14.1-.07.13-.21.07-.32s-.18-.16-.3-.13c-6.79,1.96-12.23,5.42-15.05,12.54,0-6.16,2.14-12.37,7.53-16.51.1-.07.13-.21.07-.32-.05-.11-.18-.16-.29-.13-3.45.98-6.17,2.49-8.14,5.18-1.31-11.1-6.52-17.69-12.53-17.69-4.12,0-7.21,3.03-7.21,7.87,0,2.83,1.49,6.8,4.81,9.02ZM-47.39,200.62c3.16,3.9,9.54,5.39,16.43,3.99-.51,4.3.33,8.79,1.61,11.49.05.11.17.17.29.14s.2-.14.19-.26c-.38-8.77,4.62-15.84,13.45-18.91-6.91,4.76-8.93,14.19-5.64,19.06.07.1.2.14.31.09.11-.04.18-.16.15-.28-.37-2.06.61-4.68,2.71-6.72,2.91-2.81,6.85-3.45,8.81-1.43,1.96,2.03,1.2,5.95-1.71,8.76-1.06,1.03-2.26,1.76-3.45,2.19-.11.04-.18.15-.17.27.01.12.11.21.23.22,6.39.55,10.77-3.25,13.52-7.88,2.8-4.71,7.57-8.41,13.21-7.67.12.02.23-.05.27-.17.04-.11,0-.24-.11-.3-2.8-1.68-5.87-2.38-9.86-1.05,5.79-4.91,14.05-7.74,21.84-5.23.11.04.23,0,.29-.1s.05-.22-.03-.31c-5.91-6.56-17.69-6.7-25.11-1.37,3.04-4.32,7.07-7.49,14.29-8.48.12-.02.21-.11.22-.22.01-.12-.05-.22-.16-.27-8.29-3.08-16.6.04-23.45,8.22,2.99-6.38,7.91-11.49,14.77-14.01.12-.04.18-.16.16-.28-.02-.12-.12-.21-.24-.21-3.94-.08-7.49.86-12.27,3.57,3.51-5.69,2.74-15.64-2.37-22.26-.07-.09-.2-.12-.3-.08-.11.05-.17.16-.15.28,1.18,7.2-1.3,15.33-5.61,19.64,2.15-7.63,0-14.58-5.9-19.64-.07-.06-.17-.08-.26-.04-.09.03-.15.11-.16.2-1.23,9.42-11.77,18.97-20.6,19.78-.12.01-.22.11-.23.24s.07.24.2.26c4.28.97,8.69.49,12.39-1.03-2.66,2.93-5.94,5.11-9.55,6.24-.12.04-.19.15-.18.27.01.12.11.22.23.22,4.51.31,8.92-1.01,12.73-3.54-4.36,6.62-10.98,11.54-19.43,13.51-.12.03-.2.14-.2.26,0,.12.1.22.23.24,11.92,1.3,21.75-3.32,28.22-11.92-1.65,4.9-6.37,9.76-12.95,12.62-5.85,2.55-11.85,2.95-16.42,1.51-.11-.03-.22,0-.29.1-.06.09-.06.22.01.3ZM5.52,125.05c-4.81,10.49-4.46,18.69-.59,29.05.05.12.17.19.29.16s.21-.14.2-.26c-.62-12.62,2.83-21.65,10.3-27.81-8.25,9.85-4.35,29.56,8.82,29.56,9.59,0,17.52-7.98,19.46-17.53.03-.12-.04-.24-.16-.29-.12-.04-.25,0-.31.11-2.84,4.76-7.41,7.85-12.46,7.85-8.13,0-10.54-6.47-10.54-11,0-6.19,4.93-11.34,8.71-11.34,3.44,0,5.04,2.82,5.04,4.93,0,3.9-3,7.17-6.38,8.16-.12.04-.2.15-.18.28s.12.22.25.22c4.11.03,7.58-1.85,9.63-5.57.27,2.88.27,4.69-.64,7.72-.04.12.02.24.12.3.11.05.24.03.32-.07,7.36-9.39,3.84-25.62-1.98-32.36,5.53,3.98,10.42,12.63,10.34,24.39,0,.12.08.23.21.25.12.02.24-.04.28-.15,4.11-10.25,1.93-29.25-9.28-39.85,2.88-.4,5.87-.35,9.12.69.12.04.24-.01.3-.12.06-.11.04-.24-.06-.32-4.09-3.46-9.81-4.54-15.27-4.54,4.7,5.5,3.14,16.55-4.35,16.55-5.35,0-7.78-8.3-3.65-12.78.08-.09.09-.21.03-.31-.06-.1-.19-.14-.3-.1-4.78,1.66-9.95,5.79-9.95,11.02s4.81,9.39,11.8,9.05c-8.82,2.5-18.05-.27-22.88-6.25-.07-.09-.2-.12-.31-.07-.11.05-.16.17-.13.29,2.79,10.71,11.97,15.2,23.44,13.71-9.28,3.76-23.25.48-29.42-7.31-.07-.09-.2-.12-.31-.07-.11.05-.16.17-.14.28,1.37,6.62,4.86,11.56,10.62,13.52Z"/>
        </g>
        <g>
          <path class="cls-24" d="M87.47,34.69c.02-.12.12-.21.25-.21,12.91-.13,24.75-3.27,33.97-11.51-8.03,5.56-22.94,7.51-31.53,3.62-.11-.05-.17-.17-.14-.29.03-.12.13-.2.25-.2,10.68.29,19.28-3.01,25.98-8.96-6.87-.42-12.57-4.74-12.56-9.84,0-.12.08-.22.2-.25.12-.03.23.04.28.14,1.12,2.49,4.75,3.78,8.58,2.88,4.18-.98,7-4.19,6.3-7.16-.47-2.01-2.44-3.4-4.95-3.79-.13-.02-.22-.13-.22-.26,0-.13.1-.23.23-.25,1.07-.1,2.18-.11,3.32,0,6.49.62,11.51,4.6,11.95,9.18,4.71-.55,8.88-3.16,10.38-6.77.04-.11.16-.17.28-.15.12.02.2.11.21.23.38,4.75-1.26,7.84-4.97,10.85,5.38-2.06,11.45-2.16,17.26.54.11.05.16.16.14.28-.02.12-.12.2-.24.2-4.88.19-8.42,1.76-11.73,5.07,18.25-5.13,33.09,6.2,27.95,23.05-.04.12-.15.19-.27.18-.12-.01-.22-.11-.23-.23-.92-9.71-7.7-16.12-17.86-17.08,5.39,2.06,11,6.98,11.56,15.53,0,.12-.07.23-.19.26-.12.03-.24-.03-.29-.14-2.8-6.15-8.3-9.27-14.16-9.81,6.33,2.58,10.4,8.6,11.57,16.42.02.12-.05.24-.17.28-.12.04-.25-.02-.3-.12-3.87-7.58-12.16-12.79-22.45-8.81-10.62,4.11-15.27,16.39-16.3,25.04-.02.12-.12.21-.24.22s-.23-.07-.26-.2c-3.72-15.69,3.58-31.95,16.64-38.84-7.1,2-13.44,6.26-17.03,13.35-8.29,1.02-14,3.86-16.86,9.24-.06.11-.18.16-.29.12-.12-.03-.19-.14-.18-.27.18-2.11.94-6.33,4.07-8.27-6.96.01-12.51-.89-17.8-3.01-.11-.05-.18-.16-.15-.28ZM116.96,88.17c-.1-.07-.23-.05-.32.03-.09.08-.1.21-.04.31,1.62,2.8.14,6.81-3.05,6.81-5.72,0-8.47-10.77-7.6-20.59,2.16,5.76,4.03,8.05,7.35,10.79.09.08.23.08.32,0,.09-.08.12-.21.06-.32-4.86-9.08-5.9-16.07-5.9-24.09,1.46,5.96,3.2,9.32,8.13,14.38.09.09.22.1.32.03.1-.07.14-.2.09-.32-5.3-11.59-4.89-24.45-.95-34.26.04-.1.01-.21-.06-.28-.08-.07-.19-.09-.29-.04-5.21,2.55-8.26,4.23-12.75,10.39,1.36,7.4.23,11.05-3.17,17.2,3.94-9.92,1.84-23.89-8.19-29.59-.11-.06-.25-.03-.32.06-.08.1-.07.24.02.33,3.78,3.96,6.53,10.63,4.16,17.93,1.53-10.39-7.6-19.12-17.78-19.12-9.6,0-16.15,7.51-15.61,14.94.54,7.37,5.44,10.97,9.67,12.5.11.04.24,0,.3-.1.06-.1.05-.23-.03-.32-5.61-5.69-6.38-16.49,3.58-19.76-5.86,5.06-3.69,16.83,5.69,17.72.12.01.23-.06.26-.17s0-.23-.1-.3c-2.01-1.28-3.68-3.77-3.68-6.57,0-4.67,3.42-6.51,5.68-6.51,3.42,0,6.26,3.26,6.26,8.18,0,5.84-5.26,10.68-12.02,11.44-6.63.73-12.78-2.15-15.75-6.46-.07-.1-.2-.14-.31-.09s-.17.18-.14.29c3.02,11.7,16.8,16.88,26.89,9.51-6.61,7.5-17.01,7.61-25.72-.09-.09-.08-.23-.08-.32,0-.1.07-.13.21-.07.31,2.67,5.41,9.25,11.82,18.61,10.88,8.56-.86,13.52-9.01,14.52-15.69.56,8.52-1.39,14.54-8.75,20.15-.1.07-.13.21-.07.32.05.11.18.16.3.13,6.79-1.96,12.23-5.43,15.05-12.54,0,6.16-2.14,12.37-7.53,16.51-.1.07-.13.21-.07.31s.18.16.3.13c3.45-.98,6.17-2.49,8.14-5.19,1.31,11.1,6.52,17.69,12.52,17.69,4.12,0,7.2-3.03,7.2-7.87,0-2.83-1.49-6.8-4.81-9.02ZM216.19-3.45c-3.16-3.9-9.54-5.39-16.43-3.99.51-4.3-.33-8.79-1.61-11.48-.05-.11-.17-.17-.29-.14-.12.03-.2.14-.19.26.37,8.77-4.62,15.84-13.45,18.91,6.91-4.76,8.93-14.19,5.64-19.07-.07-.1-.2-.14-.31-.09-.11.04-.18.16-.15.28.37,2.06-.61,4.68-2.71,6.73-2.91,2.81-6.85,3.45-8.81,1.43-1.96-2.03-1.2-5.95,1.71-8.76,1.06-1.03,2.26-1.76,3.45-2.18.11-.04.18-.15.17-.27-.01-.12-.11-.21-.23-.22-6.39-.55-10.77,3.25-13.52,7.88-2.79,4.71-7.57,8.41-13.21,7.67-.12-.02-.23.05-.27.17-.04.11,0,.24.11.3,2.8,1.68,5.87,2.38,9.86,1.05-5.79,4.91-14.05,7.74-21.84,5.23-.11-.04-.23,0-.29.1-.06.1-.05.22.03.31,5.91,6.56,17.69,6.7,25.11,1.37-3.04,4.32-7.07,7.48-14.29,8.48-.12.02-.2.11-.22.22-.01.12.05.23.16.27,8.29,3.08,16.6-.04,23.45-8.21-2.99,6.38-7.91,11.48-14.77,14.01-.12.04-.18.16-.16.28.02.12.12.21.24.21,3.94.08,7.49-.86,12.27-3.57-3.51,5.69-2.74,15.64,2.37,22.26.07.09.2.12.3.08.11-.05.17-.16.15-.27-1.18-7.2,1.3-15.33,5.61-19.64-2.15,7.63,0,14.58,5.9,19.64.07.06.17.08.26.04.09-.03.15-.11.16-.2,1.23-9.42,11.77-18.97,20.6-19.78.12-.01.22-.11.23-.24s-.07-.24-.2-.26c-4.28-.97-8.69-.49-12.39,1.03,2.66-2.93,5.94-5.11,9.56-6.25.12-.04.19-.15.18-.27-.01-.12-.11-.21-.23-.22-4.51-.31-8.92,1.01-12.73,3.54,4.36-6.62,10.98-11.54,19.43-13.51.12-.03.2-.14.2-.26,0-.12-.1-.22-.23-.24-11.92-1.3-21.75,3.32-28.22,11.92,1.65-4.9,6.37-9.76,12.95-12.62,5.85-2.54,11.85-2.95,16.42-1.51.11.03.22,0,.29-.1.06-.09.06-.21-.01-.3ZM163.28,72.12c4.81-10.49,4.46-18.69.59-29.05-.04-.12-.17-.18-.29-.16-.12.03-.21.14-.2.26.62,12.62-2.83,21.65-10.3,27.81,8.25-9.85,4.35-29.56-8.82-29.56-9.59,0-17.52,7.98-19.45,17.52-.03.12.04.24.16.29.12.04.25,0,.31-.11,2.84-4.76,7.41-7.85,12.46-7.85,8.13,0,10.54,6.47,10.54,11,0,6.19-4.93,11.34-8.71,11.34-3.44,0-5.04-2.82-5.04-4.93,0-3.9,3-7.17,6.38-8.16.12-.04.2-.15.18-.28-.02-.12-.12-.22-.25-.22-4.11-.03-7.58,1.86-9.63,5.57-.27-2.87-.27-4.69.64-7.72.04-.12-.02-.24-.12-.3-.11-.06-.24-.03-.32.07-7.36,9.39-3.84,25.62,1.98,32.36-5.53-3.98-10.42-12.63-10.34-24.39,0-.12-.08-.23-.21-.25-.12-.03-.24.04-.28.15-4.11,10.25-1.93,29.25,9.28,39.85-2.88.4-5.87.35-9.12-.69-.12-.04-.24.01-.3.12-.06.11-.04.24.06.32,4.09,3.46,9.81,4.54,15.27,4.54-4.7-5.5-3.14-16.55,4.36-16.55,5.35,0,7.78,8.3,3.65,12.78-.08.09-.09.21-.03.31.06.1.19.14.3.1,4.78-1.65,9.95-5.79,9.95-11.02s-4.81-9.39-11.8-9.05c8.82-2.51,18.05.27,22.88,6.25.07.09.21.12.31.07.11-.05.16-.18.13-.29-2.79-10.72-11.97-15.2-23.44-13.71,9.28-3.76,23.25-.48,29.42,7.31.07.09.2.12.31.07.11-.05.16-.17.14-.28-1.37-6.62-4.86-11.56-10.62-13.52Z"/>
          <path class="cls-1" d="M189.67,52.83c-.02.12-.12.21-.25.21-12.91.14-24.75,3.27-33.97,11.52,8.03-5.56,22.94-7.51,31.53-3.62.11.05.17.17.14.29-.03.12-.13.2-.25.2-10.68-.29-19.28,3.01-25.98,8.96,6.87.42,12.57,4.74,12.56,9.85,0,.12-.08.22-.2.25-.12.02-.23-.04-.28-.14-1.12-2.49-4.75-3.78-8.58-2.88-4.18.98-7,4.19-6.3,7.17.47,2.01,2.44,3.4,4.95,3.79.13.02.22.13.22.26,0,.13-.1.23-.23.25-1.07.1-2.18.11-3.32,0-6.49-.62-11.51-4.59-11.95-9.18-4.71.55-8.88,3.16-10.38,6.77-.04.11-.16.17-.28.15-.12-.02-.2-.11-.21-.23-.38-4.75,1.26-7.84,4.97-10.85-5.38,2.06-11.45,2.16-17.26-.54-.11-.05-.16-.17-.14-.28.02-.12.12-.2.24-.2,4.88-.19,8.42-1.76,11.73-5.07-18.26,5.13-33.09-6.2-27.96-23.05.04-.12.15-.19.27-.18s.22.11.23.23c.92,9.71,7.7,16.12,17.86,17.08-5.39-2.06-11-6.97-11.56-15.53,0-.12.07-.23.19-.26.12-.03.24.03.29.14,2.8,6.15,8.3,9.26,14.16,9.81-6.33-2.58-10.4-8.6-11.57-16.42-.02-.12.05-.24.17-.28.12-.04.25.02.3.13,3.87,7.58,12.16,12.79,22.45,8.81,10.62-4.11,15.27-16.38,16.3-25.04.02-.12.12-.22.24-.22.12,0,.23.08.26.2,3.72,15.69-3.58,31.95-16.64,38.84,7.1-2,13.44-6.26,17.03-13.35,8.29-1.02,14-3.86,16.86-9.24.06-.11.18-.16.29-.12.12.04.19.15.18.27-.18,2.11-.94,6.33-4.07,8.27,6.96-.01,12.51.89,17.8,3.01.11.04.18.16.15.28ZM160.18-.64c.1.06.23.05.32-.03.09-.08.1-.21.04-.31-1.62-2.8-.14-6.81,3.05-6.81,5.72,0,8.47,10.77,7.6,20.59-2.16-5.75-4.03-8.05-7.35-10.79-.09-.08-.23-.08-.32,0-.09.08-.12.21-.06.32,4.86,9.08,5.9,16.06,5.9,24.08-1.46-5.96-3.2-9.32-8.13-14.38-.09-.09-.22-.1-.32-.03-.1.07-.14.2-.09.31,5.3,11.59,4.89,24.45.95,34.26-.04.1-.01.21.06.28.08.07.19.09.29.04,5.21-2.55,8.26-4.23,12.75-10.39-1.36-7.4-.23-11.05,3.17-17.19-3.94,9.92-1.84,23.89,8.19,29.59.11.06.25.04.32-.06.08-.1.07-.24-.02-.33-3.78-3.96-6.53-10.63-4.16-17.93-1.53,10.39,7.6,19.11,17.78,19.11,9.6,0,16.15-7.51,15.61-14.94-.54-7.37-5.44-10.97-9.67-12.5-.11-.04-.24,0-.3.1-.06.1-.05.23.03.31,5.61,5.69,6.38,16.49-3.58,19.76,5.86-5.06,3.69-16.83-5.69-17.72-.12,0-.23.06-.26.17-.04.11,0,.23.1.29,2.01,1.28,3.68,3.77,3.68,6.57,0,4.67-3.42,6.51-5.68,6.51-3.42,0-6.26-3.26-6.26-8.18,0-5.84,5.26-10.68,12.02-11.43,6.63-.74,12.78,2.15,15.75,6.46.07.1.2.14.31.09.11-.05.17-.17.14-.29-3.02-11.7-16.8-16.88-26.89-9.51,6.61-7.5,17.01-7.61,25.72.09.09.08.22.09.32.01.1-.07.13-.21.07-.31-2.67-5.41-9.25-11.82-18.61-10.88-8.56.86-13.52,9.02-14.52,15.69-.56-8.52,1.39-14.54,8.75-20.14.1-.07.13-.21.07-.32-.05-.11-.18-.16-.3-.13-6.79,1.96-12.23,5.42-15.05,12.54,0-6.16,2.14-12.37,7.53-16.51.1-.07.13-.21.07-.32-.05-.11-.18-.16-.29-.13-3.45.98-6.17,2.49-8.14,5.18-1.31-11.1-6.52-17.69-12.53-17.69-4.12,0-7.21,3.03-7.21,7.87,0,2.83,1.49,6.8,4.81,9.02ZM60.95,90.98c3.16,3.9,9.54,5.39,16.43,3.99-.51,4.3.33,8.79,1.61,11.49.05.11.17.17.29.14.12-.03.2-.14.19-.26-.37-8.77,4.62-15.84,13.45-18.91-6.91,4.76-8.93,14.19-5.64,19.06.07.1.2.14.31.09.11-.04.18-.16.15-.28-.37-2.06.61-4.68,2.71-6.72,2.91-2.81,6.85-3.45,8.81-1.43,1.96,2.03,1.2,5.95-1.71,8.76-1.06,1.03-2.26,1.76-3.45,2.19-.11.04-.18.15-.17.27.01.12.11.21.23.22,6.39.55,10.77-3.25,13.52-7.88,2.79-4.71,7.57-8.41,13.21-7.67.12.02.23-.05.27-.17.04-.11,0-.24-.11-.3-2.8-1.68-5.87-2.38-9.86-1.05,5.8-4.91,14.05-7.74,21.84-5.23.11.04.23,0,.29-.1.06-.1.05-.22-.03-.31-5.91-6.56-17.69-6.7-25.11-1.37,3.04-4.32,7.07-7.49,14.29-8.48.12-.02.21-.11.22-.22.01-.12-.05-.22-.16-.27-8.29-3.08-16.6.04-23.45,8.22,2.99-6.38,7.91-11.49,14.77-14.01.12-.04.18-.16.16-.28-.02-.12-.12-.21-.24-.21-3.94-.08-7.49.86-12.26,3.57,3.51-5.69,2.74-15.64-2.37-22.26-.07-.09-.2-.12-.3-.08-.11.05-.17.16-.15.28,1.18,7.2-1.3,15.33-5.61,19.64,2.15-7.63,0-14.58-5.9-19.64-.07-.06-.17-.08-.26-.04-.09.03-.15.11-.16.2-1.23,9.42-11.77,18.97-20.6,19.78-.12.01-.22.11-.23.24,0,.12.07.24.2.26,4.28.97,8.69.49,12.39-1.03-2.66,2.93-5.94,5.11-9.55,6.24-.12.04-.19.15-.18.27.01.12.11.22.23.22,4.51.31,8.92-1.01,12.73-3.54-4.36,6.62-10.98,11.54-19.43,13.51-.12.03-.2.14-.2.26,0,.12.1.22.23.24,11.92,1.3,21.75-3.32,28.22-11.92-1.65,4.9-6.37,9.76-12.95,12.62-5.85,2.54-11.85,2.95-16.42,1.51-.11-.03-.22,0-.29.1-.06.09-.06.22.01.3ZM113.86,15.41c-4.81,10.49-4.46,18.69-.59,29.05.04.12.17.19.29.16.12-.03.21-.14.2-.26-.62-12.62,2.83-21.65,10.3-27.81-8.25,9.85-4.35,29.56,8.82,29.56,9.59,0,17.52-7.98,19.46-17.53.03-.12-.04-.24-.16-.29-.12-.04-.25,0-.31.11-2.84,4.76-7.41,7.85-12.46,7.85-8.13,0-10.54-6.47-10.54-11,0-6.19,4.93-11.34,8.71-11.34,3.44,0,5.04,2.82,5.04,4.93,0,3.9-3,7.17-6.37,8.16-.12.04-.2.15-.18.28.02.12.12.22.25.22,4.11.03,7.58-1.85,9.63-5.57.27,2.87.27,4.69-.64,7.72-.04.12.02.24.12.3.11.05.24.03.32-.07,7.36-9.39,3.84-25.62-1.98-32.36,5.53,3.98,10.42,12.63,10.34,24.39,0,.12.08.23.21.25.12.02.24-.04.28-.15,4.11-10.25,1.93-29.25-9.28-39.85,2.88-.4,5.87-.35,9.12.69.12.04.24-.01.3-.12.06-.11.04-.24-.06-.32-4.09-3.46-9.81-4.54-15.27-4.54,4.7,5.5,3.14,16.55-4.35,16.55-5.35,0-7.78-8.3-3.65-12.78.08-.09.09-.21.03-.31-.06-.1-.19-.14-.3-.1-4.78,1.66-9.95,5.79-9.95,11.02s4.81,9.39,11.8,9.05c-8.82,2.5-18.05-.27-22.88-6.25-.07-.09-.2-.12-.31-.07-.11.05-.16.17-.13.29,2.79,10.71,11.97,15.2,23.44,13.71-9.28,3.76-23.25.48-29.42-7.31-.07-.09-.2-.12-.31-.07-.11.05-.16.17-.14.28,1.37,6.62,4.86,11.56,10.62,13.52Z"/>
        </g>
        <g>
          <path class="cls-24" d="M-20.86,34.69c.02-.12.12-.21.25-.21,12.91-.13,24.75-3.27,33.97-11.51-8.03,5.56-22.94,7.51-31.53,3.62-.11-.05-.17-.17-.14-.29.03-.12.13-.2.25-.2,10.68.29,19.28-3.01,25.98-8.96-6.87-.42-12.57-4.74-12.56-9.84,0-.12.08-.22.2-.25.12-.03.23.04.28.14,1.12,2.49,4.75,3.78,8.58,2.88,4.18-.98,7-4.19,6.3-7.16-.47-2.01-2.44-3.4-4.95-3.79-.13-.02-.22-.13-.22-.26,0-.13.1-.23.23-.25,1.07-.1,2.18-.11,3.32,0,6.49.62,11.51,4.6,11.95,9.18,4.71-.55,8.88-3.16,10.38-6.77.04-.11.16-.17.28-.15.12.02.2.11.21.23.38,4.75-1.26,7.84-4.97,10.85,5.38-2.06,11.45-2.16,17.26.54.11.05.16.16.14.28-.02.12-.12.2-.24.2-4.88.19-8.42,1.76-11.73,5.07,18.25-5.13,33.09,6.2,27.95,23.05-.04.12-.15.19-.27.18-.12-.01-.22-.11-.23-.23-.92-9.71-7.7-16.12-17.86-17.08,5.39,2.06,11,6.98,11.56,15.53,0,.12-.07.23-.19.26-.12.03-.24-.03-.29-.14-2.8-6.15-8.3-9.27-14.16-9.81,6.33,2.58,10.4,8.6,11.57,16.42.02.12-.05.24-.17.28-.12.04-.25-.02-.3-.12-3.87-7.58-12.16-12.79-22.45-8.81-10.62,4.11-15.27,16.39-16.3,25.04-.02.12-.12.21-.24.22-.12,0-.23-.07-.26-.2-3.72-15.69,3.58-31.95,16.64-38.84-7.1,2-13.44,6.26-17.03,13.35-8.29,1.02-14,3.86-16.86,9.24-.06.11-.18.16-.29.12-.12-.03-.19-.14-.18-.27.18-2.11.94-6.33,4.07-8.27-6.97.01-12.51-.89-17.8-3.01-.11-.05-.18-.16-.15-.28ZM8.62,88.17c-.1-.07-.23-.05-.32.03-.09.08-.1.21-.04.31,1.62,2.8.14,6.81-3.05,6.81-5.72,0-8.47-10.77-7.6-20.59,2.16,5.76,4.03,8.05,7.35,10.79.09.08.23.08.32,0,.09-.08.12-.21.06-.32C.49,76.12-.55,69.14-.55,61.12c1.46,5.96,3.2,9.32,8.13,14.38.09.09.22.1.32.03.1-.07.14-.2.09-.32-5.3-11.59-4.89-24.45-.95-34.26.04-.1.01-.21-.06-.28-.08-.07-.19-.09-.29-.04-5.21,2.55-8.26,4.23-12.75,10.39,1.36,7.4.23,11.05-3.17,17.2,3.94-9.92,1.84-23.89-8.19-29.59-.11-.06-.25-.03-.32.06-.08.1-.07.24.02.33,3.78,3.96,6.53,10.63,4.16,17.93,1.53-10.39-7.6-19.12-17.78-19.12-9.6,0-16.15,7.51-15.61,14.94.54,7.37,5.44,10.97,9.67,12.5.11.04.24,0,.3-.1.06-.1.05-.23-.03-.32-5.61-5.69-6.38-16.49,3.58-19.76-5.86,5.06-3.69,16.83,5.69,17.72.12.01.23-.06.26-.17s0-.23-.1-.3c-2.01-1.28-3.68-3.77-3.68-6.57,0-4.67,3.42-6.51,5.68-6.51,3.42,0,6.26,3.26,6.26,8.18,0,5.84-5.26,10.68-12.02,11.44-6.63.73-12.78-2.15-15.75-6.46-.07-.1-.2-.14-.31-.09-.11.05-.17.18-.14.29,3.02,11.7,16.8,16.88,26.89,9.51-6.61,7.5-17.01,7.61-25.72-.09-.09-.08-.23-.08-.32,0-.1.07-.13.21-.07.31,2.67,5.41,9.25,11.82,18.61,10.88,8.56-.86,13.52-9.01,14.52-15.69.56,8.52-1.39,14.54-8.75,20.15-.1.07-.13.21-.07.32.05.11.18.16.3.13,6.79-1.96,12.23-5.43,15.05-12.54,0,6.16-2.14,12.37-7.53,16.51-.1.07-.13.21-.07.31s.18.16.3.13c3.45-.98,6.17-2.49,8.14-5.19,1.31,11.1,6.52,17.69,12.53,17.69,4.12,0,7.21-3.03,7.21-7.87,0-2.83-1.49-6.8-4.81-9.02ZM107.85-3.45c-3.16-3.9-9.54-5.39-16.43-3.99.51-4.3-.33-8.79-1.61-11.48-.05-.11-.17-.17-.29-.14-.12.03-.2.14-.19.26.37,8.77-4.62,15.84-13.45,18.91,6.91-4.76,8.93-14.19,5.64-19.07-.07-.1-.2-.14-.31-.09-.11.04-.18.16-.15.28.37,2.06-.61,4.68-2.71,6.73-2.91,2.81-6.85,3.45-8.81,1.43-1.96-2.03-1.2-5.95,1.71-8.76,1.06-1.03,2.26-1.76,3.45-2.18.11-.04.18-.15.17-.27-.01-.12-.11-.21-.23-.22-6.39-.55-10.77,3.25-13.52,7.88-2.79,4.71-7.57,8.41-13.21,7.67-.12-.02-.23.05-.27.17-.04.11,0,.24.11.3,2.8,1.68,5.87,2.38,9.86,1.05C51.8-.08,43.55,2.75,35.75.24c-.11-.04-.23,0-.29.1-.06.1-.05.22.03.31,5.91,6.56,17.69,6.7,25.11,1.37-3.04,4.32-7.07,7.48-14.29,8.48-.12.02-.2.11-.22.22-.01.12.05.23.16.27,8.29,3.08,16.6-.04,23.45-8.21-2.99,6.38-7.91,11.48-14.77,14.01-.12.04-.18.16-.16.28.02.12.12.21.24.21,3.94.08,7.49-.86,12.27-3.57-3.51,5.69-2.74,15.64,2.37,22.26.07.09.2.12.3.08.11-.05.17-.16.15-.27-1.18-7.2,1.3-15.33,5.61-19.64-2.15,7.63,0,14.58,5.9,19.64.07.06.17.08.26.04.09-.03.15-.11.16-.2,1.23-9.42,11.77-18.97,20.6-19.78.12-.01.22-.11.23-.24s-.07-.24-.2-.26c-4.28-.97-8.69-.49-12.39,1.03,2.66-2.93,5.94-5.11,9.55-6.25.12-.04.19-.15.18-.27-.01-.12-.11-.21-.23-.22-4.51-.31-8.92,1.01-12.73,3.54,4.36-6.62,10.98-11.54,19.43-13.51.12-.03.2-.14.2-.26,0-.12-.1-.22-.23-.24-11.92-1.3-21.75,3.32-28.22,11.92,1.65-4.9,6.37-9.76,12.95-12.62,5.85-2.54,11.85-2.95,16.42-1.51.11.03.22,0,.29-.1.06-.09.06-.21-.01-.3ZM54.94,72.12c4.81-10.49,4.46-18.69.59-29.05-.04-.12-.17-.18-.29-.16-.12.03-.21.14-.2.26.62,12.62-2.83,21.65-10.3,27.81,8.25-9.85,4.35-29.56-8.82-29.56-9.59,0-17.52,7.98-19.45,17.52-.03.12.04.24.16.29.12.04.25,0,.31-.11,2.84-4.76,7.41-7.85,12.46-7.85,8.13,0,10.54,6.47,10.54,11,0,6.19-4.93,11.34-8.71,11.34-3.44,0-5.04-2.82-5.04-4.93,0-3.9,3-7.17,6.38-8.16.12-.04.2-.15.18-.28-.02-.12-.12-.22-.25-.22-4.11-.03-7.58,1.86-9.63,5.57-.27-2.87-.27-4.69.64-7.72.04-.12-.02-.24-.12-.3-.11-.06-.24-.03-.32.07-7.36,9.39-3.84,25.62,1.98,32.36-5.53-3.98-10.42-12.63-10.34-24.39,0-.12-.08-.23-.2-.25-.12-.03-.24.04-.28.15-4.11,10.25-1.93,29.25,9.28,39.85-2.88.4-5.87.35-9.12-.69-.12-.04-.24.01-.3.12-.06.11-.04.24.06.32,4.09,3.46,9.81,4.54,15.27,4.54-4.7-5.5-3.14-16.55,4.36-16.55,5.35,0,7.78,8.3,3.65,12.78-.08.09-.09.21-.03.31.06.1.19.14.3.1,4.78-1.65,9.95-5.79,9.95-11.02s-4.81-9.39-11.8-9.05c8.82-2.51,18.05.27,22.88,6.25.07.09.21.12.31.07.11-.05.16-.18.13-.29-2.79-10.72-11.97-15.2-23.44-13.71,9.28-3.76,23.25-.48,29.42,7.31.07.09.2.12.31.07.11-.05.16-.17.14-.28-1.37-6.62-4.86-11.56-10.62-13.52Z"/>
          <path class="cls-1" d="M81.33,52.83c-.02.12-.12.21-.25.21-12.91.14-24.75,3.27-33.97,11.52,8.03-5.56,22.94-7.51,31.53-3.62.11.05.17.17.14.29-.03.12-.13.2-.25.2-10.68-.29-19.28,3.01-25.98,8.96,6.87.42,12.57,4.74,12.56,9.85,0,.12-.08.22-.2.25-.12.02-.23-.04-.28-.14-1.12-2.49-4.75-3.78-8.58-2.88-4.18.98-7,4.19-6.3,7.17.47,2.01,2.44,3.4,4.95,3.79.13.02.22.13.22.26,0,.13-.1.23-.23.25-1.07.1-2.18.11-3.32,0-6.49-.62-11.51-4.59-11.95-9.18-4.71.55-8.88,3.16-10.38,6.77-.04.11-.16.17-.28.15-.12-.02-.2-.11-.21-.23-.38-4.75,1.26-7.84,4.97-10.85-5.38,2.06-11.45,2.16-17.26-.54-.11-.05-.16-.17-.14-.28.02-.12.12-.2.24-.2,4.88-.19,8.42-1.76,11.73-5.07C9.82,74.61-5.01,63.28.12,46.43c.04-.12.15-.19.27-.18s.22.11.23.23c.92,9.71,7.7,16.12,17.86,17.08-5.39-2.06-11-6.97-11.56-15.53,0-.12.07-.23.19-.26.12-.03.24.03.29.14,2.8,6.15,8.3,9.26,14.16,9.81-6.33-2.58-10.4-8.6-11.57-16.42-.02-.12.05-.24.17-.28.12-.04.25.02.3.13,3.87,7.58,12.16,12.79,22.45,8.81,10.62-4.11,15.27-16.38,16.3-25.04.02-.12.12-.22.24-.22.12,0,.23.08.26.2,3.72,15.69-3.58,31.95-16.64,38.84,7.1-2,13.44-6.26,17.03-13.35,8.29-1.02,14-3.86,16.86-9.24.06-.11.18-.16.29-.12.12.04.19.15.18.27-.18,2.11-.94,6.33-4.07,8.27,6.96-.01,12.51.89,17.8,3.01.11.04.18.16.15.28ZM51.84-.64c.1.06.23.05.32-.03.09-.08.1-.21.04-.31-1.62-2.8-.14-6.81,3.05-6.81,5.72,0,8.47,10.77,7.6,20.59-2.16-5.75-4.03-8.05-7.35-10.79-.09-.08-.23-.08-.32,0-.09.08-.12.21-.06.32,4.86,9.08,5.9,16.06,5.9,24.08-1.46-5.96-3.2-9.32-8.13-14.38-.09-.09-.22-.1-.32-.03-.1.07-.14.2-.09.31,5.3,11.59,4.89,24.45.95,34.26-.04.1-.01.21.06.28.08.07.19.09.29.04,5.21-2.55,8.26-4.23,12.75-10.39-1.36-7.4-.23-11.05,3.17-17.19-3.94,9.92-1.84,23.89,8.19,29.59.11.06.25.04.32-.06.08-.1.07-.24-.02-.33-3.78-3.96-6.53-10.63-4.16-17.93-1.53,10.39,7.6,19.11,17.78,19.11,9.6,0,16.15-7.51,15.61-14.94-.54-7.37-5.44-10.97-9.67-12.5-.11-.04-.24,0-.3.1-.06.1-.05.23.03.31,5.61,5.69,6.38,16.49-3.58,19.76,5.86-5.06,3.69-16.83-5.69-17.72-.12,0-.23.06-.26.17-.04.11,0,.23.1.29,2.01,1.28,3.68,3.77,3.68,6.57,0,4.67-3.42,6.51-5.68,6.51-3.42,0-6.26-3.26-6.26-8.18,0-5.84,5.26-10.68,12.02-11.43,6.63-.74,12.78,2.15,15.75,6.46.07.1.2.14.31.09.11-.05.17-.17.14-.29-3.02-11.7-16.8-16.88-26.89-9.51,6.61-7.5,17.01-7.61,25.72.09.09.08.22.09.32.01.1-.07.13-.21.07-.31-2.67-5.41-9.25-11.82-18.61-10.88-8.56.86-13.52,9.02-14.52,15.69-.56-8.52,1.39-14.54,8.75-20.14.1-.07.13-.21.07-.32s-.18-.16-.3-.13c-6.79,1.96-12.23,5.42-15.05,12.54,0-6.16,2.14-12.37,7.53-16.51.1-.07.13-.21.07-.32-.05-.11-.18-.16-.29-.13-3.45.98-6.17,2.49-8.14,5.18-1.31-11.1-6.52-17.69-12.53-17.69-4.12,0-7.21,3.03-7.21,7.87,0,2.83,1.49,6.8,4.81,9.02ZM-47.39,90.98c3.16,3.9,9.54,5.39,16.43,3.99-.51,4.3.33,8.79,1.61,11.49.05.11.17.17.29.14s.2-.14.19-.26c-.38-8.77,4.62-15.84,13.45-18.91-6.91,4.76-8.93,14.19-5.64,19.06.07.1.2.14.31.09.11-.04.18-.16.15-.28-.37-2.06.61-4.68,2.71-6.72,2.91-2.81,6.85-3.45,8.81-1.43,1.96,2.03,1.2,5.95-1.71,8.76-1.06,1.03-2.26,1.76-3.45,2.19-.11.04-.18.15-.17.27.01.12.11.21.23.22,6.39.55,10.77-3.25,13.52-7.88,2.8-4.71,7.57-8.41,13.21-7.67.12.02.23-.05.27-.17.04-.11,0-.24-.11-.3-2.8-1.68-5.87-2.38-9.86-1.05,5.79-4.91,14.05-7.74,21.84-5.23.11.04.23,0,.29-.1.06-.1.05-.22-.03-.31-5.91-6.56-17.69-6.7-25.11-1.37,3.04-4.32,7.07-7.49,14.29-8.48.12-.02.21-.11.22-.22.01-.12-.05-.22-.16-.27-8.29-3.08-16.6.04-23.45,8.22,2.99-6.38,7.91-11.49,14.77-14.01.12-.04.18-.16.16-.28-.02-.12-.12-.21-.24-.21-3.94-.08-7.49.86-12.27,3.57,3.51-5.69,2.74-15.64-2.37-22.26-.07-.09-.2-.12-.3-.08-.11.05-.17.16-.15.28,1.18,7.2-1.3,15.33-5.61,19.64,2.15-7.63,0-14.58-5.9-19.64-.07-.06-.17-.08-.26-.04-.09.03-.15.11-.16.2-1.23,9.42-11.77,18.97-20.6,19.78-.12.01-.22.11-.23.24s.07.24.2.26c4.28.97,8.69.49,12.39-1.03-2.66,2.93-5.94,5.11-9.55,6.24-.12.04-.19.15-.18.27.01.12.11.22.23.22,4.51.31,8.92-1.01,12.73-3.54-4.36,6.62-10.98,11.54-19.43,13.51-.12.03-.2.14-.2.26,0,.12.1.22.23.24,11.92,1.3,21.75-3.32,28.22-11.92-1.65,4.9-6.37,9.76-12.95,12.62-5.85,2.54-11.85,2.95-16.42,1.51-.11-.03-.22,0-.29.1-.06.09-.06.22.01.3ZM5.52,15.41c-4.81,10.49-4.46,18.69-.59,29.05.05.12.17.19.29.16s.21-.14.2-.26c-.62-12.62,2.83-21.65,10.3-27.81-8.25,9.85-4.35,29.56,8.82,29.56,9.59,0,17.52-7.98,19.46-17.53.03-.12-.04-.24-.16-.29-.12-.04-.25,0-.31.11-2.84,4.76-7.41,7.85-12.46,7.85-8.13,0-10.54-6.47-10.54-11,0-6.19,4.93-11.34,8.71-11.34,3.44,0,5.04,2.82,5.04,4.93,0,3.9-3,7.17-6.38,8.16-.12.04-.2.15-.18.28s.12.22.25.22c4.11.03,7.58-1.85,9.63-5.57.27,2.87.27,4.69-.64,7.72-.04.12.02.24.12.3.11.05.24.03.32-.07,7.36-9.39,3.84-25.62-1.98-32.36,5.53,3.98,10.42,12.63,10.34,24.39,0,.12.08.23.21.25.12.02.24-.04.28-.15,4.11-10.25,1.93-29.25-9.28-39.85,2.88-.4,5.87-.35,9.12.69.12.04.24-.01.3-.12.06-.11.04-.24-.06-.32-4.09-3.46-9.81-4.54-15.27-4.54,4.7,5.5,3.14,16.55-4.35,16.55-5.35,0-7.78-8.3-3.65-12.78.08-.09.09-.21.03-.31-.06-.1-.19-.14-.3-.1-4.78,1.66-9.95,5.79-9.95,11.02S17.66,1.66,24.65,1.32C15.83,3.82,6.6,1.05,1.77-4.94c-.07-.09-.2-.12-.31-.07-.11.05-.16.17-.13.29,2.79,10.71,11.97,15.2,23.44,13.71C15.49,12.75,1.52,9.47-4.66,1.68c-.07-.09-.2-.12-.31-.07-.11.05-.16.17-.14.28C-3.73,8.51-.24,13.45,5.52,15.41Z"/>
        </g>
      </g>
    </pattern>
    <filter id="drop-shadow-3" filterUnits="userSpaceOnUse">
      <feOffset dx="0" dy="1"/>
      <feGaussianBlur result="blur-3" stdDeviation="0"/>
      <feFlood flood-color="#9090c4" flood-opacity="1"/>
      <feComposite in2="blur-3" operator="in"/>
      <feComposite in="SourceGraphic"/>
    </filter>
    <pattern id="Alyssa" x="0" y="0" width="144.13" height="138.36" patternTransform="translate(-281.86 -834.3)" patternUnits="userSpaceOnUse" viewBox="0 0 144.13 138.36">
      <g>
        <rect class="cls-2" x="0" width="144.13" height="138.36"/>
        <path class="cls-3" d="M211.07,158.52c-11.76-1.38-19.37.35-22.65,3.11-3.02,2.54-4.96,5.41-2.25,11.93,2.94,7.09,1.53,14.73-5.54,15.91-6.22,1.04-10.89-4.84-11.24-12.28-.24-5.18-1.9-8.3-5.53-7.61-3.63.69-4.63,5.9-3.63,11.76,1.38,8.13,5.54,11.76,6.23,20.23.49,6.05-2.94,13.66-12.45,15.04-9.3,1.35-15.91-4.32-16.6-10.55-.73-6.59,3.63-10.89,3.11-17.64-.52-6.75-4.01-10.17-5.88-17.29-2.77-10.55,1.21-19.02,7.78-22.65,14.75-8.15,22.83,3.64,35.97,1.56,10.9-1.73,23.35-18.16,33.03-19.54,8.23-1.17,13.83,4.67,15.04,14.01,1.21,9.34-4.74,15.26-15.39,14.01ZM168.88,159.04c0-2.29-1.86-4.15-4.15-4.15s-4.15,1.86-4.15,4.15,1.86,4.15,4.15,4.15,4.15-1.86,4.15-4.15ZM218.34,143.65c0-.96-.78-1.73-1.73-1.73s-1.73.77-1.73,1.73.77,1.73,1.73,1.73,1.73-.77,1.73-1.73Z"/>
        <g>
          <path class="cls-18" d="M48.83,139.33c0,7.17,4.59,13.81-1,16.33-8.5,3.83-28-14.33-28-36.17,0-12,8.67-19,17.83-19,12.33,0,18,8.17,18,17.5s-6.83,13.14-6.83,21.33ZM43.42,133.96c0-1.15-.93-2.08-2.07-2.08s-2.08.93-2.08,2.08.93,2.08,2.08,2.08,2.07-.93,2.07-2.08Z"/>
          <path class="cls-17" d="M123.53,162.83c-7.87,2.74-19.44-15.3-17.67-27.02,1.24-8.23,7.12-13.19,13.09-14.22,7.53-1.3,12.9,2.6,13.3,7.24.55,6.31-3.63,7.52-4.22,14.96-.56,7.13,3.69,16.19-4.49,19.03ZM119.74,135.32c0-1.43-1.16-2.59-2.59-2.59s-2.59,1.16-2.59,2.59,1.16,2.59,2.59,2.59,2.59-1.16,2.59-2.59Z"/>
          <path class="cls-18" d="M19.39,140.36c0,1.43-1.16,2.59-2.59,2.59s-2.59-1.16-2.59-2.59,1.16-2.59,2.59-2.59,2.59,1.16,2.59,2.59Z"/>
          <path class="cls-17" d="M84.61,132.64c.74,8.1,12.67,7.02,17.9,14.21,10.52,14.47-1.22,46.37-21.63,46.37-11.74,0-24.22-9.72-24.22-29.22,0-15.83,10.17-21.5,8.25-42.17-1.01-10.83-12.5-20.34-12.5-34.75,0-5.92,3.59-13.45,11.55-13.45,7.05,0,10.82,5.95,10.82,12.9s-5.38,15.74,1.37,19.05c5.24,2.57,13.21-4.77,19.5-6.75,5.19-1.64,12.39.22,14.75,8.5,2.53,8.88-3.25,14.75-11.59,16.69-6.32,1.48-14.8,2.17-14.21,8.61ZM68.62,102.08c0-1.82-1.47-3.29-3.29-3.29s-3.29,1.47-3.29,3.29,1.47,3.29,3.29,3.29,3.29-1.47,3.29-3.29ZM94.61,111.78c1.29,0,2.33-1.04,2.33-2.33s-1.04-2.33-2.33-2.33-2.33,1.04-2.33,2.33,1.04,2.33,2.33,2.33ZM74.62,171.45c0-1.82-1.47-3.29-3.29-3.29s-3.29,1.47-3.29,3.29,1.47,3.29,3.29,3.29,3.29-1.47,3.29-3.29Z"/>
          <path class="cls-3" d="M66.94,158.52c-11.76-1.38-19.37.35-22.65,3.11-3.02,2.54-4.95,5.41-2.25,11.93,2.94,7.09,1.53,14.73-5.54,15.91-6.22,1.04-10.89-4.84-11.24-12.28-.24-5.18-1.9-8.3-5.53-7.61-3.63.69-4.63,5.9-3.63,11.76,1.38,8.13,5.54,11.76,6.23,20.23.49,6.05-2.94,13.66-12.45,15.04-9.3,1.35-15.91-4.32-16.6-10.55-.73-6.59,3.63-10.89,3.11-17.64-.52-6.75-4.01-10.17-5.88-17.29-2.77-10.55,1.21-19.02,7.78-22.65,14.75-8.15,22.83,3.64,35.97,1.56,10.9-1.73,23.35-18.16,33.03-19.54,8.23-1.17,13.83,4.67,15.04,14.01,1.21,9.34-4.74,15.26-15.39,14.01ZM24.75,159.04c0-2.29-1.86-4.15-4.15-4.15s-4.15,1.86-4.15,4.15,1.86,4.15,4.15,4.15,4.15-1.86,4.15-4.15ZM74.21,143.65c0-.96-.78-1.73-1.73-1.73s-1.73.77-1.73,1.73.77,1.73,1.73,1.73,1.73-.77,1.73-1.73Z"/>
        </g>
        <g>
          <path class="cls-17" d="M190.32,111.99c0,6.23-4.15,10.72-8.65,11.59-4.5.87-8.32-1.28-12.97,1.21-4.84,2.59-7.09,11.07-16.78,11.07-7.96,0-15.22-7.96-15.22-18.85,0-20.23,13.14-29.23,25.59-29.23,16.6,0,28.02,12.62,28.02,24.21ZM170.61,97.63c0-2.1-1.7-3.8-3.8-3.8s-3.8,1.7-3.8,3.8,1.7,3.8,3.8,3.8,3.8-1.7,3.8-3.8Z"/>
          <path class="cls-3" d="M211.07,20.16c-11.76-1.38-19.37.35-22.65,3.11-3.02,2.54-4.96,5.41-2.25,11.93,2.94,7.09,1.53,14.73-5.54,15.91-6.22,1.04-10.89-4.84-11.24-12.28-.24-5.18-1.9-8.3-5.53-7.61-3.63.69-4.63,5.9-3.63,11.76,1.38,8.13,5.54,11.76,6.23,20.23.49,6.05-2.94,13.66-12.45,15.04-9.3,1.35-15.91-4.32-16.6-10.55-.73-6.59,3.63-10.89,3.11-17.64-.52-6.75-4.01-10.17-5.88-17.29-2.77-10.55,1.21-19.02,7.78-22.65,14.75-8.15,22.83,3.64,35.97,1.56,10.9-1.73,23.35-18.16,33.03-19.54,8.23-1.17,13.83,4.67,15.04,14.01,1.21,9.34-4.74,15.26-15.39,14.01ZM168.88,20.68c0-2.29-1.86-4.15-4.15-4.15s-4.15,1.86-4.15,4.15,1.86,4.15,4.15,4.15,4.15-1.86,4.15-4.15ZM218.34,5.29c0-.96-.78-1.73-1.73-1.73s-1.73.77-1.73,1.73.77,1.73,1.73,1.73,1.73-.77,1.73-1.73Z"/>
        </g>
        <g>
          <path class="cls-17" d="M31.83,83.64c-13.96,1.99-21.17-13.33-17.67-20.33,3.67-7.33,12.12-4.17,19.5-4.17,9.67,0,16.37-7.57,20.42-2.25,4.25,5.58-5.01,24.29-22.25,26.75ZM32.36,66.16c0-1.24-1.01-2.25-2.25-2.25s-2.25,1.01-2.25,2.25,1.01,2.25,2.25,2.25,2.25-1.01,2.25-2.25Z"/>
          <path class="cls-18" d="M48.83.97c0,7.17,4.59,13.81-1,16.33-8.5,3.83-28-14.33-28-36.17,0-12,8.67-19,17.83-19,12.33,0,18,8.17,18,17.5s-6.83,13.14-6.83,21.33ZM43.42-4.4c0-1.15-.93-2.08-2.07-2.08s-2.08.93-2.08,2.08.93,2.08,2.08,2.08,2.07-.93,2.07-2.08Z"/>
          <path class="cls-17" d="M46.19,111.99c0,6.23-4.15,10.72-8.65,11.59-4.5.87-8.32-1.28-12.97,1.21-4.84,2.59-7.09,11.07-16.77,11.07-7.96,0-15.22-7.96-15.22-18.85,0-20.23,13.14-29.23,25.59-29.23,16.6,0,28.02,12.62,28.02,24.21ZM26.48,97.63c0-2.1-1.7-3.8-3.8-3.8s-3.8,1.7-3.8,3.8,1.7,3.8,3.8,3.8,3.8-1.7,3.8-3.8Z"/>
          <path class="cls-3" d="M45.5,88.3c0,1.34-1.08,2.42-2.42,2.42s-2.42-1.08-2.42-2.42,1.08-2.42,2.42-2.42,2.42,1.08,2.42,2.42Z"/>
          <path class="cls-17" d="M129.2,69.79c-3.19,4.68,1.04,10.72-1.38,15.22-2.42,4.5-6.74,5.02-9.86,2.6-3.63-2.83-3.41-6.64-8.3-8.82-5.53-2.46-17.98,2.25-19.71-7.26-.87-4.81,2.37-8.57,7.26-9.68,6.05-1.38,9.35-.18,15.39-3.11,6.05-2.94,11.24-8.99,22.14-12.11,10.41-2.97,16.07,1.56,16.6,5.88,1.04,8.47-17.13,9.95-22.14,17.29ZM126.95,62.35c0-1.24-1.01-2.25-2.25-2.25s-2.25,1.01-2.25,2.25,1.01,2.25,2.25,2.25,2.25-1.01,2.25-2.25Z"/>
          <path class="cls-18" d="M156.17,108.97c0,17.17-14.5,25.5-27,22.83-10.26-2.19-12.83-17.33-16.67-26.17-3.71-8.56-8.83-22.5-20.17-22.5s-12.83,14.5-23.67,14.5-24.5-15.67-24.5-39.67c0-14.67,9.8-31.46,20.83-30.67,11.67.83,4.5,19.67,15.33,19.67,9.5,0,7.86-16.26,9.17-23.33,1.67-9,6.83-14.17,18.5-13.17,14.44,1.24,22.33,13.5,18.87,23.34-4.03,11.45-23.87,17.32-21.54,30.49,1.35,7.59,13,12,26,16.17,14.53,4.66,24.83,11.33,24.83,28.5ZM111.21,33.13c0,1.82,1.47,3.29,3.29,3.29s3.29-1.47,3.29-3.29-1.47-3.29-3.29-3.29-3.29,1.47-3.29,3.29ZM64.52,58.03c0-.96-.77-1.73-1.73-1.73s-1.73.78-1.73,1.73.78,1.73,1.73,1.73,1.73-.77,1.73-1.73ZM81.99,68.75c0-2.1-1.7-3.8-3.8-3.8s-3.8,1.7-3.8,3.8,1.71,3.8,3.8,3.8,3.8-1.7,3.8-3.8ZM101.88,53.19c0-.86-.7-1.56-1.56-1.56s-1.56.7-1.56,1.56.7,1.56,1.56,1.56,1.56-.7,1.56-1.56ZM131.52,107.88c0-1.75-1.42-3.17-3.17-3.17s-3.17,1.42-3.17,3.17,1.42,3.17,3.17,3.17,3.17-1.42,3.17-3.17Z"/>
          <path class="cls-17" d="M123.53,24.47c-7.87,2.74-19.44-15.3-17.67-27.02,1.24-8.23,7.12-13.19,13.09-14.22,7.53-1.3,12.9,2.6,13.3,7.24.55,6.31-3.63,7.52-4.22,14.96-.56,7.13,3.69,16.19-4.49,19.03ZM119.74-3.04c0-1.43-1.16-2.59-2.59-2.59s-2.59,1.16-2.59,2.59,1.16,2.59,2.59,2.59,2.59-1.16,2.59-2.59Z"/>
          <path class="cls-18" d="M19.39,2c0,1.43-1.16,2.59-2.59,2.59s-2.59-1.16-2.59-2.59,1.16-2.59,2.59-2.59,2.59,1.16,2.59,2.59Z"/>
          <path class="cls-18" d="M153.38,88.74c0-8.41-5.08-15.23-11.34-15.23s-11.34,6.82-11.34,15.23,5.08,12.44,11.34,12.44,11.34-4.03,11.34-12.44Z"/>
          <path class="cls-17" d="M84.61-5.72c.74,8.1,12.67,7.02,17.9,14.21,10.52,14.47-1.22,46.37-21.63,46.37-11.74,0-24.22-9.72-24.22-29.22,0-15.83,10.17-21.5,8.25-42.17-1.01-10.83-12.5-20.34-12.5-34.75,0-5.92,3.59-13.45,11.55-13.45,7.05,0,10.82,5.95,10.82,12.9s-5.38,15.74,1.37,19.05c5.24,2.57,13.21-4.77,19.5-6.75,5.19-1.64,12.39.22,14.75,8.5,2.53,8.88-3.25,14.75-11.59,16.69-6.32,1.48-14.8,2.17-14.21,8.61ZM68.62-36.28c0-1.82-1.47-3.29-3.29-3.29s-3.29,1.47-3.29,3.29,1.47,3.29,3.29,3.29,3.29-1.47,3.29-3.29ZM94.61-26.59c1.29,0,2.33-1.04,2.33-2.33s-1.04-2.33-2.33-2.33-2.33,1.04-2.33,2.33,1.04,2.33,2.33,2.33ZM74.62,33.09c0-1.82-1.47-3.29-3.29-3.29s-3.29,1.47-3.29,3.29,1.47,3.29,3.29,3.29,3.29-1.47,3.29-3.29Z"/>
          <path class="cls-3" d="M66.94,20.16c-11.76-1.38-19.37.35-22.65,3.11-3.02,2.54-4.95,5.41-2.25,11.93,2.94,7.09,1.53,14.73-5.54,15.91-6.22,1.04-10.89-4.84-11.24-12.28-.24-5.18-1.9-8.3-5.53-7.61-3.63.69-4.63,5.9-3.63,11.76,1.38,8.13,5.54,11.76,6.23,20.23.49,6.05-2.94,13.66-12.45,15.04-9.3,1.35-15.91-4.32-16.6-10.55-.73-6.59,3.63-10.89,3.11-17.64-.52-6.75-4.01-10.17-5.88-17.29-2.77-10.55,1.21-19.02,7.78-22.65,14.75-8.15,22.83,3.64,35.97,1.56,10.9-1.73,23.35-18.16,33.03-19.54,8.23-1.17,13.83,4.67,15.04,14.01,1.21,9.34-4.74,15.26-15.39,14.01ZM24.75,20.68c0-2.29-1.86-4.15-4.15-4.15s-4.15,1.86-4.15,4.15,1.86,4.15,4.15,4.15,4.15-1.86,4.15-4.15ZM74.21,5.29c0-.96-.78-1.73-1.73-1.73s-1.73.77-1.73,1.73.77,1.73,1.73,1.73,1.73-.77,1.73-1.73Z"/>
          <path class="cls-3" d="M130.24,42.47c0,.76-.62,1.38-1.38,1.38s-1.38-.62-1.38-1.38.62-1.38,1.38-1.38,1.38.62,1.38,1.38Z"/>
          <path class="cls-19" d="M135.77,4.08c0,1.24-1.01,2.25-2.25,2.25s-2.25-1.01-2.25-2.25,1.01-2.25,2.25-2.25,2.25,1.01,2.25,2.25Z"/>
          <path class="cls-14" d="M52.24,27.25c0,.67-.54,1.21-1.21,1.21s-1.21-.54-1.21-1.21.54-1.21,1.21-1.21,1.21.54,1.21,1.21Z"/>
          <path class="cls-14" d="M48.61,95.73c0,.76-.62,1.38-1.38,1.38s-1.38-.62-1.38-1.38.62-1.38,1.38-1.38,1.38.62,1.38,1.38Z"/>
          <path class="cls-18" d="M133.18,73.77c0,.67-.54,1.21-1.21,1.21s-1.21-.54-1.21-1.21.54-1.21,1.21-1.21,1.21.54,1.21,1.21Z"/>
          <path class="cls-23" d="M95.89,91.69c0,1.88-1.53,3.41-3.41,3.41s-3.41-1.53-3.41-3.41,1.53-3.41,3.41-3.41,3.41,1.53,3.41,3.41Z"/>
          <path class="cls-18" d="M100.87,131.55c0,1.16-.94,2.1-2.1,2.1s-2.1-.94-2.1-2.1.94-2.1,2.1-2.1,2.1.94,2.1,2.1Z"/>
          <path class="cls-18" d="M62.07,125.25c0,.87-.7,1.57-1.57,1.57s-1.57-.7-1.57-1.57.71-1.57,1.57-1.57,1.57.71,1.57,1.57Z"/>
          <circle class="cls-23" cx="133.12" cy="11.21" r="2.62"/>
          <circle class="cls-17" cx="123.15" cy="46.07" r="2.36"/>
          <path class="cls-19" d="M27.72,52.63c0,1.45-1.17,2.62-2.62,2.62s-2.62-1.17-2.62-2.62,1.17-2.62,2.62-2.62,2.62,1.17,2.62,2.62Z"/>
          <path class="cls-17" d="M22.74,45.55c0,.72-.59,1.31-1.31,1.31s-1.31-.59-1.31-1.31.59-1.31,1.31-1.31,1.31.59,1.31,1.31Z"/>
          <path class="cls-18" d="M86.97,97.46c0,.87-.71,1.57-1.57,1.57s-1.57-.7-1.57-1.57.7-1.57,1.57-1.57,1.57.71,1.57,1.57Z"/>
        </g>
        <g>
          <path class="cls-17" d="M-14.93,69.79c-3.19,4.68,1.04,10.72-1.38,15.22-2.42,4.5-6.74,5.02-9.86,2.6-3.63-2.83-3.41-6.64-8.3-8.82-5.53-2.46-17.98,2.25-19.71-7.26-.88-4.81,2.38-8.57,7.26-9.68,6.05-1.38,9.35-.18,15.39-3.11,6.05-2.94,11.24-8.99,22.14-12.11,10.41-2.97,16.07,1.56,16.6,5.88,1.04,8.47-17.13,9.95-22.14,17.29ZM-17.18,62.35c0-1.24-1.01-2.25-2.25-2.25s-2.25,1.01-2.25,2.25,1.01,2.25,2.25,2.25,2.25-1.01,2.25-2.25Z"/>
          <path class="cls-18" d="M12.04,108.97c0,17.17-14.5,25.5-27,22.83-10.26-2.19-12.83-17.33-16.67-26.17-3.71-8.56-8.83-22.5-20.17-22.5s-12.83,14.5-23.67,14.5-24.5-15.67-24.5-39.67c0-14.67,9.8-31.46,20.83-30.67,11.67.83,4.5,19.67,15.33,19.67,9.5,0,7.86-16.26,9.17-23.33,1.67-9,6.83-14.17,18.5-13.17,14.44,1.24,22.33,13.5,18.87,23.34-4.03,11.45-23.87,17.32-21.54,30.49,1.35,7.59,13,12,26,16.17,14.53,4.66,24.83,11.33,24.83,28.5ZM-32.91,33.13c0,1.82,1.47,3.29,3.29,3.29s3.29-1.47,3.29-3.29-1.47-3.29-3.29-3.29-3.29,1.47-3.29,3.29ZM-79.61,58.03c0-.96-.77-1.73-1.73-1.73s-1.73.78-1.73,1.73.78,1.73,1.73,1.73,1.73-.77,1.73-1.73ZM-62.14,68.75c0-2.1-1.7-3.8-3.8-3.8s-3.8,1.7-3.8,3.8,1.71,3.8,3.8,3.8,3.8-1.7,3.8-3.8ZM-42.25,53.19c0-.86-.7-1.56-1.56-1.56s-1.56.7-1.56,1.56.7,1.56,1.56,1.56,1.56-.7,1.56-1.56ZM-12.61,107.88c0-1.75-1.42-3.17-3.17-3.17s-3.17,1.42-3.17,3.17,1.42,3.17,3.17,3.17,3.17-1.42,3.17-3.17Z"/>
          <path class="cls-18" d="M9.26,88.74c0-8.41-5.08-15.23-11.34-15.23s-11.34,6.82-11.34,15.23,5.08,12.44,11.34,12.44,11.34-4.03,11.34-12.44Z"/>
        </g>
      </g>
    </pattern>
    <filter id="drop-shadow-4" filterUnits="userSpaceOnUse">
      <feOffset dx="-1" dy="1"/>
      <feGaussianBlur result="blur-4" stdDeviation="0"/>
      <feFlood flood-color="#9090c4" flood-opacity="1"/>
      <feComposite in2="blur-4" operator="in"/>
      <feComposite in="SourceGraphic"/>
    </filter>
    <filter id="drop-shadow-5" filterUnits="userSpaceOnUse">
      <feOffset dx="0" dy="1"/>
      <feGaussianBlur result="blur-5" stdDeviation="0"/>
      <feFlood flood-color="#9090c4" flood-opacity="1"/>
      <feComposite in2="blur-5" operator="in"/>
      <feComposite in="SourceGraphic"/>
    </filter>
    <filter id="drop-shadow-6" filterUnits="userSpaceOnUse">
      <feOffset dx="0" dy="1"/>
      <feGaussianBlur result="blur-6" stdDeviation="0"/>
      <feFlood flood-color="#9090c4" flood-opacity="1"/>
      <feComposite in2="blur-6" operator="in"/>
      <feComposite in="SourceGraphic"/>
    </filter>
    <radialGradient id="radial-gradient" cx="58.48" cy="28.42" fx="58.48" fy="28.42" r="23.28" gradientTransform="translate(0 5.63) scale(1 1.05)" gradientUnits="userSpaceOnUse">
      <stop offset="0" stop-color="#fff"/>
      <stop offset=".78" stop-color="#f7f7f7"/>
      <stop offset="1" stop-color="#e6e6e6"/>
    </radialGradient>
    <filter id="drop-shadow-7" filterUnits="userSpaceOnUse">
      <feOffset dx="0" dy="1"/>
      <feGaussianBlur result="blur-7" stdDeviation="0"/>
      <feFlood flood-color="#9090c4" flood-opacity="1"/>
      <feComposite in2="blur-7" operator="in"/>
      <feComposite in="SourceGraphic"/>
    </filter>
    <radialGradient id="radial-gradient-2" cx="57.14" cy="43.98" fx="57.14" fy="43.98" r="3.95" gradientUnits="userSpaceOnUse">
      <stop offset=".04" stop-color="#42210b"/>
      <stop offset="1" stop-color="#000"/>
    </radialGradient>
    <linearGradient id="White_Black" data-name="White, Black" x1="46.66" y1="80.98" x2="51.13" y2="80.98" gradientUnits="userSpaceOnUse">
      <stop offset="0" stop-color="#fff"/>
      <stop offset="1" stop-color="#000"/>
    </linearGradient>
    <linearGradient id="White_Black-2" data-name="White, Black" x1="49.11" y1="80.84" x2="53.57" y2="80.84" xlink:href="#White_Black"/>
    <linearGradient id="White_Black-3" data-name="White, Black" x1="52.1" y1="80.74" x2="56.57" y2="80.74" xlink:href="#White_Black"/>
    <linearGradient id="White_Black-4" data-name="White, Black" x1="54.38" y1="80.69" x2="58.85" y2="80.69" xlink:href="#White_Black"/>
    <linearGradient id="White_Black-5" data-name="White, Black" x1="56.83" y1="80.55" x2="61.3" y2="80.55" xlink:href="#White_Black"/>
    <linearGradient id="White_Black-6" data-name="White, Black" x1="59.82" y1="80.45" x2="64.29" y2="80.45" xlink:href="#White_Black"/>
    <linearGradient id="White_Black-7" data-name="White, Black" x1="62.37" y1="80.41" x2="66.84" y2="80.41" xlink:href="#White_Black"/>
    <linearGradient id="White_Black-8" data-name="White, Black" x1="64.82" y1="80.28" x2="69.29" y2="80.28" xlink:href="#White_Black"/>
    <linearGradient id="White_Black-9" data-name="White, Black" x1="67.82" y1="80.17" x2="72.29" y2="80.17" xlink:href="#White_Black"/>
    <linearGradient id="White_Black-10" data-name="White, Black" x1="70.09" y1="80.12" x2="74.56" y2="80.12" xlink:href="#White_Black"/>
    <linearGradient id="White_Black-11" data-name="White, Black" x1="73.09" y1="80.02" x2="77.56" y2="80.02" xlink:href="#White_Black"/>
    <linearGradient id="White_Black-12" data-name="White, Black" x1="76.02" y1="79.56" x2="80.49" y2="79.56" xlink:href="#White_Black"/>
  </defs>
  <g class="cls-42">
    <g id="Layer_2" data-name="Layer 2">
      <g id="Layer_7" data-name="Layer 7">
        <ellipse class="cls-15" cx="60.12" cy="58.75" rx="60.12" ry="58.75"/>
        <g>
          <path class="cls-6" d="M46.4,20.14c.13,3.68-3.59,6.76-8.19,6.65-6.47-.15-6.88-12.12-.44-12.72,4.58-.42,8.5,2.39,8.62,6.07Z"/>
          <path class="cls-5" d="M66.26,15.26c1.06-3.31,5.36-4.87,9.41-3.31,5.71,2.2,2.26,13-3.67,11.47-4.21-1.08-6.81-4.85-5.75-8.16Z"/>
        </g>
        <path class="cls-9" d="M96.27,71.99c-.68-2.47-1.68-4.49-2.89-6.06-1.54-4.69-5.62-8.1-9.66-10.69l-.16-.1c-11.8-8.85-29.59-10.46-42.01-2.26-5.17,3.84-11.02,8.46-12.89,14.98-2.41,8.54,3.5,17.48,12.32,19.26,3.26.74,6.78.51,9.91-.59,3.46-1.15,6.81-3.01,10.43-3.19,6.14-.17,11.9,4.13,18.2,3.07.04,0,.09-.02.13-.02l.71,20.51c3.44.08,7.52-2.72,10.48-4.53,2.66-1.81,5.96-4.09,7.22-7.22,2.44-7.33.32-15.91-1.79-23.14Z"/>
        <path class="cls-7" d="M49.73,91.6c-.71-2.75,1.27-5.96,1.89-9,2.06-7.32,2.96-15.78-4.55-19.5-8.61-4.51-16.93-1.23-20.09,7.86-2.58,7.06-5.17,15.39-2.46,22.6.14.37.3.73.5,1.06,1.75,2.86,5.62,4.99,8.77,6.7,4.81,2.35,11.99,6.37,16.7,3.62,2.5-1.57,3.71-4.69,2.19-7.83-.87-1.82-2.36-3.4-2.92-5.35l-.04-.16Z"/>
        <g class="cls-41">
          <path class="cls-8" d="M39.65,53.43l-1.28,1.88s7.77,11.39,11.77,12.39c0,0,1,1,6-3,0,0,2.32-2.71,3.16-4.36,0,0-13.8-.44-18.69-6.96-.24-.32-.74-.29-.96.04Z"/>
          <path class="cls-8" d="M60.66,60.25c-.27.16.19.6.75,1.4,1.29,1.73,3.33,4.04,5.29,4.95.21.09.32.14.49.09.86-.42,4.42-3.46,5.6-4.63,2.57-2.53,5.57-5.16,7.73-8.48.23-.77-.54-1.03-1.44-1.72-.46-.28-.78-.55-1.07-.76-.38-.28-.9-.2-1.21.15-2.32,2.69-8.74,7.84-16.08,8.96l-.06.03Z"/>
        </g>
        <g>
          <g>
            <rect class="cls-22" x="49.64" y="80.2" width="31" height="33" transform="translate(-3.3 2.3) rotate(-1.98)"/>
            <rect class="cls-37" x="49.64" y="80.2" width="31" height="33" transform="translate(-3.3 2.3) rotate(-1.98)"/>
            <rect class="cls-22" x="49.64" y="79.2" width="31" height="33" transform="translate(-3.26 2.3) rotate(-1.98)"/>
            <rect class="cls-37" x="49.64" y="79.2" width="31" height="33" transform="translate(-3.26 2.3) rotate(-1.98)"/>
          </g>
          <g>
            <g>
              <rect class="cls-16" x="48.64" y="82.2" width="31" height="33" transform="translate(-3.36 2.27) rotate(-1.98)"/>
              <rect class="cls-39" x="48.64" y="82.2" width="31" height="33" transform="translate(-3.36 2.27) rotate(-1.98)"/>
            </g>
            <g>
              <rect class="cls-10" x="48.64" y="81.2" width="31" height="33" transform="translate(-3.33 2.27) rotate(-1.98)"/>
              <rect class="cls-38" x="48.64" y="81.2" width="31" height="33" transform="translate(-3.33 2.27) rotate(-1.98)"/>
            </g>
          </g>
        </g>
        <path class="cls-20" d="M56.35,99.59c-.86,4.53-6.26,7.27-11.85,5.88-7.87-1.97-5.07-16.73,2.97-15.68,5.71.75,9.73,5.27,8.87,9.8Z"/>
        <g>
          <g class="cls-40">
            <path class="cls-16" d="M83.1,36.47c4.6,29.9-53.16,29.86-49.33-.02,4.95-29.88,43.61-29.88,49.33.02Z"/>
          </g>
          <path class="cls-4" d="M83.1,35.47c4.6,29.9-53.16,29.86-49.33-.02,4.95-29.88,43.61-29.88,49.33.02Z"/>
        </g>
        <path class="cls-13" d="M69.37,29.7c-5.35,0-9.69,1.3-9.77,5.39-.57-.22-1.24-.35-1.96-.35s-2.39.13-2.96.35c-.08-4.09-3.42-5.39-8.77-5.39s-8.77.36-8.77,4.5,3.38,8.5,8.77,8.5c4.84,0,7.85-2.7,8.63-6.24.62-.3,2.36-.58,3.1-.58s1.48.28,2.1.58c.78,3.54,3.79,6.24,8.63,6.24,5.4,0,8.77-4.36,8.77-8.5s-2.38-4.5-7.77-4.5ZM45.78,41.56c-4.5,0-7.16-3.8-7.16-7.26s2.65-3.26,7.16-3.26,7.16.8,7.16,4.26-2.65,6.26-7.16,6.26ZM68.51,41.56c-4.5,0-7.16-2.8-7.16-6.26s3.65-4.26,8.16-4.26,6.16-.2,6.16,3.26-2.65,7.26-7.16,7.26Z"/>
        <ellipse class="cls-12" cx="47.64" cy="36.2" rx="2.5" ry="1.5"/>
        <ellipse class="cls-12" cx="68.64" cy="36.2" rx="2.5" ry="1.5"/>
        <g>
          <circle class="cls-22" cx="49.14" cy="35.7" r="1"/>
          <circle class="cls-22" cx="70.14" cy="35.7" r="1"/>
        </g>
        <path class="cls-11" d="M61.14,42.7c0,1.93-1.24,4-4,4s-4-2.07-4-4,8-1.93,8,0Z"/>
        <path class="cls-21" d="M64.14,47.7c0,.83-2.13,3-6,3s-7-2.17-7-3,3.13,1,7,1,6-1.83,6-1Z"/>
        <g>
          <path class="cls-25" d="M46.84,81.12c-.04-1.19.89-2.18,2.07-2.22.7-.02,1.59.53,2.22,1.24-.37-.86-1.23-1.45-2.22-1.42-1.29.04-2.29,1.12-2.25,2.41.03.99.68,1.81,1.57,2.12-.75-.57-1.36-1.42-1.39-2.13Z"/>
          <path class="cls-33" d="M49.29,80.98c-.04-1.19.89-2.18,2.07-2.22.7-.02,1.59.53,2.22,1.24-.37-.86-1.23-1.45-2.22-1.42-1.29.04-2.29,1.12-2.25,2.41.03.99.68,1.81,1.57,2.12-.75-.57-1.36-1.42-1.39-2.13Z"/>
          <path class="cls-32" d="M52.28,80.88c-.04-1.19.89-2.18,2.07-2.22.7-.02,1.59.53,2.22,1.24-.37-.86-1.23-1.45-2.22-1.42-1.29.04-2.29,1.12-2.25,2.41.03.99.68,1.81,1.57,2.12-.75-.57-1.36-1.42-1.39-2.13Z"/>
          <path class="cls-34" d="M54.56,80.83c-.04-1.19.89-2.18,2.07-2.22.7-.02,1.59.53,2.22,1.24-.37-.86-1.23-1.45-2.22-1.42-1.29.04-2.29,1.12-2.25,2.41.03.99.68,1.81,1.57,2.12-.75-.57-1.36-1.42-1.39-2.13Z"/>
          <path class="cls-29" d="M57.01,80.69c-.04-1.19.89-2.18,2.07-2.22.7-.02,1.59.53,2.22,1.24-.37-.86-1.23-1.45-2.22-1.42-1.29.04-2.29,1.12-2.25,2.41.03.99.68,1.81,1.57,2.12-.75-.57-1.36-1.42-1.39-2.13Z"/>
          <path class="cls-30" d="M60,80.59c-.04-1.19.89-2.18,2.07-2.22.7-.02,1.59.53,2.22,1.24-.37-.86-1.23-1.45-2.22-1.42-1.29.04-2.29,1.12-2.25,2.41.03.99.68,1.81,1.57,2.12-.75-.57-1.36-1.42-1.39-2.13Z"/>
          <path class="cls-31" d="M62.55,80.55c-.04-1.19.89-2.18,2.07-2.22.7-.02,1.59.53,2.22,1.24-.37-.86-1.23-1.45-2.22-1.42-1.29.04-2.29,1.12-2.25,2.41.03.99.68,1.81,1.57,2.12-.75-.57-1.36-1.42-1.39-2.13Z"/>
          <path class="cls-35" d="M65,80.41c-.04-1.19.89-2.18,2.07-2.22.7-.02,1.59.53,2.22,1.24-.37-.86-1.23-1.45-2.22-1.42-1.29.04-2.29,1.12-2.25,2.41.03.99.68,1.81,1.57,2.12-.75-.57-1.36-1.42-1.39-2.13Z"/>
          <path class="cls-36" d="M68,80.31c-.04-1.19.89-2.18,2.07-2.22.7-.02,1.59.53,2.22,1.24-.37-.86-1.23-1.45-2.22-1.42-1.29.04-2.29,1.12-2.25,2.41.03.99.68,1.81,1.57,2.12-.75-.57-1.36-1.42-1.39-2.13Z"/>
          <path class="cls-26" d="M70.27,80.26c-.04-1.19.89-2.18,2.07-2.22.7-.02,1.59.53,2.22,1.24-.37-.86-1.23-1.45-2.22-1.42-1.29.04-2.29,1.12-2.25,2.41.03.99.68,1.81,1.57,2.12-.75-.57-1.36-1.42-1.39-2.13Z"/>
          <path class="cls-27" d="M73.27,80.16c-.04-1.19.89-2.18,2.07-2.22.7-.02,1.59.53,2.22,1.24-.37-.86-1.23-1.45-2.22-1.42-1.29.04-2.29,1.12-2.25,2.41.03.99.68,1.81,1.57,2.12-.75-.57-1.36-1.42-1.39-2.13Z"/>
          <path class="cls-28" d="M76.2,79.7c-.04-1.19.89-2.18,2.07-2.22.7-.02,1.59.53,2.22,1.24-.37-.86-1.23-1.45-2.22-1.42-1.29.04-2.29,1.12-2.25,2.41.03.99.68,1.81,1.57,2.12-.75-.57-1.36-1.42-1.39-2.13Z"/>
        </g>
      </g>
    </g>
  </g>
</svg>